<svg xmlns="http://www.w3.org/2000/svg" style="display: none;">
  <defs>
    <!-- Interface Icons -->
    <symbol id="interface-arrow-left" viewBox="0 0 256 256">
      <path d="M224,128a8,8,0,0,1-8,8H59.31l58.35,58.34a8,8,0,0,1-11.32,11.32l-72-72a8,8,0,0,1,0-11.32l72-72a8,8,0,0,1,11.32,11.32L59.31,120H216A8,8,0,0,1,224,128Z"></path>    </symbol>
    <symbol id="interface-arrow-right" viewBox="0 0 256 256">
      <path d="M221.66,133.66l-72,72a8,8,0,0,1-11.32-11.32L196.69,136H40a8,8,0,0,1,0-16H196.69L138.34,61.66a8,8,0,0,1,11.32-11.32l72,72A8,8,0,0,1,221.66,133.66Z"></path>    </symbol>
    <symbol id="interface-caret-left" viewBox="0 0 256 256">
      <path d="M165.66,202.34a8,8,0,0,1-11.32,11.32l-80-80a8,8,0,0,1,0-11.32l80-80a8,8,0,0,1,11.32,11.32L91.31,128Z"></path>    </symbol>
    <symbol id="interface-caret-right" viewBox="0 0 256 256">
      <path d="M181.66,133.66l-80,80a8,8,0,0,1-11.32-11.32L164.69,128,90.34,53.66a8,8,0,0,1,11.32-11.32l80,80A8,8,0,0,1,181.66,133.66Z"></path>    </symbol>
    <symbol id="interface-device-mobile" viewBox="0 0 256 256">
      <path d="M176,16H80A24,24,0,0,0,56,40V216a24,24,0,0,0,24,24h96a24,24,0,0,0,24-24V40A24,24,0,0,0,176,16ZM72,64H184V192H72Zm8-32h96a8,8,0,0,1,8,8v8H72V40A8,8,0,0,1,80,32Zm96,192H80a8,8,0,0,1-8-8v-8H184v8A8,8,0,0,1,176,224Z"></path>    </symbol>
    <symbol id="interface-envelope-simple" viewBox="0 0 256 256">
      <path d="M224,48H32a8,8,0,0,0-8,8V192a16,16,0,0,0,16,16H216a16,16,0,0,0,16-16V56A8,8,0,0,0,224,48ZM203.43,64,128,133.15,52.57,64ZM216,192H40V74.19l82.59,75.71a8,8,0,0,0,10.82,0L216,74.19V192Z"></path>    </symbol>
    <symbol id="interface-github-logo" viewBox="0 0 256 256">
      <path d="M208.31,75.68A59.78,59.78,0,0,0,202.93,28,8,8,0,0,0,196,24a59.75,59.75,0,0,0-48,24H124A59.75,59.75,0,0,0,76,24a8,8,0,0,0-6.93,4,59.78,59.78,0,0,0-5.38,47.68A58.14,58.14,0,0,0,56,104v8a56.06,56.06,0,0,0,48.44,55.47A39.8,39.8,0,0,0,96,192v8H72a24,24,0,0,1-24-24A40,40,0,0,0,8,136a8,8,0,0,0,0,16,24,24,0,0,1,24,24,40,40,0,0,0,40,40H96v16a8,8,0,0,0,16,0V192a24,24,0,0,1,48,0v40a8,8,0,0,0,16,0V192a39.8,39.8,0,0,0-8.44-24.53A56.06,56.06,0,0,0,216,112v-8A58.14,58.14,0,0,0,208.31,75.68ZM200,112a40,40,0,0,1-40,40H112a40,40,0,0,1-40-40v-8a41.74,41.74,0,0,1,6.9-22.48A8,8,0,0,0,80,73.83a43.81,43.81,0,0,1,.79-33.58,43.88,43.88,0,0,1,32.32,20.06A8,8,0,0,0,119.82,64h32.35a8,8,0,0,0,6.74-3.69,43.87,43.87,0,0,1,32.32-20.06A43.81,43.81,0,0,1,192,73.83a8.09,8.09,0,0,0,1,7.65A41.72,41.72,0,0,1,200,104Z"></path>    </symbol>
    <symbol id="interface-instagram-logo" viewBox="0 0 256 256">
      <path d="M128,80a48,48,0,1,0,48,48A48.05,48.05,0,0,0,128,80Zm0,80a32,32,0,1,1,32-32A32,32,0,0,1,128,160ZM176,24H80A56.06,56.06,0,0,0,24,80v96a56.06,56.06,0,0,0,56,56h96a56.06,56.06,0,0,0,56-56V80A56.06,56.06,0,0,0,176,24Zm40,152a40,40,0,0,1-40,40H80a40,40,0,0,1-40-40V80A40,40,0,0,1,80,40h96a40,40,0,0,1,40,40ZM192,76a12,12,0,1,1-12-12A12,12,0,0,1,192,76Z"></path>    </symbol>
    <symbol id="interface-linkedin-logo" viewBox="0 0 256 256">
      <path d="M216,24H40A16,16,0,0,0,24,40V216a16,16,0,0,0,16,16H216a16,16,0,0,0,16-16V40A16,16,0,0,0,216,24Zm0,192H40V40H216V216ZM96,112v64a8,8,0,0,1-16,0V112a8,8,0,0,1,16,0Zm88,28v36a8,8,0,0,1-16,0V140a20,20,0,0,0-40,0v36a8,8,0,0,1-16,0V112a8,8,0,0,1,15.79-1.78A36,36,0,0,1,184,140ZM100,84A12,12,0,1,1,88,72,12,12,0,0,1,100,84Z"></path>    </symbol>
    <symbol id="interface-list" viewBox="0 0 256 256">
      <path d="M224,128a8,8,0,0,1-8,8H40a8,8,0,0,1,0-16H216A8,8,0,0,1,224,128ZM40,72H216a8,8,0,0,0,0-16H40a8,8,0,0,0,0,16ZM216,184H40a8,8,0,0,0,0,16H216a8,8,0,0,0,0-16Z"></path>    </symbol>
    <symbol id="interface-map-pin" viewBox="0 0 256 256">
      <path d="M128,64a40,40,0,1,0,40,40A40,40,0,0,0,128,64Zm0,64a24,24,0,1,1,24-24A24,24,0,0,1,128,128Zm0-112a88.1,88.1,0,0,0-88,88c0,31.4,14.51,64.68,42,96.25a254.19,254.19,0,0,0,41.45,38.3,8,8,0,0,0,9.18,0A254.19,254.19,0,0,0,174,200.25c27.45-31.57,42-64.85,42-96.25A88.1,88.1,0,0,0,128,16Zm0,206c-16.53-13-72-60.75-72-118a72,72,0,0,1,144,0C200,161.23,144.53,209,128,222Z"></path>    </symbol>
    <symbol id="interface-x" viewBox="0 0 256 256">
      <path d="M205.66,194.34a8,8,0,0,1-11.32,11.32L128,139.31,61.66,205.66a8,8,0,0,1-11.32-11.32L116.69,128,50.34,61.66A8,8,0,0,1,61.66,50.34L128,116.69l66.34-66.35a8,8,0,0,1,11.32,11.32L139.31,128Z"></path>    </symbol>
    <!-- Avatar Icons -->
    <symbol id="avatar-languages-anglais" viewBox="0 0 256 256">
      <path d="M230.9,73.6A15.85,15.85,0,0,0,212,77.39l-33.67,36.29-35.8-80.29a1,1,0,0,1,0-.1,16,16,0,0,0-29.06,0,1,1,0,0,1,0,.1l-35.8,80.29L44,77.39A16,16,0,0,0,16.25,90.81c0,.11,0,.21.07.32L39,195a16,16,0,0,0,15.72,13H201.29A16,16,0,0,0,217,195L239.68,91.13c0-.11,0-.21.07-.32A15.85,15.85,0,0,0,230.9,73.6ZM201.35,191.68l-.06.32H54.71l-.06-.32L32,88l.14.16,42,45.24a8,8,0,0,0,13.18-2.18L128,40l40.69,91.25a8,8,0,0,0,13.18,2.18l42-45.24L224,88Z"></path>    </symbol>
    <symbol id="avatar-languages-eleventy" viewBox="0 0 256 256">
      <path d="M96,104a8,8,0,0,1,8-8h64a8,8,0,0,1,0,16H104A8,8,0,0,1,96,104Zm8,40h64a8,8,0,0,0,0-16H104a8,8,0,0,0,0,16Zm128,48a32,32,0,0,1-32,32H88a32,32,0,0,1-32-32V64a16,16,0,0,0-32,0c0,5.74,4.83,9.62,4.88,9.66h0A8,8,0,0,1,24,88a7.89,7.89,0,0,1-4.79-1.61h0C18.05,85.54,8,77.61,8,64A32,32,0,0,1,40,32H176a32,32,0,0,1,32,32V168h8a8,8,0,0,1,4.8,1.6C222,170.46,232,178.39,232,192ZM96.26,173.48A8.07,8.07,0,0,1,104,168h88V64a16,16,0,0,0-16-16H67.69A31.71,31.71,0,0,1,72,64V192a16,16,0,0,0,32,0c0-5.74-4.83-9.62-4.88-9.66A7.82,7.82,0,0,1,96.26,173.48ZM216,192a12.58,12.58,0,0,0-3.23-8h-94a26.92,26.92,0,0,1,1.21,8,31.82,31.82,0,0,1-4.29,16H200A16,16,0,0,0,216,192Z"></path>    </symbol>
    <symbol id="avatar-languages-javascript" viewBox="0 0 256 256">
      <path d="M215.79,118.17a8,8,0,0,0-5-5.66L153.18,90.9l14.66-73.33a8,8,0,0,0-13.69-7l-112,120a8,8,0,0,0,3,13l57.63,21.61L88.16,238.43a8,8,0,0,0,13.69,7l112-120A8,8,0,0,0,215.79,118.17ZM109.37,214l10.47-52.38a8,8,0,0,0-5-9.06L62,132.71l84.62-90.66L136.16,94.43a8,8,0,0,0,5,9.06l52.8,19.8Z"></path>    </symbol>
    <symbol id="avatar-languages-symfony" viewBox="0 0 256 256">
      <path d="M112,116a12,12,0,1,1-12-12A12,12,0,0,1,112,116Zm44-12a12,12,0,1,0,12,12A12,12,0,0,0,156,104Zm68,16v96a8,8,0,0,1-13.07,6.19l-24.26-19.85L162.4,222.19a8,8,0,0,1-10.13,0L128,202.34l-24.27,19.85a8,8,0,0,1-10.13,0L69.33,202.34,45.07,222.19A8,8,0,0,1,32,216V120a96,96,0,0,1,192,0Zm-16,0a80,80,0,0,0-160,0v79.12l16.27-13.31a8,8,0,0,1,10.13,0l24.27,19.85,24.26-19.85a8,8,0,0,1,10.14,0l24.26,19.85,24.27-19.85a8,8,0,0,1,10.13,0L208,199.12Z"></path>    </symbol>
    <symbol id="avatar-languages-tailwind" viewBox="0 0 256 256">
      <path d="M221.28,34.75a64,64,0,0,0-90.49,0L60.69,104A15.9,15.9,0,0,0,56,115.31v73.38L26.34,218.34a8,8,0,0,0,11.32,11.32L67.32,200H140.7A15.92,15.92,0,0,0,152,195.32l0,0,69.23-70A64,64,0,0,0,221.28,34.75ZM142.07,46.06A48,48,0,0,1,211.79,112H155.33l34.35-34.34a8,8,0,0,0-11.32-11.32L120,124.69V67.87ZM72,115.35l32-31.67v57l-32,32ZM140.7,184H83.32l56-56h56.74Z"></path>    </symbol>
    <symbol id="avatar-soft-skills-empathie" viewBox="0 0 256 256">
      <path d="M200,75.64V40a16,16,0,0,0-16-16H72A16,16,0,0,0,56,40V76a16.07,16.07,0,0,0,6.4,12.8L114.67,128,62.4,167.2A16.07,16.07,0,0,0,56,180v36a16,16,0,0,0,16,16H184a16,16,0,0,0,16-16V180.36a16.09,16.09,0,0,0-6.35-12.77L141.27,128l52.38-39.6A16.05,16.05,0,0,0,200,75.64ZM72,40H184V75.64L178.23,80H77.33L72,76Zm56,78L98.67,96h58.4Zm56,98H72V180l48-36v24a8,8,0,0,0,16,0V144.08l48,36.28Z"></path>    </symbol>
    <symbol id="avatar-soft-skills-creativite" viewBox="0 0 256 256">
      <path d="M215.12,123.64a8,8,0,1,0-14.24-7.28,79.58,79.58,0,0,1-33.08,33.5l-16.58-37.32A40,40,0,0,0,136,40.8V24a8,8,0,0,0-16,0V40.8a40,40,0,0,0-15.22,71.74L56.69,220.75a8,8,0,1,0,14.62,6.5l25.14-56.56A95.48,95.48,0,0,0,128,176a99.13,99.13,0,0,0,31.6-5.21l25.09,56.46a8,8,0,0,0,14.62-6.5l-25-56.25A95.81,95.81,0,0,0,215.12,123.64ZM128,56a24,24,0,1,1-24,24A24,24,0,0,1,128,56Zm0,104a79.52,79.52,0,0,1-25-4l16.42-36.94a39.81,39.81,0,0,0,17.2,0l16.48,37.06A83.21,83.21,0,0,1,128,160Z"></path>    </symbol>
    <symbol id="avatar-soft-skills-patience" viewBox="0 0 256 256">
      <path d="M72,144H32a8,8,0,0,1,0-16H67.72l13.62-20.44a8,8,0,0,1,13.32,0l25.34,38,9.34-14A8,8,0,0,1,136,128h24a8,8,0,0,1,0,16H140.28l-13.62,20.44a8,8,0,0,1-13.32,0L88,126.42l-9.34,14A8,8,0,0,1,72,144ZM178,40c-20.65,0-38.73,8.88-50,23.89C116.73,48.88,98.65,40,78,40a62.07,62.07,0,0,0-62,62c0,.75,0,1.5,0,2.25a8,8,0,1,0,16-.5c0-.58,0-1.17,0-1.75A46.06,46.06,0,0,1,78,56c19.45,0,35.78,10.36,42.6,27a8,8,0,0,0,14.8,0c6.82-16.67,23.15-27,42.6-27a46.06,46.06,0,0,1,46,46c0,53.61-77.76,102.15-96,112.8-10.83-6.31-42.63-26-66.68-52.21a8,8,0,1,0-11.8,10.82c31.17,34,72.93,56.68,74.69,57.63a8,8,0,0,0,7.58,0C136.21,228.66,240,172,240,102A62.07,62.07,0,0,0,178,40Z"></path>    </symbol>
    <symbol id="avatar-hobbies-escrime" viewBox="0 0 256 256">
      <path d="M216,32H152a8,8,0,0,0-6.34,3.12l-64,83.21L72,108.69a16,16,0,0,0-22.64,0l-12.69,12.7a16,16,0,0,0,0,22.63l20,20-28,28a16,16,0,0,0,0,22.63l12.69,12.68a16,16,0,0,0,22.62,0l28-28,20,20a16,16,0,0,0,22.64,0l12.69-12.7a16,16,0,0,0,0-22.63l-9.64-9.64,83.21-64A8,8,0,0,0,224,104V40A8,8,0,0,0,216,32ZM52.69,216,40,203.32l28-28L80.68,188Zm70.61-8L48,132.71,60.7,120,136,195.31ZM208,100.06l-81.74,62.88L115.32,152l50.34-50.34a8,8,0,0,0-11.32-11.31L104,140.68,93.07,129.74,155.94,48H208Z"></path>    </symbol>
    <symbol id="avatar-hobbies-maintenance" viewBox="0 0 256 256">
      <path d="M251.34,112,183.88,44.08a96.1,96.1,0,0,0-135.77,0l-.09.09L34.25,58.4A8,8,0,0,0,45.74,69.53L59.47,55.35a79.92,79.92,0,0,1,18.71-13.9L124.68,88l-96,96a16,16,0,0,0,0,22.63l20.69,20.69a16,16,0,0,0,22.63,0l96-96,14.34,14.34h0L200,163.3a16,16,0,0,0,22.63,0l28.69-28.69A16,16,0,0,0,251.34,112ZM60.68,216,40,195.31l68-68L128.68,148ZM162.34,114.32,140,136.67,119.31,116l22.35-22.35a8,8,0,0,0,0-11.32L94.32,35a80,80,0,0,1,78.23,20.41l44.22,44.51L188,128.66l-14.34-14.34A8,8,0,0,0,162.34,114.32Zm49,37.66-12-12L228,111.25l12,12Z"></path>    </symbol>
    <symbol id="avatar-hobbies-coree" viewBox="0 0 256 256">
      <path d="M224,112H32a8,8,0,0,0-8,8,104.35,104.35,0,0,0,56,92.28V216a16,16,0,0,0,16,16h64a16,16,0,0,0,16-16v-3.72A104.35,104.35,0,0,0,232,120,8,8,0,0,0,224,112Zm-59.34,88a8,8,0,0,0-4.66,7.27V216H96v-8.71A8,8,0,0,0,91.34,200a88.29,88.29,0,0,1-51-72H215.63A88.29,88.29,0,0,1,164.66,200ZM81.77,55c5.35-6.66,6.67-11.16,6.12-13.14-.42-1.49-2.41-2.26-2.43-2.26A8,8,0,0,1,88,24a8.11,8.11,0,0,1,2.38.36c1,.31,9.91,3.33,12.79,12.76,2.46,8.07-.55,17.45-8.94,27.89-5.35,6.66-6.67,11.16-6.12,13.14.42,1.49,2.37,2.24,2.39,2.25A8,8,0,0,1,88,96a8.11,8.11,0,0,1-2.38-.36c-1-.31-9.91-3.33-12.79-12.76C70.37,74.81,73.38,65.43,81.77,55Zm40,0c5.35-6.66,6.67-11.16,6.12-13.14-.42-1.49-2.41-2.26-2.43-2.26A8,8,0,0,1,128,24a8.11,8.11,0,0,1,2.38.36c1,.31,9.91,3.33,12.79,12.76,2.46,8.07-.55,17.45-8.94,27.89-5.35,6.66-6.67,11.16-6.12,13.14.42,1.49,2.37,2.24,2.39,2.25A8,8,0,0,1,128,96a8.11,8.11,0,0,1-2.38-.36c-1-.31-9.91-3.33-12.79-12.76C110.37,74.81,113.38,65.43,121.77,55Zm40,0c5.35-6.66,6.67-11.16,6.12-13.14-.42-1.49-2.41-2.26-2.43-2.26A8,8,0,0,1,168,24a8.11,8.11,0,0,1,2.38.36c1,.31,9.91,3.33,12.79,12.76,2.46,8.07-.55,17.45-8.94,27.89-5.35,6.66-6.67,11.16-6.12,13.14.42,1.49,2.37,2.24,2.39,2.25A8,8,0,0,1,168,96a8.11,8.11,0,0,1-2.38-.36c-1-.31-9.91-3.33-12.79-12.76C150.37,74.81,153.38,65.43,161.77,55Z"></path>    </symbol>
    <symbol id="avatar-hobbies-horror" viewBox="0 0 256 256">
      <path d="M255.15,97.72A16,16,0,0,0,242,86.94a136.46,136.46,0,0,1-51.65-18l10.31-10.3a25,25,0,0,0-35.32-35.32l-13.2,13.21c-2.33-2.8-3.81-4.84-4.41-5.69a16,16,0,0,0-24.41-2.15L84.68,67.36a16,16,0,0,0,2.14,24.4c.86.6,2.9,2.08,5.7,4.41L7.31,181.37a25,25,0,0,0,35.32,35.32l82.3-82.31a136.63,136.63,0,0,1,18,51.65,16,16,0,0,0,10.77,13.12,16.21,16.21,0,0,0,5.15.85,15.88,15.88,0,0,0,11.26-4.69l81.18-81.19A15.86,15.86,0,0,0,255.15,97.72ZM176.69,34.63a9,9,0,1,1,12.68,12.68L176.82,59.86A152.5,152.5,0,0,1,163.1,48.21ZM31.31,205.37a9,9,0,1,1-12.68-12.68l85.58-85.58a150.89,150.89,0,0,1,11.65,13.71ZM158.8,183.92C150,118.29,101.52,82.52,96,78.67L134.66,40c3.86,5.5,39.63,54,105.25,62.78Z"></path>    </symbol>
    <symbol id="avatar-hobbies-bd" viewBox="0 0 256 256">
      <path d="M232,48H160a40,40,0,0,0-32,16A40,40,0,0,0,96,48H24a8,8,0,0,0-8,8V200a8,8,0,0,0,8,8H96a24,24,0,0,1,24,24,8,8,0,0,0,16,0,24,24,0,0,1,24-24h72a8,8,0,0,0,8-8V56A8,8,0,0,0,232,48ZM96,192H32V64H96a24,24,0,0,1,24,24V200A39.81,39.81,0,0,0,96,192Zm128,0H160a39.81,39.81,0,0,0-24,8V88a24,24,0,0,1,24-24h64Z"></path>    </symbol>
    <symbol id="avatar-hobbies-peinture" viewBox="0 0 256 256">
      <path d="M48,64a8,8,0,0,1,8-8H72V40a8,8,0,0,1,16,0V56h16a8,8,0,0,1,0,16H88V88a8,8,0,0,1-16,0V72H56A8,8,0,0,1,48,64ZM184,192h-8v-8a8,8,0,0,0-16,0v8h-8a8,8,0,0,0,0,16h8v8a8,8,0,0,0,16,0v-8h8a8,8,0,0,0,0-16Zm56-48H224V128a8,8,0,0,0-16,0v16H192a8,8,0,0,0,0,16h16v16a8,8,0,0,0,16,0V160h16a8,8,0,0,0,0-16ZM219.31,80,80,219.31a16,16,0,0,1-22.62,0L36.68,198.63a16,16,0,0,1,0-22.63L176,36.69a16,16,0,0,1,22.63,0l20.68,20.68A16,16,0,0,1,219.31,80Zm-54.63,32L144,91.31l-96,96L68.68,208ZM208,68.69,187.31,48l-32,32L176,100.69Z"></path>    </symbol>
    <symbol id="avatar-hard-skills-analyse" viewBox="0 0 256 256">
      <path d="M249.94,120.24l-27.05-6.76a95.86,95.86,0,0,0-80.37-80.37l-6.76-27a8,8,0,0,0-15.52,0l-6.76,27.05a95.86,95.86,0,0,0-80.37,80.37l-27,6.76a8,8,0,0,0,0,15.52l27.05,6.76a95.86,95.86,0,0,0,80.37,80.37l6.76,27.05a8,8,0,0,0,15.52,0l6.76-27.05a95.86,95.86,0,0,0,80.37-80.37l27.05-6.76a8,8,0,0,0,0-15.52Zm-95.49,22.9L139.31,128l15.14-15.14L215,128Zm-52.9,0L41,128l60.57-15.14L116.69,128ZM205.77,109.2,158.6,97.4,146.8,50.23A79.88,79.88,0,0,1,205.77,109.2Zm-62.63-7.65L128,116.69l-15.14-15.14L128,41ZM109.2,50.23,97.4,97.4,50.23,109.2A79.88,79.88,0,0,1,109.2,50.23Zm-59,96.57L97.4,158.6l11.8,47.17A79.88,79.88,0,0,1,50.23,146.8Zm62.63,7.65L128,139.31l15.14,15.14L128,215Zm33.94,51.32,11.8-47.17,47.17-11.8A79.88,79.88,0,0,1,146.8,205.77Z"></path>    </symbol>
    <symbol id="avatar-hard-skills-equipe" viewBox="0 0 256 256">
      <path d="M244.8,150.4a8,8,0,0,1-11.2-1.6A51.6,51.6,0,0,0,192,128a8,8,0,0,1-7.37-4.89,8,8,0,0,1,0-6.22A8,8,0,0,1,192,112a24,24,0,1,0-23.24-30,8,8,0,1,1-15.5-4A40,40,0,1,1,219,117.51a67.94,67.94,0,0,1,27.43,21.68A8,8,0,0,1,244.8,150.4ZM190.92,212a8,8,0,1,1-13.84,8,57,57,0,0,0-98.16,0,8,8,0,1,1-13.84-8,72.06,72.06,0,0,1,33.74-29.92,48,48,0,1,1,58.36,0A72.06,72.06,0,0,1,190.92,212ZM128,176a32,32,0,1,0-32-32A32,32,0,0,0,128,176ZM72,120a8,8,0,0,0-8-8A24,24,0,1,1,87.24,82a8,8,0,1,0,15.5-4A40,40,0,1,0,37,117.51,67.94,67.94,0,0,0,9.6,139.19a8,8,0,1,0,12.8,9.61A51.6,51.6,0,0,1,64,128,8,8,0,0,0,72,120Z"></path>    </symbol>
    <symbol id="avatar-hard-skills-crise" viewBox="0 0 256 256">
      <path d="M143.38,17.85a8,8,0,0,0-12.63,3.41l-22,60.41L84.59,58.26a8,8,0,0,0-11.93.89C51,87.53,40,116.08,40,144a88,88,0,0,0,176,0C216,84.55,165.21,36,143.38,17.85ZM128,216a72.08,72.08,0,0,1-72-72c0-22,8.09-44.79,24.06-67.84l26.37,25.58a8,8,0,0,0,13.09-3l22.27-61.07C164.21,58.08,200,97.91,200,144A72.08,72.08,0,0,1,128,216Z"></path>    </symbol>
    <symbol id="avatar-treasure-chest" viewBox="0 0 256 256">
      <path d="M184,40H72A56.06,56.06,0,0,0,16,96v96a16,16,0,0,0,16,16H224a16,16,0,0,0,16-16V96A56.06,56.06,0,0,0,184,40Zm40,56v8H192V56.8A40.07,40.07,0,0,1,224,96Zm-88,40H120V104h16Zm-24,16h32a8,8,0,0,0,8-8V120h24v72H80V120h24v24A8,8,0,0,0,112,152Zm40-48V96a8,8,0,0,0-8-8H112a8,8,0,0,0-8,8v8H80V56h96v48ZM64,56.8V104H32V96A40.07,40.07,0,0,1,64,56.8ZM32,120H64v72H32Zm192,72H192V120h32v72Z"></path>    </symbol>
    <!-- Foundation Icons -->
    <symbol id="foundation-cursor" viewBox="0 0 256 256">
      <rect width="24.9084" height="50.7486" transform="matrix(0.867074 -0.49818 0.501822 0.864971 91.4431 121.636)" fill="#C4FFCB"/>
      <path d="M52.9613 31.8087L144.702 96.2418L63.1632 143.09L52.9613 31.8087Z" fill="#C4FFCB"/>
      <path fill-rule="evenodd" clip-rule="evenodd" d="M73.7381 2.70347C25.6531 13.1342 -6.07196 59.7211 0.979198 109.541C6.77173 150.473 39.6812 183.698 81.3805 190.713C132.677 199.34 181.646 163.679 190.685 111.113C195.812 81.2974 185.739 50.0504 164.147 28.8029C149.624 14.5125 135.225 6.56929 116.772 2.66856C99.8828 -0.899414 90.3144 -0.891198 73.7381 2.70347ZM112.158 9.9339C128.594 13.0418 143.772 20.8186 156.113 32.4571C191.608 65.9307 193.117 121.1 159.51 156.535C117.065 201.286 44.6395 189.945 17.1723 134.246C10.8648 121.457 10.0326 117.78 9.40227 99.9157C8.87492 84.9126 9.59384 77.1913 12.2841 69.0488C21.8896 39.9607 45.1977 18.1236 74.0698 11.1623C89.1135 7.53471 97.9609 7.2492 112.158 9.9339ZM52.4899 35.4088C50.6401 37.6334 51.1324 50.8639 54.6158 92.4101C57.1103 122.168 60.0499 147.671 61.1458 149.083C64.8083 153.795 69.9149 151.739 80.0559 141.472C85.5848 135.875 90.7964 131.717 91.6369 132.235C92.4773 132.755 98.4058 141.031 104.812 150.629C112.98 162.874 117.691 168.083 120.589 168.083C127.546 168.083 142.975 156.202 142.975 150.847C142.975 148.253 138.34 139.552 132.675 131.508C127.01 123.464 122.375 116.042 122.375 115.017C122.375 113.99 127.171 112.518 133.031 111.741C138.892 110.967 145.381 109.428 147.451 108.323C156.226 103.642 151.672 98.9359 106.075 65.5568C81.2507 47.3822 59.5802 32.5126 57.9199 32.5126C56.2596 32.5126 53.8165 33.8169 52.4899 35.4088ZM99.3719 70.764C120.521 86.1533 138.605 99.4577 139.561 100.329C140.515 101.2 134.63 103.1 126.481 104.552C118.332 106.004 111.21 108.372 110.656 109.814C110.1 111.256 115.514 120.894 122.684 131.228L135.722 150.021L129.562 154.933C126.176 157.636 122.82 159.85 122.105 159.856C121.391 159.863 114.902 151.112 107.686 140.41C100.47 129.708 93.2045 120.927 91.5401 120.896C89.8777 120.866 83.6196 125.66 77.6355 131.553C71.6535 137.446 66.757 141.199 66.757 139.893C66.757 135.604 60.7111 62.5188 59.5287 52.54C58.8942 47.1727 58.9478 42.783 59.6482 42.783C60.3486 42.783 78.2247 55.3747 99.3719 70.764Z" fill="black"/>
    </symbol>
    <symbol id="foundation-human" viewBox="0 0 256 256">
      <path fill-rule="evenodd" clip-rule="evenodd" d="M65.3952 4.35606C48.8066 10.1387 37.6976 17.5987 24.9948 31.4873C-2.65557 61.7169 -7.84142 105.257 11.8217 142.081C19.7864 156.995 38.361 174.581 54.0459 182.055C103.226 205.489 159.11 186.251 183.275 137.568L192 119.994L191.963 96.2549C191.934 76.315 191.172 70.6308 187.202 60.745C177.478 36.5153 155.845 14.9637 131.955 5.69714C113.822 -1.3343 83.4769 -1.94537 65.3952 4.35606ZM133.639 15.7163C166.457 31.3561 184.723 60.2672 184.787 96.6752C184.879 149.547 135.572 191.363 83.5057 182.564C36.8412 174.675 5.24337 135.193 8.74305 89.1435C11.4397 53.6807 34.011 24.2446 67.4942 12.5256C78.9544 8.51464 84.1711 7.88716 100.634 8.53309C117.352 9.19133 122.121 10.2289 133.639 15.7163ZM90.3366 27.7491C78.8312 32.2337 73.7686 44.7279 78.9976 55.7313C88.3136 75.3328 117.036 67.9794 117.036 45.991C117.036 35.2768 100.322 23.8571 90.3366 27.7491ZM104.713 38.6807C112.68 46.6349 107.529 59.1865 96.2968 59.1865C90.1826 59.1865 84.1752 52.8625 84.1752 46.4258C84.1752 41.5331 91.4067 34.5796 96.4981 34.5796C98.7572 34.5796 102.454 36.4251 104.713 38.6807ZM34.8839 65.3383C31.2076 72.1954 35.8471 77.0532 55.4671 86.8919C80.5523 99.4702 80.5626 99.5297 64.3149 135.759C55.0728 156.366 54.4525 162.532 61.3985 164.734C67.64 166.711 71.2095 163.983 80.9918 149.755C92.9717 132.335 95.6313 128.906 97.1758 128.906C97.8638 128.906 103.025 135.71 108.646 144.027C114.268 152.344 120.369 160.649 122.206 162.482C127.001 167.271 133.2 166.594 135.752 161C137.591 156.973 136.406 152.574 128.521 134.141C122.754 120.665 119.09 109.022 119.09 104.18C119.09 96.2754 119.125 96.2426 137.96 86.4387C158.361 75.8208 162.577 71.6787 158.919 65.8509C155.516 60.4312 150.02 60.5071 130.183 66.2508C106.2 73.192 86.8472 73.2371 63.5324 66.4066C42.4008 60.2159 37.7222 60.0416 34.8839 65.3383ZM64.0027 74.5597C88.2356 81.0416 103.226 81.0273 128.406 74.4941C139.427 71.6356 149.464 69.6506 150.71 70.0813C151.957 70.5139 144.198 75.2754 133.467 80.6623C122.735 86.0512 113.276 91.4975 112.446 92.7648C108.363 99.0068 111.131 113.609 120.183 133.592C125.303 144.895 129.172 155.1 128.78 156.273C128.39 157.444 122.214 150.152 115.06 140.068C107.905 129.981 101.084 121.102 99.8991 120.335C95.9743 117.792 90.848 122.513 78.9277 139.641C64.777 159.975 65.9436 158.549 64.5716 157.18C63.9555 156.567 67.6524 146.605 72.7869 135.044C82.6739 112.78 85.0091 97.2227 79.3159 91.5385C77.7735 89.9986 68.9935 85.1325 59.8048 80.7238C50.616 76.315 43.0991 71.9719 43.0991 71.0737C43.0991 68.8858 42.2776 68.7504 64.0027 74.5597Z" fill="black"/>
    </symbol>
    <symbol id="foundation-plant" viewBox="0 0 256 256">
      <ellipse cx="95.5" cy="60.5" rx="18.5" ry="25.5" fill="#C4FFCB"/>
      <ellipse cx="128.462" cy="101.333" rx="19.7528" ry="35.4596" transform="rotate(-150 128.462 101.333)" fill="#C4FFCB"/>
      <ellipse cx="63.9245" cy="91.8605" rx="19.7528" ry="35.4596" transform="rotate(-40 63.9245 91.8605)" fill="#C4FFCB"/>
      <circle cx="25.5" cy="103.5" r="3.5" fill="#C4FFCB"/>
      <circle cx="163.5" cy="118.5" r="3.5" fill="#C4FFCB"/>
      <circle cx="60" cy="133" r="2" fill="#C4FFCB"/>
      <circle cx="129.5" cy="156.5" r="3.5" fill="#C4FFCB"/>
      <path fill-rule="evenodd" clip-rule="evenodd" d="M66.5986 5.00424C39.1504 14.3531 19.8105 31.2375 7.66796 56.4544C2.07929 68.0591 0.930219 73.1551 0.171832 89.6596C-0.933367 113.712 3.23672 130.907 14.3096 147.957C34.2805 178.706 63.5024 193.516 100.971 191.878C117.607 191.151 122.076 190.083 135.664 183.585C172.217 166.101 192 135.432 192 96.2477C192 30.962 127.717 -15.8116 66.5986 5.00424ZM132.033 16.4441C173.462 35.8096 193.59 81.4961 179.325 123.791C166.104 162.992 132.234 185.584 89.8329 183.484C65.999 182.303 49.3793 174.603 32.4858 156.913C12.657 136.147 4.81826 111.784 8.64781 82.8191C12.0511 57.0867 29.8325 32.1306 53.892 19.3218C70.4888 10.4863 79.2029 8.63737 100.438 9.45122C115.313 10.023 120.973 11.2751 132.033 16.4441ZM85.5855 33.0968C78.0956 42.1723 71.8635 57.1138 73.6393 61.7361C75.7515 67.2348 78.0706 65.3129 81.7309 55.0333C83.6718 49.5805 86.6823 43.2428 88.4206 40.9474C91.2995 37.1515 91.5899 39.2237 91.6421 63.9022L91.7027 91.0307L87.7959 84.7702C78.9501 70.5925 55.9833 56.1435 41.6784 55.7553L34.2637 55.555L34.527 70.3233C34.9678 94.8537 46.0511 113.558 65.5164 122.61C71.3203 125.311 80.0344 127.518 84.9274 127.529L93.8066 127.55L93.8525 116.594C93.909 102.957 99.1717 91.0473 110.629 78.6329C118.806 69.7724 119.316 68.5287 118.039 60.5529C117.285 55.8409 115.179 49.0337 113.36 45.4236C109.275 37.3205 98.0644 25.2963 94.5942 25.2963C93.1798 25.2963 89.1246 28.8063 85.5855 33.0968ZM106.116 47.8714C113.69 62.815 113.562 67.3767 105.36 75.3191L97.985 82.4581V60.0145C97.985 36.1373 99.2281 34.2779 106.116 47.8714ZM138.919 65.9389C123.196 72.3955 113.186 80.486 105.35 93.0716C100.283 101.208 99.0067 105.799 98.4342 117.911C98.0498 126.081 96.7545 135.306 95.5553 138.412C93.652 143.343 92.5489 143.898 86.8035 142.804C77.6172 141.06 65.3117 134.609 63.8367 130.77C61.8269 125.54 54.103 126.719 54.1615 132.245C54.2012 135.897 56.8691 138.182 66.1745 142.533C72.7535 145.607 81.664 148.764 85.972 149.547C92.4402 150.722 93.8066 151.838 93.8066 155.953C93.8066 162.366 87.8126 162.543 71.9241 156.606C50.9295 148.76 27.4278 119.584 32.7344 107.955C35.5674 101.742 32.3479 96.2477 25.8755 96.2477C18.4609 96.2477 15.6216 102.886 20.3955 109.067C22.4847 111.771 25.2864 117.182 26.6214 121.091C34.4267 143.937 64.5303 166.047 90.0397 167.671L99.0296 168.242L100.074 154.841C101.067 142.107 101.43 141.348 107.387 139.576C139.604 130 152.946 117.101 158.79 89.8808C161.761 76.0495 159.653 60.7532 154.789 60.8221C152.848 60.8492 145.707 63.151 138.919 65.9389ZM62.7064 70.9076C75.2856 78.875 84.5639 90.5236 87.4491 101.97C88.7507 107.137 89.4589 111.719 89.0222 112.155C88.2743 112.902 51.7735 69.9101 50.2818 66.5253C48.9217 63.4389 53.4198 65.027 62.7064 70.9076ZM64.0978 93.7477C75.9103 108.299 84.614 120.523 83.4419 120.914C79.0838 122.366 65.8549 116.39 58.2668 109.543C53.9568 105.655 48.554 98.0215 46.258 92.5791C41.4799 81.2477 38.5028 66.9698 40.9597 67.1618C41.8727 67.2327 52.2854 79.1964 64.0978 93.7477ZM144.575 73.994C143.655 75.5278 134.442 87.8796 124.1 101.442C108.6 121.769 105.172 125.256 104.589 121.302C103.319 112.688 108.822 98.4785 117.039 89.1546C126.676 78.2198 149.606 65.5946 144.575 73.994ZM149.466 97.3745C147.738 102.439 143.869 109.799 140.87 113.727C135.426 120.855 113.988 133.798 111.592 131.402C110.896 130.707 119.537 118.053 130.794 103.28C149.401 78.8625 151.321 76.9573 151.935 82.2932C152.305 85.5215 151.193 92.3078 149.466 97.3745ZM27.8854 104.772C27.2126 105.859 25.7732 106.2 24.6847 105.528C23.5962 104.856 23.2556 103.418 23.9284 102.331C24.6011 101.243 26.0406 100.903 27.1291 101.575C28.2175 102.247 28.5581 103.685 27.8854 104.772ZM158.769 112.746C156.239 115.273 155.236 118.487 155.898 121.949C157.463 130.129 140.062 147.959 129.668 148.825C123.108 149.369 121.919 150.265 121.363 155.06C120.914 158.948 121.984 161.335 124.869 162.877C128.981 165.077 135.591 163.969 135.591 161.081C135.591 160.256 140.526 154.363 146.559 147.986C170.926 122.226 173.278 119.079 171.147 115.102C168.08 109.38 163.089 108.43 158.769 112.746ZM165.774 119.38C165.101 120.467 163.662 120.807 162.573 120.135C161.485 119.463 161.144 118.026 161.817 116.938C162.49 115.851 163.929 115.511 165.018 116.183C166.106 116.855 166.447 118.293 165.774 119.38ZM131.413 156.765C131.413 157.913 130.472 158.852 129.323 158.852C128.174 158.852 127.234 157.913 127.234 156.765C127.234 155.617 128.174 154.678 129.323 154.678C130.472 154.678 131.413 155.617 131.413 156.765Z" fill="black"/>
    </symbol>
    <symbol id="foundation-shield" viewBox="0 0 256 256">
      <path fill-rule="evenodd" clip-rule="evenodd" d="M119.799 2.68902C155.964 11.4851 185.074 43.4935 190.876 80.8407C200.676 143.935 144.898 200.67 82.6728 190.898C18.0879 180.759 -18.2706 113.067 9.3277 54.3478C28.2111 14.1678 75.6976 -8.03797 119.799 2.68902ZM74.5776 11.2016C57.5656 15.6222 44.1957 23.4261 32.5058 35.7594C-1.14136 71.2558 -0.260178 124.069 34.5502 158.282C69.1979 192.334 122.338 192.751 156.741 159.239C191.835 125.053 193.062 70.9128 159.547 35.5561C137.33 12.1157 105.814 3.08342 74.5776 11.2016ZM110.535 35.3958C116.763 38.8859 128.343 44.1364 136.27 47.0616L150.681 52.384V85.1668C150.681 117.67 150.628 118.046 144.575 128.952C137.563 141.583 124.123 154.19 110.088 161.303C97.245 167.813 93.6957 167.546 79.6258 159.019C63.6864 149.358 53.5118 138.767 47.0801 125.141C42.4272 115.287 41.6387 110.507 40.8996 87.7243C39.8125 54.1937 40.2593 52.5381 51.2924 49.2411C56.1286 47.7949 68.1747 42.5588 78.0631 37.6041C87.9495 32.6494 96.755 28.6971 97.6259 28.8224C98.4989 28.9477 104.307 31.9058 110.535 35.3958ZM54.9097 57.0573L48.3545 59.3374L49.1389 85.5633C49.7771 106.89 50.7509 113.601 54.3497 121.485C59.645 133.081 73.5502 147.082 86.6442 154.005L96.158 159.035L107.531 153.099C121.628 145.743 135.866 130.258 140.198 117.574C142.483 110.879 143.476 100.468 143.476 83.1599V58.3432L130.608 53.7213C123.53 51.1802 113.141 46.4618 107.521 43.2387L97.2986 37.3761L79.3828 46.0776C69.5273 50.8618 58.5147 55.8042 54.9097 57.0573ZM106.191 62.2749C111.834 65.3952 116.532 72.9053 116.639 78.9796C116.678 81.27 118.564 84.7272 120.829 86.6623C124.337 89.6593 124.946 92.7221 124.946 107.342C124.946 130.597 124.084 131.304 95.6989 131.304C68.502 131.304 68.3291 131.146 68.3291 106.194C68.3291 91.3705 68.9714 87.5189 71.6973 85.9967C73.5502 84.9614 75.6667 80.9229 76.3996 77.0199C78.9793 63.2979 94.3154 55.7056 106.191 62.2749ZM87.8878 71.7324C85.6231 73.992 83.7701 77.6896 83.7701 79.9492C83.7701 83.6015 85.1434 84.0576 96.123 84.0576C107.428 84.0576 108.476 83.6796 108.476 79.5979C108.476 68.8668 95.6659 63.9717 87.8878 71.7324ZM78.6231 124.114H115.682L116.884 92.2743H77.4208L78.6231 124.114ZM101.07 102.225C101.661 103.178 101.595 107.338 100.924 111.469C99.2256 121.902 93.0204 121.902 91.3219 111.469C90.6507 107.338 90.5848 103.178 91.1757 102.225C92.5654 99.9775 99.6806 99.9775 101.07 102.225Z" fill="black"/>
    </symbol>
    <!-- Fragment Icons -->
    <symbol id="fragment-01a-magnifying-glass" viewBox="0 0 256 256">
      <rect width="256" height="256" fill="none"/><circle cx="112" cy="112" r="80" fill="none" stroke="currentColor" stroke-linecap="round" stroke-linejoin="round" stroke-width="16"/><line x1="168.57" y1="168.57" x2="224" y2="224" fill="none" stroke="currentColor" stroke-linecap="round" stroke-linejoin="round" stroke-width="16"/>    </symbol>
    <symbol id="fragment-01b-binoculars" viewBox="0 0 256 256">
      <path d="M237.2,151.87v0a47.1,47.1,0,0,0-2.35-5.45L193.26,51.8a7.82,7.82,0,0,0-1.66-2.44,32,32,0,0,0-45.26,0A8,8,0,0,0,144,55V80H112V55a8,8,0,0,0-2.34-5.66,32,32,0,0,0-45.26,0,7.82,7.82,0,0,0-1.66,2.44L21.15,146.4a47.1,47.1,0,0,0-2.35,5.45v0A48,48,0,1,0,112,168V96h32v72a48,48,0,1,0,93.2-16.13ZM76.71,59.75a16,16,0,0,1,19.29-1v73.51a47.9,47.9,0,0,0-46.79-9.92ZM64,200a32,32,0,1,1,32-32A32,32,0,0,1,64,200ZM160,58.74a16,16,0,0,1,19.29,1l27.5,62.58A47.9,47.9,0,0,0,160,132.25ZM192,200a32,32,0,1,1,32-32A32,32,0,0,1,192,200Z"></path>    </symbol>
    <symbol id="fragment-01c-compass" viewBox="0 0 256 256">
      <path d="M128,24A104,104,0,1,0,232,128,104.11,104.11,0,0,0,128,24Zm0,192a88,88,0,1,1,88-88A88.1,88.1,0,0,1,128,216ZM172.42,72.84l-64,32a8.05,8.05,0,0,0-3.58,3.58l-32,64A8,8,0,0,0,80,184a8.1,8.1,0,0,0,3.58-.84l64-32a8.05,8.05,0,0,0,3.58-3.58l32-64a8,8,0,0,0-10.74-10.74ZM138,138,97.89,158.11,118,118l40.15-20.07Z"></path>    </symbol>
    <symbol id="fragment-06a-person-simple-run" viewBox="0 0 256 256">
      <path d="M152,88a32,32,0,1,0-32-32A32,32,0,0,0,152,88Zm0-48a16,16,0,1,1-16,16A16,16,0,0,1,152,40Zm67.31,100.68c-.61.28-7.49,3.28-19.67,3.28-13.85,0-34.55-3.88-60.69-20a169.31,169.31,0,0,1-15.41,32.34,104.29,104.29,0,0,1,31.31,15.81C173.92,186.65,184,207.35,184,232a8,8,0,0,1-16,0c0-41.7-34.69-56.71-54.14-61.85-.55.7-1.12,1.41-1.69,2.1-19.64,23.8-44.25,36.18-71.63,36.18A92.29,92.29,0,0,1,31.2,208,8,8,0,0,1,32.8,192c25.92,2.58,48.47-7.49,67-30,12.49-15.14,21-33.61,25.25-47C86.13,92.35,61.27,111.63,61,111.84A8,8,0,1,1,51,99.36c1.5-1.2,37.22-29,89.51,6.57,45.47,30.91,71.93,20.31,72.18,20.19a8,8,0,1,1,6.63,14.56Z"></path>    </symbol>
    <symbol id="fragment-06b-signpost" viewBox="0 0 256 256">
      <path d="M246,106.65,212.33,69.3A16,16,0,0,0,200.44,64H136V32a8,8,0,0,0-16,0V64H40A16,16,0,0,0,24,80v64a16,16,0,0,0,16,16h80v64a8,8,0,0,0,16,0V160h64.44a16,16,0,0,0,11.89-5.3L246,117.35A8,8,0,0,0,246,106.65ZM200.44,144H40V80H200.44l28.8,32Z"></path>    </symbol>
    <symbol id="fragment-06c-person-simple-walk" viewBox="0 0 256 256">
      <path d="M152,80a32,32,0,1,0-32-32A32,32,0,0,0,152,80Zm0-48a16,16,0,1,1-16,16A16,16,0,0,1,152,32Zm64,112a8,8,0,0,1-8,8c-35.31,0-52.95-17.81-67.12-32.12-2.74-2.77-5.36-5.4-8-7.84l-13.43,30.88,37.2,26.57A8,8,0,0,1,160,176v56a8,8,0,0,1-16,0V180.12l-31.07-22.2L79.34,235.19A8,8,0,0,1,72,240a7.84,7.84,0,0,1-3.19-.67,8,8,0,0,1-4.15-10.52l54.08-124.37c-9.31-1.65-20.92,1.2-34.7,8.58a163.88,163.88,0,0,0-30.57,21.77,8,8,0,0,1-10.95-11.66c2.5-2.35,61.69-57.23,98.72-25.08,3.83,3.32,7.48,7,11,10.57C166.19,122.7,179.36,136,208,136A8,8,0,0,1,216,144Z"></path>    </symbol>
    <symbol id="fragment-404-04a-eye-slash" viewBox="0 0 256 256">
      <path d="M53.92,34.62A8,8,0,1,0,42.08,45.38L61.32,66.55C25,88.84,9.38,123.2,8.69,124.76a8,8,0,0,0,0,6.5c.35.79,8.82,19.57,27.65,38.4C61.43,194.74,93.12,208,128,208a127.11,127.11,0,0,0,52.07-10.83l22,24.21a8,8,0,1,0,11.84-10.76Zm47.33,75.84,41.67,45.85a32,32,0,0,1-41.67-45.85ZM128,192c-30.78,0-57.67-11.19-79.93-33.25A133.16,133.16,0,0,1,25,128c4.69-8.79,19.66-33.39,47.35-49.38l18,19.75a48,48,0,0,0,63.66,70l14.73,16.2A112,112,0,0,1,128,192Zm6-95.43a8,8,0,0,1,3-15.72,48.16,48.16,0,0,1,38.77,42.64,8,8,0,0,1-7.22,8.71,6.39,6.39,0,0,1-.75,0,8,8,0,0,1-8-7.26A32.09,32.09,0,0,0,134,96.57Zm113.28,34.69c-.42.94-10.55,23.37-33.36,43.8a8,8,0,1,1-10.67-11.92A132.77,132.77,0,0,0,231.05,128a133.15,133.15,0,0,0-23.12-30.77C185.67,75.19,158.78,64,128,64a118.37,118.37,0,0,0-19.36,1.57A8,8,0,1,1,106,49.79,134,134,0,0,1,128,48c34.88,0,66.57,13.26,91.66,38.35,18.83,18.83,27.3,37.62,27.65,38.41A8,8,0,0,1,247.31,131.26Z"></path>    </symbol>
    <symbol id="fragment-404-04b-x-circle" viewBox="0 0 256 256">
      <path d="M165.66,101.66,139.31,128l26.35,26.34a8,8,0,0,1-11.32,11.32L128,139.31l-26.34,26.35a8,8,0,0,1-11.32-11.32L116.69,128,90.34,101.66a8,8,0,0,1,11.32-11.32L128,116.69l26.34-26.35a8,8,0,0,1,11.32,11.32ZM232,128A104,104,0,1,1,128,24,104.11,104.11,0,0,1,232,128Zm-16,0a88,88,0,1,0-88,88A88.1,88.1,0,0,0,216,128Z"></path>    </symbol>
    <symbol id="fragment-404-04c-prohibit" viewBox="0 0 256 256">
      <path d="M128,24A104,104,0,1,0,232,128,104.11,104.11,0,0,0,128,24Zm88,104a87.56,87.56,0,0,1-20.41,56.28L71.72,60.4A88,88,0,0,1,216,128ZM40,128A87.56,87.56,0,0,1,60.41,71.72L184.28,195.6A88,88,0,0,1,40,128Z"></path>    </symbol>
    <symbol id="fragment-500-04a-bug" viewBox="0 0 256 256">
      <path d="M144,92a12,12,0,1,1,12,12A12,12,0,0,1,144,92ZM100,80a12,12,0,1,0,12,12A12,12,0,0,0,100,80Zm116,64A87.76,87.76,0,0,1,213,167l22.24,9.72A8,8,0,0,1,232,192a7.89,7.89,0,0,1-3.2-.67L207.38,182a88,88,0,0,1-158.76,0L27.2,191.33A7.89,7.89,0,0,1,24,192a8,8,0,0,1-3.2-15.33L43,167A87.76,87.76,0,0,1,40,144v-8H16a8,8,0,0,1,0-16H40v-8a87.76,87.76,0,0,1,3-23L20.8,79.33a8,8,0,1,1,6.4-14.66L48.62,74a88,88,0,0,1,158.76,0l21.42-9.36a8,8,0,0,1,6.4,14.66L213,89.05a87.76,87.76,0,0,1,3,23v8h24a8,8,0,0,1,0,16H216ZM56,120H200v-8a72,72,0,0,0-144,0Zm64,95.54V136H56v8A72.08,72.08,0,0,0,120,215.54ZM200,144v-8H136v79.54A72.08,72.08,0,0,0,200,144Z"></path>    </symbol>
    <symbol id="fragment-500-04b-plug" viewBox="0 0 256 256">
      <path d="M237.66,66.34a8,8,0,0,0-11.32,0L192,100.69,155.31,64l34.35-34.34a8,8,0,1,0-11.32-11.32L144,52.69,117.66,26.34a8,8,0,0,0-11.32,11.32L112.69,44l-53,53a40,40,0,0,0,0,56.57l15.71,15.71L26.34,218.34a8,8,0,0,0,11.32,11.32l49.09-49.09,15.71,15.71a40,40,0,0,0,56.57,0l53-53,6.34,6.35a8,8,0,0,0,11.32-11.32L203.31,112l34.35-34.34A8,8,0,0,0,237.66,66.34ZM147.72,185a24,24,0,0,1-33.95,0L71,142.23a24,24,0,0,1,0-33.95l53-53L200.69,132Z"></path>    </symbol>
    <symbol id="fragment-500-04c-network-x" viewBox="0 0 256 256">
      <path d="M232,112H136V88h8a16,16,0,0,0,16-16V40a16,16,0,0,0-16-16H112A16,16,0,0,0,96,40V72a16,16,0,0,0,16,16h8v24H24a8,8,0,0,0,0,16H56v32H48a16,16,0,0,0-16,16v32a16,16,0,0,0,16,16H80a16,16,0,0,0,16-16V176a16,16,0,0,0-16-16H72V128H184v16a8,8,0,0,0,16,0V128h32a8,8,0,0,0,0-16ZM112,40h32V72H112ZM80,208H48V176H80Zm141.65-34.34L203.31,192l18.35,18.34a8,8,0,0,1-11.32,11.32L192,203.31l-18.34,18.35a8,8,0,0,1-11.32-11.32L180.69,192l-18.35-18.34a8,8,0,0,1,11.32-11.32L192,180.69l18.34-18.35a8,8,0,0,1,11.32,11.32Z"></path>    </symbol>
    <symbol id="fragment-maintenance-04a-barricade" viewBox="0 0 256 256">
      <path d="M224,64H32A16,16,0,0,0,16,80v72a16,16,0,0,0,16,16H56v32a8,8,0,0,0,16,0V168H184v32a8,8,0,0,0,16,0V168h24a16,16,0,0,0,16-16V80A16,16,0,0,0,224,64Zm0,64.69L175.31,80H224ZM80.69,80l72,72H103.31L32,80.69V80ZM32,103.31,80.69,152H32ZM224,152H175.31l-72-72h49.38L224,151.32V152Z"></path>    </symbol>
    <symbol id="fragment-maintenance-04b-traffic-cone" viewBox="0 0 256 256">
      <path d="M232,208H213.69L153.42,34.75A16,16,0,0,0,138.31,24H117.69a16,16,0,0,0-15.11,10.74L42.31,208H24a8,8,0,0,0,0,16H232a8,8,0,0,0,0-16ZM95.43,104h65.14l16.7,48H78.73Zm22.26-64h20.62L155,88H101ZM73.17,168H182.83l13.92,40H59.25Z"></path>    </symbol>
    <symbol id="fragment-maintenance-04c-warning" viewBox="0 0 256 256">
      <path d="M236.8,188.09,149.35,36.22h0a24.76,24.76,0,0,0-42.7,0L19.2,188.09a23.51,23.51,0,0,0,0,23.72A24.35,24.35,0,0,0,40.55,224h174.9a24.35,24.35,0,0,0,21.33-12.19A23.51,23.51,0,0,0,236.8,188.09ZM222.93,203.8a8.5,8.5,0,0,1-7.48,4.2H40.55a8.5,8.5,0,0,1-7.48-4.2,7.59,7.59,0,0,1,0-7.72L120.52,44.21a8.75,8.75,0,0,1,15,0l87.45,151.87A7.59,7.59,0,0,1,222.93,203.8ZM120,144V104a8,8,0,0,1,16,0v40a8,8,0,0,1-16,0Zm20,36a12,12,0,1,1-12-12A12,12,0,0,1,140,180Z"></path>    </symbol>
  </defs>
</svg>
