<svg xmlns="http://www.w3.org/2000/svg" style="display: none;">
  <defs>
    <symbol id="backward-fast-solid-full" viewBox="0 0 640 640">
      <!--!Font Awesome Free 7.0.1 by @fontawesome - https://fontawesome.com License - https://fontawesome.com/license/free Copyright 2025 Fonticons, Inc.--><path stroke="none" d="M556.2 541.6C544.2 546.6 530.5 543.8 521.3 534.7L352 365.3L352 512C352 524.9 344.2 536.6 332.2 541.6C320.2 546.6 306.5 543.8 297.3 534.7L128 365.3L128 512C128 529.7 113.7 544 96 544C78.3 544 64 529.7 64 512L64 128C64 110.3 78.3 96 96 96C113.7 96 128 110.3 128 128L128 274.7L297.4 105.4C306.6 96.2 320.3 93.5 332.3 98.5C344.3 103.5 352 115.1 352 128L352 274.7L521.4 105.3C530.6 96.1 544.3 93.4 556.3 98.4C568.3 103.4 576 115.1 576 128L576 512C576 524.9 568.2 536.6 556.2 541.6z"/>    </symbol>
    <symbol id="caret-left-solid-full" viewBox="0 0 640 640">
      <!--!Font Awesome Free 7.0.1 by @fontawesome - https://fontawesome.com License - https://fontawesome.com/license/free Copyright 2025 Fonticons, Inc.--><path stroke="none" d="M416 160C416 147.1 408.2 135.4 396.2 130.4C384.2 125.4 370.5 128.2 361.3 137.3L201.3 297.3C188.8 309.8 188.8 330.1 201.3 342.6L361.3 502.6C370.5 511.8 384.2 514.5 396.2 509.5C408.2 504.5 416 492.9 416 480L416 160z"/>    </symbol>
    <symbol id="caret-right-solid-full" viewBox="0 0 640 640">
      <!--!Font Awesome Free 7.0.1 by @fontawesome - https://fontawesome.com License - https://fontawesome.com/license/free Copyright 2025 Fonticons, Inc.--><path stroke="none" d="M224.5 160C224.5 147.1 232.3 135.4 244.3 130.4C256.3 125.4 270 128.2 279.1 137.4L439.1 297.4C451.6 309.9 451.6 330.2 439.1 342.7L279.1 502.7C269.9 511.9 256.2 514.6 244.2 509.6C232.2 504.6 224.5 492.9 224.5 480L224.5 160z"/>    </symbol>
    <symbol id="check-circle-fill" viewBox="0 0 256 256">
      <path stroke="none" d="M128,24A104,104,0,1,0,232,128,104.11,104.11,0,0,0,128,24Zm45.66,85.66-56,56a8,8,0,0,1-11.32,0l-24-24a8,8,0,0,1,11.32-11.32L112,148.69l50.34-50.35a8,8,0,0,1,11.32,11.32Z"></path>    </symbol>
    <symbol id="check-circle" viewBox="0 0 256 256">
      <path stroke="none" d="M173.66,98.34a8,8,0,0,1,0,11.32l-56,56a8,8,0,0,1-11.32,0l-24-24a8,8,0,0,1,11.32-11.32L112,148.69l50.34-50.35A8,8,0,0,1,173.66,98.34ZM232,128A104,104,0,1,1,128,24,104.11,104.11,0,0,1,232,128Zm-16,0a88,88,0,1,0-88,88A88.1,88.1,0,0,0,216,128Z"></path>    </symbol>
    <symbol id="dots-three" viewBox="0 0 256 256">
      <path stroke="none" d="M140,128a12,12,0,1,1-12-12A12,12,0,0,1,140,128Zm56-12a12,12,0,1,0,12,12A12,12,0,0,0,196,116ZM60,116a12,12,0,1,0,12,12A12,12,0,0,0,60,116Z"></path>    </symbol>
    <symbol id="facebook" viewBox="0 0 640 640">
      <!--!Font Awesome Free 7.0.1 by @fontawesome - https://fontawesome.com License - https://fontawesome.com/license/free Copyright 2025 Fonticons, Inc.--><path stroke="none" d="M576 320C576 178.6 461.4 64 320 64C178.6 64 64 178.6 64 320C64 440 146.7 540.8 258.2 568.5L258.2 398.2L205.4 398.2L205.4 320L258.2 320L258.2 286.3C258.2 199.2 297.6 158.8 383.2 158.8C399.4 158.8 427.4 162 438.9 165.2L438.9 236C432.9 235.4 422.4 235 409.3 235C367.3 235 351.1 250.9 351.1 292.2L351.1 320L434.7 320L420.3 398.2L351 398.2L351 574.1C477.8 558.8 576 450.9 576 320z"/>    </symbol>
    <symbol id="file-arrow-up" viewBox="0 0 256 256">
      <path stroke="none" d="M213.66,82.34l-56-56A8,8,0,0,0,152,24H56A16,16,0,0,0,40,40V216a16,16,0,0,0,16,16H200a16,16,0,0,0,16-16V88A8,8,0,0,0,213.66,82.34Zm-56,67.32a8,8,0,0,1-11.32,0L136,139.31V184a8,8,0,0,1-16,0V139.31l-10.34,10.35a8,8,0,0,1-11.32-11.32l24-24a8,8,0,0,1,11.32,0l24,24A8,8,0,0,1,157.66,149.66ZM152,88V44l44,44Z"></path>    </symbol>
    <symbol id="flag" viewBox="0 0 256 256">
      <path stroke="none" d="M42.76,50A8,8,0,0,0,40,56V224a8,8,0,0,0,16,0V179.77c26.79-21.16,49.87-9.75,76.45,3.41,16.4,8.11,34.06,16.85,53,16.85,13.93,0,28.54-4.75,43.82-18a8,8,0,0,0,2.76-6V56A8,8,0,0,0,218.76,50c-28,24.23-51.72,12.49-79.21-1.12C111.07,34.76,78.78,18.79,42.76,50ZM216,172.25c-26.79,21.16-49.87,9.74-76.45-3.41-25-12.35-52.81-26.13-83.55-8.4V59.79c26.79-21.16,49.87-9.75,76.45,3.4,25,12.35,52.82,26.13,83.55,8.4Z"></path>    </symbol>
    <symbol id="forward-fast-solid-full" viewBox="0 0 640 640">
      <!--!Font Awesome Free 7.0.1 by @fontawesome - https://fontawesome.com License - https://fontawesome.com/license/free Copyright 2025 Fonticons, Inc.--><path stroke="none" d="M83.8 541.6C95.8 546.6 109.5 543.8 118.7 534.7L288 365.3L288 512C288 524.9 295.8 536.6 307.8 541.6C319.8 546.6 333.5 543.8 342.7 534.7L512 365.3L512 512C512 529.7 526.3 544 544 544C561.7 544 576 529.7 576 512L576 128C576 110.3 561.7 96 544 96C526.3 96 512 110.3 512 128L512 274.7L342.6 105.3C333.4 96.1 319.7 93.4 307.7 98.4C295.7 103.4 288 115.1 288 128L288 274.7L118.6 105.4C109.4 96.2 95.7 93.5 83.7 98.5C71.7 103.5 64 115.1 64 128L64 512C64 524.9 71.8 536.6 83.8 541.6z"/>    </symbol>
    <symbol id="hamburger" viewBox="0 0 256 256">
      <path stroke="none" d="M48.07,104H207.93a16,16,0,0,0,15.72-19.38C216.22,49.5,176,24,128,24S39.78,49.5,32.35,84.62A16,16,0,0,0,48.07,104ZM128,40c39.82,0,74.21,20.61,79.93,48H48.07L48,87.93C53.79,60.61,88.18,40,128,40ZM229.26,152.48l-41.13,15L151,152.57a8,8,0,0,0-5.94,0l-37,14.81L71,152.57a8,8,0,0,0-5.7-.09l-44,16a8,8,0,0,0,5.47,15L40,178.69V184a40,40,0,0,0,40,40h96a40,40,0,0,0,40-40v-9.67l18.73-6.81a8,8,0,1,0-5.47-15ZM200,184a24,24,0,0,1-24,24H80a24,24,0,0,1-24-24V172.88l11.87-4.32L105,183.43a8,8,0,0,0,5.94,0l37-14.81,37,14.81a8,8,0,0,0,5.7.09l9.27-3.37ZM16,128a8,8,0,0,1,8-8H232a8,8,0,0,1,0,16H24A8,8,0,0,1,16,128Z"></path>    </symbol>
    <symbol id="info-fill" viewBox="0 0 256 256">
      <path stroke="none" d="M128,24A104,104,0,1,0,232,128,104.11,104.11,0,0,0,128,24Zm-4,48a12,12,0,1,1-12,12A12,12,0,0,1,124,72Zm12,112a16,16,0,0,1-16-16V128a8,8,0,0,1,0-16,16,16,0,0,1,16,16v40a8,8,0,0,1,0,16Z"></path>    </symbol>
    <symbol id="info" viewBox="0 0 256 256">
      <path stroke="none" d="M128,24A104,104,0,1,0,232,128,104.11,104.11,0,0,0,128,24Zm0,192a88,88,0,1,1,88-88A88.1,88.1,0,0,1,128,216Zm16-40a8,8,0,0,1-8,8,16,16,0,0,1-16-16V128a8,8,0,0,1,0-16,16,16,0,0,1,16,16v40A8,8,0,0,1,144,176ZM112,84a12,12,0,1,1,12,12A12,12,0,0,1,112,84Z"></path>    </symbol>
    <symbol id="instagram" viewBox="0 0 640 640">
      <!--!Font Awesome Free 7.0.1 by @fontawesome - https://fontawesome.com License - https://fontawesome.com/license/free Copyright 2025 Fonticons, Inc.--><path stroke="none" d="M320.3 205C256.8 204.8 205.2 256.2 205 319.7C204.8 383.2 256.2 434.8 319.7 435C383.2 435.2 434.8 383.8 435 320.3C435.2 256.8 383.8 205.2 320.3 205zM319.7 245.4C360.9 245.2 394.4 278.5 394.6 319.7C394.8 360.9 361.5 394.4 320.3 394.6C279.1 394.8 245.6 361.5 245.4 320.3C245.2 279.1 278.5 245.6 319.7 245.4zM413.1 200.3C413.1 185.5 425.1 173.5 439.9 173.5C454.7 173.5 466.7 185.5 466.7 200.3C466.7 215.1 454.7 227.1 439.9 227.1C425.1 227.1 413.1 215.1 413.1 200.3zM542.8 227.5C541.1 191.6 532.9 159.8 506.6 133.6C480.4 107.4 448.6 99.2 412.7 97.4C375.7 95.3 264.8 95.3 227.8 97.4C192 99.1 160.2 107.3 133.9 133.5C107.6 159.7 99.5 191.5 97.7 227.4C95.6 264.4 95.6 375.3 97.7 412.3C99.4 448.2 107.6 480 133.9 506.2C160.2 532.4 191.9 540.6 227.8 542.4C264.8 544.5 375.7 544.5 412.7 542.4C448.6 540.7 480.4 532.5 506.6 506.2C532.8 480 541 448.2 542.8 412.3C544.9 375.3 544.9 264.5 542.8 227.5zM495 452C487.2 471.6 472.1 486.7 452.4 494.6C422.9 506.3 352.9 503.6 320.3 503.6C287.7 503.6 217.6 506.2 188.2 494.6C168.6 486.8 153.5 471.7 145.6 452C133.9 422.5 136.6 352.5 136.6 319.9C136.6 287.3 134 217.2 145.6 187.8C153.4 168.2 168.5 153.1 188.2 145.2C217.7 133.5 287.7 136.2 320.3 136.2C352.9 136.2 423 133.6 452.4 145.2C472 153 487.1 168.1 495 187.8C506.7 217.3 504 287.3 504 319.9C504 352.5 506.7 422.6 495 452z"/>    </symbol>
    <symbol id="linkedin" viewBox="0 0 640 640">
      <!--!Font Awesome Free 7.0.1 by @fontawesome - https://fontawesome.com License - https://fontawesome.com/license/free Copyright 2025 Fonticons, Inc.--><path stroke="none" d="M512 96L127.9 96C110.3 96 96 110.5 96 128.3L96 511.7C96 529.5 110.3 544 127.9 544L512 544C529.6 544 544 529.5 544 511.7L544 128.3C544 110.5 529.6 96 512 96zM231.4 480L165 480L165 266.2L231.5 266.2L231.5 480L231.4 480zM198.2 160C219.5 160 236.7 177.2 236.7 198.5C236.7 219.8 219.5 237 198.2 237C176.9 237 159.7 219.8 159.7 198.5C159.7 177.2 176.9 160 198.2 160zM480.3 480L413.9 480L413.9 376C413.9 351.2 413.4 319.3 379.4 319.3C344.8 319.3 339.5 346.3 339.5 374.2L339.5 480L273.1 480L273.1 266.2L336.8 266.2L336.8 295.4L337.7 295.4C346.6 278.6 368.3 260.9 400.6 260.9C467.8 260.9 480.3 305.2 480.3 362.8L480.3 480z"/>    </symbol>
    <symbol id="list" viewBox="0 0 256 256">
      <path stroke="none" d="M224,128a8,8,0,0,1-8,8H40a8,8,0,0,1,0-16H216A8,8,0,0,1,224,128ZM40,72H216a8,8,0,0,0,0-16H40a8,8,0,0,0,0,16ZM216,184H40a8,8,0,0,0,0,16H216a8,8,0,0,0,0-16Z"></path>    </symbol>
    <symbol id="sliders-horizontal" viewBox="0 0 256 256">
      <path stroke="none" d="M40,88H73a32,32,0,0,0,62,0h81a8,8,0,0,0,0-16H135a32,32,0,0,0-62,0H40a8,8,0,0,0,0,16Zm64-24A16,16,0,1,1,88,80,16,16,0,0,1,104,64ZM216,168H199a32,32,0,0,0-62,0H40a8,8,0,0,0,0,16h97a32,32,0,0,0,62,0h17a8,8,0,0,0,0-16Zm-48,24a16,16,0,1,1,16-16A16,16,0,0,1,168,192Z"></path>    </symbol>
    <symbol id="smiley-fill" viewBox="0 0 256 256">
      <path stroke="none" d="M128,24A104,104,0,1,0,232,128,104.11,104.11,0,0,0,128,24ZM92,96a12,12,0,1,1-12,12A12,12,0,0,1,92,96Zm82.92,60c-10.29,17.79-27.39,28-46.92,28s-36.63-10.2-46.92-28a8,8,0,1,1,13.84-8c7.47,12.91,19.21,20,33.08,20s25.61-7.1,33.08-20a8,8,0,1,1,13.84,8ZM164,120a12,12,0,1,1,12-12A12,12,0,0,1,164,120Z"></path>    </symbol>
    <symbol id="smiley" viewBox="0 0 256 256">
      <path stroke="none" d="M128,24A104,104,0,1,0,232,128,104.11,104.11,0,0,0,128,24Zm0,192a88,88,0,1,1,88-88A88.1,88.1,0,0,1,128,216ZM80,108a12,12,0,1,1,12,12A12,12,0,0,1,80,108Zm96,0a12,12,0,1,1-12-12A12,12,0,0,1,176,108Zm-1.07,48c-10.29,17.79-27.4,28-46.93,28s-36.63-10.2-46.92-28a8,8,0,1,1,13.84-8c7.47,12.91,19.21,20,33.08,20s25.61-7.1,33.07-20a8,8,0,0,1,13.86,8Z"></path>    </symbol>
    <symbol id="sort-down-solid-full" viewBox="0 0 640 640">
      <!--!Font Awesome Free 7.0.1 by @fontawesome - https://fontawesome.com License - https://fontawesome.com/license/free Copyright 2025 Fonticons, Inc.--><path stroke="none" d="M160 352C147.1 352 135.4 359.8 130.4 371.8C125.4 383.8 128.2 397.5 137.4 406.6L297.4 566.6C309.9 579.1 330.2 579.1 342.7 566.6L502.7 406.6C511.9 397.4 514.6 383.7 509.6 371.7C504.6 359.7 492.9 352 480 352L160 352z"/>    </symbol>
    <symbol id="star" viewBox="0 0 256 256">
      <path stroke="none" d="M239.18,97.26A16.38,16.38,0,0,0,224.92,86l-59-4.76L143.14,26.15a16.36,16.36,0,0,0-30.27,0L90.11,81.23,31.08,86a16.46,16.46,0,0,0-9.37,28.86l45,38.83L53,211.75a16.38,16.38,0,0,0,24.5,17.82L128,198.49l50.53,31.08A16.4,16.4,0,0,0,203,211.75l-13.76-58.07,45-38.83A16.43,16.43,0,0,0,239.18,97.26Zm-15.34,5.47-48.7,42a8,8,0,0,0-2.56,7.91l14.88,62.8a.37.37,0,0,1-.17.48c-.18.14-.23.11-.38,0l-54.72-33.65a8,8,0,0,0-8.38,0L69.09,215.94c-.15.09-.19.12-.38,0a.37.37,0,0,1-.17-.48l14.88-62.8a8,8,0,0,0-2.56-7.91l-48.7-42c-.12-.1-.23-.19-.13-.5s.18-.27.33-.29l63.92-5.16A8,8,0,0,0,103,91.86l24.62-59.61c.08-.17.11-.25.35-.25s.27.08.35.25L153,91.86a8,8,0,0,0,6.75,4.92l63.92,5.16c.15,0,.24,0,.33.29S224,102.63,223.84,102.73Z"></path>    </symbol>
    <symbol id="twitter" viewBox="0 0 640 640">
      <!--!Font Awesome Free 7.0.1 by @fontawesome - https://fontawesome.com License - https://fontawesome.com/license/free Copyright 2025 Fonticons, Inc.--><path stroke="none" d="M523.4 215.7C523.7 220.2 523.7 224.8 523.7 229.3C523.7 368 418.1 527.9 225.1 527.9C165.6 527.9 110.4 510.7 64 480.8C72.4 481.8 80.6 482.1 89.3 482.1C138.4 482.1 183.5 465.5 219.6 437.3C173.5 436.3 134.8 406.1 121.5 364.5C128 365.5 134.5 366.1 141.3 366.1C150.7 366.1 160.1 364.8 168.9 362.5C120.8 352.8 84.8 310.5 84.8 259.5L84.8 258.2C98.8 266 115 270.9 132.2 271.5C103.9 252.7 85.4 220.5 85.4 184.1C85.4 164.6 90.6 146.7 99.7 131.1C151.4 194.8 229 236.4 316.1 240.9C314.5 233.1 313.5 225 313.5 216.9C313.5 159.1 360.3 112 418.4 112C448.6 112 475.9 124.7 495.1 145.1C518.8 140.6 541.6 131.8 561.7 119.8C553.9 144.2 537.3 164.6 515.6 177.6C536.7 175.3 557.2 169.5 576 161.4C561.7 182.2 543.8 200.7 523.4 215.7z"/>    </symbol>
    <symbol id="warning-circle-fill" viewBox="0 0 256 256">
      <path stroke="none" d="M128,24A104,104,0,1,0,232,128,104.11,104.11,0,0,0,128,24Zm-8,56a8,8,0,0,1,16,0v56a8,8,0,0,1-16,0Zm8,104a12,12,0,1,1,12-12A12,12,0,0,1,128,184Z"></path>    </symbol>
    <symbol id="warning-circle" viewBox="0 0 256 256">
      <path stroke="none" d="M128,24A104,104,0,1,0,232,128,104.11,104.11,0,0,0,128,24Zm0,192a88,88,0,1,1,88-88A88.1,88.1,0,0,1,128,216Zm-8-80V80a8,8,0,0,1,16,0v56a8,8,0,0,1-16,0Zm20,36a12,12,0,1,1-12-12A12,12,0,0,1,140,172Z"></path>    </symbol>
    <symbol id="warning-fill" viewBox="0 0 256 256">
      <path stroke="none" d="M236.8,188.09,149.35,36.22h0a24.76,24.76,0,0,0-42.7,0L19.2,188.09a23.51,23.51,0,0,0,0,23.72A24.35,24.35,0,0,0,40.55,224h174.9a24.35,24.35,0,0,0,21.33-12.19A23.51,23.51,0,0,0,236.8,188.09ZM120,104a8,8,0,0,1,16,0v40a8,8,0,0,1-16,0Zm8,88a12,12,0,1,1,12-12A12,12,0,0,1,128,192Z"></path>    </symbol>
    <symbol id="warning" viewBox="0 0 256 256">
      <path stroke="none" d="M236.8,188.09,149.35,36.22h0a24.76,24.76,0,0,0-42.7,0L19.2,188.09a23.51,23.51,0,0,0,0,23.72A24.35,24.35,0,0,0,40.55,224h174.9a24.35,24.35,0,0,0,21.33-12.19A23.51,23.51,0,0,0,236.8,188.09ZM222.93,203.8a8.5,8.5,0,0,1-7.48,4.2H40.55a8.5,8.5,0,0,1-7.48-4.2,7.59,7.59,0,0,1,0-7.72L120.52,44.21a8.75,8.75,0,0,1,15,0l87.45,151.87A7.59,7.59,0,0,1,222.93,203.8ZM120,144V104a8,8,0,0,1,16,0v40a8,8,0,0,1-16,0Zm20,36a12,12,0,1,1-12-12A12,12,0,0,1,140,180Z"></path>    </symbol>
    <symbol id="x" viewBox="0 0 256 256">
      <path stroke="none" d="M205.66,194.34a8,8,0,0,1-11.32,11.32L128,139.31,61.66,205.66a8,8,0,0,1-11.32-11.32L116.69,128,50.34,61.66A8,8,0,0,1,61.66,50.34L128,116.69l66.34-66.35a8,8,0,0,1,11.32,11.32L139.31,128Z"></path>    </symbol>
  </defs>
</svg>
