<svg width="1024" height="768" viewBox="0 0 1024 768" fill="none" xmlns="http://www.w3.org/2000/svg">
<g clip-path="url(#clip0_180_6792)">
<rect width="1024" height="768" fill="white"/>
<path opacity="0.1" fill-rule="evenodd" clip-rule="evenodd" d="M610.525 510.739C586.619 538.452 574.347 563.484 565.895 601.774C547.497 685.117 583.495 769.075 657.33 815.032C687.236 833.643 739.067 846.023 775.152 843.17C888.294 834.22 969.081 741.297 961.969 628.291L959.404 587.496L934.609 544.703C913.786 508.758 906.491 499.296 889.03 485.595C846.245 452.009 784.765 435.659 732.01 443.826C691.97 450.028 636.584 480.535 610.525 510.739ZM745.485 460.148C820.987 454.181 884.06 487.315 922.1 552.937C977.342 648.234 931.937 775.04 828.833 813.4C736.423 847.776 638.287 809.457 596.632 722.727C564.557 655.935 574.618 579.315 622.822 523.292C639.321 504.118 648.079 497.552 678.455 481.568C709.304 465.341 718.989 462.246 745.485 460.148ZM679.892 526.965C663.806 547.041 667.686 574.857 688.582 589.262C725.809 614.924 769.971 571.737 747.066 532.065C735.905 512.734 693.854 509.541 679.892 526.965ZM717.218 531.712C739.878 537.765 743.659 565.776 723.393 577.476C712.362 583.845 694.936 578.693 688.231 567.08C683.134 558.252 688.938 538.174 698.124 532.87C702.2 530.517 710.792 529.996 717.218 531.712ZM618.999 652.547C619.509 668.748 632.94 672.68 678.587 669.994C736.949 666.557 737.029 666.654 745.454 748.945C750.244 795.75 755.548 807.521 770.374 804.26C783.695 801.324 787.294 792.686 790.121 756.824C793.59 712.916 794.817 703.959 797.604 702.35C798.845 701.634 815.244 708.533 834.05 717.684C852.856 726.834 872.516 735.462 877.738 736.857C891.378 740.5 901.857 732.822 900.635 720.07C899.757 710.889 893.037 704.188 859.611 679.145C835.168 660.837 816.429 643.647 811.386 634.912C803.151 620.65 803.18 620.554 826.951 583.246C852.698 542.838 855.99 530.973 843.32 524.269C831.535 518.035 821.698 523.897 791.889 554.924C755.85 592.429 720.98 612.67 671.8 624.633C627.225 635.475 618.603 640.034 618.999 652.547ZM681.141 638.853C731.615 625.305 758.646 609.664 797.271 571.648C814.177 555.01 830.218 540.974 832.916 540.452C835.616 539.934 826.576 556.607 812.826 577.505C799.078 598.406 787.684 618.086 787.507 621.237C786.642 636.752 806.848 660.214 843.994 686.839C865.005 701.898 882.618 716.281 883.132 718.806C883.647 721.325 864.909 714.602 841.498 703.858C818.081 693.113 796.526 684.198 793.589 684.049C783.859 683.55 779.527 697.406 775.862 740.727C771.512 792.153 772.132 788.367 768.23 787.325C766.48 786.86 762.773 765.036 759.994 738.829C754.642 688.362 742.649 657.86 726.456 653.535C722.069 652.363 701.159 652.73 679.988 654.347C658.817 655.964 640.731 655.958 639.795 654.338C637.516 650.39 635.893 651.002 681.141 638.853Z" fill="black"/>
<path opacity="0.1" fill-rule="evenodd" clip-rule="evenodd" d="M1051.58 9.60212C1126.93 27.9272 1187.57 94.6114 1199.66 172.418C1220.07 303.865 1103.87 422.062 974.235 401.704C839.683 380.58 763.936 239.556 821.433 117.225C860.773 33.5163 959.703 -12.7458 1051.58 9.60212ZM957.37 27.3366C921.928 36.5462 894.074 52.8043 869.72 78.4988C799.622 152.45 801.458 262.477 873.98 333.753C946.162 404.696 1056.87 405.564 1128.54 335.748C1201.66 264.527 1204.21 151.735 1134.39 78.0751C1088.1 29.241 1022.45 10.4238 957.37 27.3366ZM1032.28 77.7413C1045.26 85.0123 1069.38 95.9509 1085.9 102.045L1115.92 113.133V181.431C1115.92 249.146 1115.81 249.93 1103.2 272.65C1088.59 298.965 1060.59 325.228 1031.35 340.049C1004.59 353.61 997.199 353.054 967.887 335.29C934.68 315.163 913.483 293.098 900.084 264.711C890.39 244.182 888.747 234.224 887.207 186.759C884.943 116.904 885.873 113.454 908.859 106.586C918.935 103.573 944.031 92.6642 964.632 82.3419C985.228 72.0195 1003.57 63.7857 1005.39 64.0467C1007.21 64.3078 1019.31 70.4704 1032.28 77.7413ZM916.395 122.869L902.739 127.62L904.373 182.257C905.702 226.687 907.731 240.669 915.229 257.094C926.26 281.252 955.23 310.421 982.509 324.843L1002.33 335.324L1026.02 322.956C1055.39 307.631 1085.05 275.372 1094.08 248.945C1098.84 234.998 1100.91 213.309 1100.91 177.25V125.548L1074.1 115.919C1059.35 110.625 1037.71 100.795 1026 94.0807L1004.71 81.8668L967.381 99.995C946.849 109.962 923.906 120.259 916.395 122.869ZM1023.23 133.739C1034.99 140.24 1044.77 155.886 1045 168.541C1045.08 173.313 1049.01 180.515 1053.73 184.546C1061.04 190.79 1062.3 197.171 1062.3 227.629C1062.3 276.078 1060.51 277.55 1001.37 277.55C944.713 277.55 944.352 277.22 944.352 225.236C944.352 194.355 945.69 186.331 951.369 183.16C955.23 181.003 959.639 172.589 961.166 164.458C966.54 135.871 998.49 120.053 1023.23 133.739ZM985.1 153.443C980.381 158.15 976.521 165.853 976.521 170.561C976.521 178.17 979.382 179.12 1002.26 179.12C1025.81 179.12 1027.99 178.332 1027.99 169.829C1027.99 147.473 1001.3 137.274 985.1 153.443ZM965.798 262.571H1043L1045.51 196.238H963.293L965.798 262.571ZM1012.56 216.968C1013.79 218.954 1013.66 227.62 1012.26 236.226C1008.72 257.962 995.792 257.962 992.254 236.226C990.856 227.62 990.718 218.954 991.949 216.968C994.845 212.287 1009.67 212.287 1012.56 216.968Z" fill="black"/>
<path opacity="0.1" fill-rule="evenodd" clip-rule="evenodd" d="M454.379 3.63224C554.556 25.3629 620.65 122.419 605.96 226.211C593.892 311.486 525.331 380.705 438.457 395.319C331.59 413.292 229.571 338.998 210.74 229.485C200.059 167.37 221.044 102.272 266.028 58.0059C296.283 28.2343 326.281 11.686 364.725 3.55949C399.911 -3.87378 419.845 -3.85666 454.379 3.63224ZM374.338 18.6956C340.095 25.1703 308.476 41.372 282.765 65.6189C208.818 135.356 205.672 250.291 275.688 324.114C364.115 417.345 515.001 393.718 572.224 277.679C585.365 251.036 587.099 243.375 588.412 206.158C589.511 174.901 588.013 158.815 582.408 141.852C562.397 81.2515 513.838 35.7575 453.688 21.2547C422.347 13.6973 403.915 13.1025 374.338 18.6956ZM498.646 71.7684C502.5 76.403 501.474 103.966 494.217 190.521C489.02 252.516 482.896 305.649 480.613 308.589C472.983 318.406 462.344 314.122 441.217 292.734C429.698 281.072 418.841 272.411 417.09 273.489C415.339 274.572 402.988 291.814 389.641 311.811C372.625 337.321 362.811 348.173 356.772 348.173C342.28 348.173 310.136 323.421 310.136 312.265C310.136 306.86 319.792 288.733 331.594 271.975C343.396 255.217 353.052 239.755 353.052 237.62C353.052 235.48 343.061 232.412 330.852 230.794C318.642 229.181 305.124 225.976 300.811 223.673C282.529 213.921 292.017 204.117 387.01 134.577C438.728 96.7129 483.875 65.7345 487.334 65.7345C490.793 65.7345 495.882 68.4519 498.646 71.7684ZM400.975 145.425C356.914 177.486 319.239 205.203 317.247 207.018C315.26 208.832 327.521 212.791 344.499 215.816C361.476 218.842 376.312 223.776 377.466 226.78C378.625 229.784 367.347 249.863 352.408 271.393L325.247 310.545L338.078 320.776C345.134 326.408 352.125 331.021 353.614 331.034C355.103 331.047 368.621 312.817 383.654 290.521C398.688 268.226 413.824 249.932 417.292 249.867C420.755 249.803 433.792 259.791 446.259 272.069C458.722 284.346 468.923 292.165 468.923 289.443C468.923 280.508 481.519 128.248 483.982 107.458C485.304 96.2764 485.192 87.1313 483.733 87.1313C482.274 87.1313 445.032 113.364 400.975 145.425Z" fill="black"/>
<path opacity="0.1" fill-rule="evenodd" clip-rule="evenodd" d="M107.841 384.733C46.9358 383.467 -3.37654 402.903 -45.4674 443.96C-64.8388 462.854 -70.7689 472.089 -84.1252 504.127C-103.59 550.816 -107.713 587.759 -98.1035 629.373C-80.772 704.427 -33.7246 754.662 41.4209 778.35C74.7859 788.87 84.3759 789.972 115.871 786.907C200.595 778.657 261.687 732.324 289.842 654.969C336.753 526.084 243.455 387.555 107.841 384.733ZM228.799 454.334C296.673 522.334 303.581 626.989 245.028 700.237C190.761 768.126 107.662 788.389 25.4641 753.778C-20.7393 734.32 -48.0165 707.177 -68.6562 660.115C-92.8806 604.873 -90.8496 551.143 -62.477 496.713C-37.2685 448.358 15.7668 411.867 72.4679 403.868C111.581 398.351 130.113 400.962 171.45 417.827C200.405 429.644 210.679 436.183 228.799 454.334ZM125.138 453.835C103.831 466.37 80.7916 491.389 80.9762 501.79C81.195 514.163 87.1541 512.035 101.767 494.372C109.516 485.002 120.013 474.653 125.094 471.371C133.505 465.946 132.59 470.245 114.96 519.002L95.5871 572.602L92.3727 557.436C85.0969 523.09 50.1387 478.063 22.1773 467.018L7.6835 461.295L-2.40843 490.639C-19.1642 539.383 -10.7234 584.272 21.1997 616.13C30.7172 625.631 46.334 636.251 55.986 639.787L73.5001 646.208L81.463 624.613C91.3732 597.731 110.32 578.002 141.859 561.726C164.369 550.109 166.269 548.02 169.48 531.358C171.377 521.513 172.11 506.562 171.112 498.127C168.871 479.195 155.379 447.402 148.528 444.909C145.736 443.893 135.208 447.908 125.138 453.835ZM155.054 497.755C159.267 532.698 155.738 541.612 133.838 551.398L114.149 560.192L130.276 515.885C147.432 468.747 151.223 465.97 155.054 497.755ZM206.83 556.993C171.15 558.442 145.576 567.222 121.062 586.437C105.214 598.859 99.3947 607.005 89.5618 630.505C82.9325 646.357 73.7463 663.64 69.1476 668.908C61.847 677.275 59.2705 677.578 48.7139 671.292C31.8321 661.247 12.1737 639.671 12.0208 631.031C11.8107 619.263 -4.28471 616.04 -8.13977 626.991C-10.6854 634.229 -7.0604 640.657 8.18368 655.933C18.963 666.729 34.2852 679.364 42.2276 684.005C54.1528 690.972 56.048 694.158 53.0911 702.282C48.4833 714.942 36.5227 710.985 9.42197 687.848C-26.387 657.272 -51.8194 582.788 -32.9868 563.642C-22.9302 553.413 -25.3379 540.252 -38.1155 535.602C-52.7533 530.274 -63.1282 541.339 -58.1452 556.972C-55.964 563.812 -54.3211 576.507 -54.4941 585.183C-55.501 635.894 -11.9581 701.173 37.2352 722.707L54.572 730.296L66.2637 704.59C77.3725 680.164 78.6359 678.926 91.6679 679.708C162.152 683.953 197.759 668.075 228.854 618.537C244.658 593.366 251.487 561.654 241.836 558.295C237.985 556.954 222.233 556.367 206.83 556.993ZM52.8027 512.041C71.9113 536.808 81.8582 566.471 79.3296 591.141C78.1865 602.277 76.2919 611.832 75.1165 612.38C73.1031 613.317 31.936 502.216 31.4233 494.462C30.9559 487.391 38.6948 493.759 52.8027 512.041ZM39.1381 558.131C52.0022 595.345 60.401 625.732 57.8068 625.66C48.1595 625.396 26.3378 604.092 16.2774 585.123C10.562 574.351 5.38112 555.399 4.75888 543.005C3.46822 517.202 7.85007 486.876 12.5625 489.02C14.3139 489.816 26.274 520.916 39.1381 558.131ZM212.207 576.959C209.29 579.327 182.226 597.091 152.065 616.434C106.859 645.427 97.5851 649.847 99.2759 641.622C102.958 623.703 124.032 599.606 146.953 587.103C173.836 572.441 228.174 563.992 212.207 576.959ZM205.062 626.631C198.012 635.388 185.085 647.138 176.345 652.737C160.474 662.898 108.853 673.044 105.844 666.593C104.97 664.721 131.121 645.948 163.958 624.873C218.236 590.038 223.396 587.656 220.774 598.632C219.184 605.271 212.114 617.869 205.062 626.631ZM-40.273 553.875C-42.3823 555.538 -45.4685 555.175 -47.1346 553.066C-48.8006 550.958 -48.4398 547.875 -46.3305 546.212C-44.2212 544.549 -41.135 544.911 -39.469 547.02C-37.8029 549.129 -38.1638 552.212 -40.273 553.875ZM212.384 663.661C205.573 666.832 201.284 672.456 200.104 679.766C197.315 697.04 150.151 719.735 129.01 713.977C115.668 710.338 112.678 711.251 108.135 720.319C104.454 727.671 104.851 733.153 109.439 738.271C115.975 745.567 129.821 748.129 131.896 742.428C132.489 740.8 146.465 732.712 162.959 724.458C229.572 691.112 236.477 686.59 235.128 677.207C233.185 663.707 224.014 658.246 212.384 663.661ZM221.446 681.791C219.337 683.454 216.251 683.091 214.585 680.983C212.919 678.874 213.28 675.791 215.389 674.128C217.498 672.465 220.584 672.828 222.25 674.936C223.916 677.045 223.556 680.128 221.446 681.791ZM126.748 730.906C125.924 733.172 123.393 734.35 121.124 733.524C118.856 732.699 117.675 730.169 118.499 727.903C119.324 725.637 121.855 724.459 124.123 725.285C126.392 726.11 127.573 728.64 126.748 730.906Z" fill="black"/>
</g>
<defs>
<clipPath id="clip0_180_6792">
<rect width="1024" height="768" fill="white"/>
</clipPath>
</defs>
</svg>
