<svg width="375" height="667" viewBox="0 0 375 667" fill="none" xmlns="http://www.w3.org/2000/svg">
<g clip-path="url(#clip0_180_6796)">
<rect width="375" height="667" fill="white"/>
<path opacity="0.1" fill-rule="evenodd" clip-rule="evenodd" d="M48.8328 73.2408C78.9703 80.5709 103.228 107.245 108.063 138.367C116.23 190.946 69.7486 238.225 17.894 230.082C-35.9267 221.632 -66.2255 165.222 -43.2269 116.29C-27.4907 82.8065 12.0813 64.3017 48.8328 73.2408ZM11.148 80.3347C-3.02865 84.0185 -14.1703 90.5217 -23.9119 100.8C-51.9511 130.38 -51.2168 174.391 -22.2082 202.901C6.66492 231.278 50.9482 231.626 79.6171 203.699C108.863 175.211 109.885 130.094 81.9556 100.63C63.4417 81.0964 37.1782 73.5695 11.148 80.3347ZM41.1122 100.497C46.3021 103.405 55.9528 107.78 62.5582 110.218L74.5679 114.653V141.972C74.5679 169.059 74.5233 169.372 69.4792 178.46C63.6356 188.986 52.4357 199.491 40.7399 205.419C30.0375 210.844 27.0797 210.622 15.3548 203.516C2.07204 195.465 -6.40682 186.639 -11.7666 175.284C-15.644 167.073 -16.3011 163.089 -16.917 144.104C-17.8229 116.161 -17.4506 114.782 -8.25631 112.034C-4.22619 110.829 5.81221 106.466 14.0526 102.337C22.2913 98.2078 29.6292 94.9143 30.3549 95.0187C31.0824 95.1231 35.9223 97.5881 41.1122 100.497ZM-5.24188 118.548L-10.7046 120.448L-10.0509 142.303C-9.51905 160.075 -8.70754 165.667 -5.70854 172.237C-1.29583 181.901 10.2918 193.568 21.2035 199.337L29.1317 203.53L38.6091 198.582C50.3563 192.452 62.2219 179.549 65.8317 168.978C67.7361 163.399 68.563 154.724 68.563 140.3V119.619L57.8401 115.768C51.9416 113.65 43.2843 109.718 38.6005 107.032L30.0822 102.147L15.1523 109.398C6.93941 113.385 -2.23773 117.504 -5.24188 118.548ZM37.4922 122.896C42.1948 125.496 46.11 131.754 46.1992 136.816C46.2318 138.725 47.8034 141.606 49.6906 143.219C52.6141 145.716 53.1219 148.268 53.1219 160.451C53.1219 179.831 52.4031 180.42 28.7491 180.42C6.08501 180.42 5.94089 180.288 5.94089 159.495C5.94089 147.142 6.47618 143.932 8.74774 142.664C10.2918 141.801 12.0556 138.436 12.6663 135.183C14.8161 123.748 27.5961 117.421 37.4922 122.896ZM22.2398 130.777C20.3526 132.66 18.8084 135.741 18.8084 137.624C18.8084 140.668 19.9528 141.048 29.1025 141.048C38.5233 141.048 39.3966 140.733 39.3966 137.332C39.3966 128.389 28.7216 124.31 22.2398 130.777ZM14.5193 174.429H45.4014L46.4034 147.895H13.5173L14.5193 174.429ZM33.2253 156.187C33.7177 156.982 33.6628 160.448 33.1035 163.891C31.688 172.585 26.517 172.585 25.1015 163.891C24.5422 160.448 24.4873 156.982 24.9797 156.187C26.1378 154.315 32.0672 154.315 33.2253 156.187Z" fill="black"/>
<path opacity="0.1" fill-rule="evenodd" clip-rule="evenodd" d="M289.552 2.2529C329.622 10.9452 356.06 49.7676 350.184 91.2844C345.357 125.394 317.932 153.082 283.183 158.928C240.436 166.117 199.629 136.399 192.096 92.5939C187.823 67.7478 196.218 41.7087 214.211 24.0024C226.313 12.0937 238.312 5.47441 253.69 2.2238C267.764 -0.749512 275.738 -0.742665 289.552 2.2529ZM257.535 8.27825C243.838 10.8681 231.19 17.3488 220.906 27.0476C191.327 54.9422 190.069 100.916 218.075 130.446C253.446 167.738 313.8 158.287 336.69 111.872C341.946 101.214 342.639 98.1502 343.165 83.2631C343.604 70.7605 343.005 64.326 340.763 57.5407C332.759 33.3006 313.335 15.103 289.275 9.30188C276.739 6.27893 269.366 6.041 257.535 8.27825ZM307.258 29.5074C308.8 31.3612 308.39 42.3866 305.487 77.0084C303.408 101.806 300.958 123.06 300.045 124.236C296.993 128.162 292.738 126.449 284.287 117.894C279.679 113.229 275.336 109.764 274.636 110.196C273.936 110.629 268.995 117.525 263.656 125.524C256.85 135.728 252.924 140.069 250.509 140.069C244.712 140.069 231.855 130.168 231.855 125.706C231.855 123.544 235.717 116.293 240.438 109.59C245.158 102.887 249.021 96.7021 249.021 95.8479C249.021 94.992 245.024 93.7647 240.141 93.1177C235.257 92.4723 229.85 91.1902 228.124 90.2693C220.812 86.3682 224.607 82.4466 262.604 54.6307C283.291 39.4852 301.35 27.0938 302.733 27.0938C304.117 27.0938 306.153 28.1808 307.258 29.5074ZM268.19 58.97C250.566 71.7944 235.495 82.8814 234.699 83.6072C233.904 84.333 238.809 85.9163 245.599 87.1265C252.39 88.3367 258.325 90.3104 258.786 91.512C259.25 92.7137 254.739 100.745 248.763 109.357L237.899 125.018L243.031 129.111C245.854 131.363 248.65 133.209 249.246 133.214C249.841 133.219 255.249 125.927 261.262 117.009C267.275 108.09 273.33 100.773 274.717 100.747C276.102 100.721 281.317 104.716 286.304 109.627C291.289 114.538 295.369 117.666 295.369 116.577C295.369 113.003 300.407 52.099 301.393 43.7833C301.921 39.3105 301.877 35.6525 301.293 35.6525C300.71 35.6525 285.813 46.1456 268.19 58.97Z" fill="black"/>
<path opacity="0.1" fill-rule="evenodd" clip-rule="evenodd" d="M321.496 215.63C307.672 220.449 298.415 226.666 287.829 238.239C264.787 263.431 260.465 299.714 276.851 330.401C283.489 342.829 298.967 357.484 312.038 363.713C353.022 383.241 399.592 367.209 419.73 326.64L427 311.995L426.969 292.212C426.945 275.596 426.31 270.859 423.002 262.621C414.898 242.429 396.871 224.47 376.962 216.748C361.852 210.888 336.564 210.379 321.496 215.63ZM378.366 225.097C405.714 238.13 420.936 262.223 420.989 292.563C421.066 336.623 379.976 371.469 336.588 364.136C297.701 357.563 271.369 324.661 274.286 286.286C276.533 256.734 295.343 232.204 323.245 222.438C332.795 219.096 337.143 218.573 350.862 219.111C364.794 219.659 368.768 220.524 378.366 225.097ZM342.281 235.124C332.693 238.861 328.474 249.273 332.831 258.443C340.595 274.777 364.53 268.65 364.53 250.326C364.53 241.397 350.602 231.881 342.281 235.124ZM354.261 244.234C360.9 250.862 356.608 261.322 347.247 261.322C342.152 261.322 337.146 256.052 337.146 250.688C337.146 246.611 343.172 240.816 347.415 240.816C349.298 240.816 352.378 242.354 354.261 244.234ZM296.07 266.449C293.006 272.163 296.873 276.211 313.223 284.41C334.127 294.892 334.135 294.941 320.596 325.133C312.894 342.305 312.377 347.443 318.165 349.278C323.367 350.926 326.341 348.653 334.493 336.795C344.476 322.279 346.693 319.422 347.98 319.422C348.553 319.422 352.854 325.092 357.539 332.023C362.223 338.954 367.308 345.874 368.838 347.402C372.834 351.392 378 350.828 380.127 346.167C381.659 342.81 380.671 339.145 374.101 323.784C369.295 312.554 366.242 302.851 366.242 298.817C366.242 292.229 366.271 292.202 381.967 284.032C398.967 275.184 402.481 271.732 399.433 266.876C396.597 262.359 392.017 262.423 375.485 267.209C355.5 272.993 339.373 273.031 319.944 267.339C302.334 262.18 298.435 262.035 296.07 266.449ZM320.336 274.133C340.53 279.535 353.022 279.523 374.005 274.078C383.189 271.696 391.553 270.042 392.592 270.401C393.631 270.762 387.165 274.729 378.222 279.219C369.28 283.709 361.396 288.248 360.705 289.304C357.302 294.506 359.61 306.674 367.152 323.327C371.419 332.746 374.643 341.25 374.316 342.228C373.991 343.203 368.845 337.127 362.884 328.723C356.921 320.317 351.237 312.918 350.249 312.279C346.979 310.16 342.707 314.094 332.773 328.368C320.981 345.312 321.953 344.125 320.81 342.983C320.296 342.472 323.377 334.171 327.656 324.536C335.895 305.984 337.841 293.019 333.097 288.282C331.811 286.999 324.495 282.944 316.837 279.27C309.18 275.596 302.916 271.977 302.916 271.228C302.916 269.405 302.231 269.292 320.336 274.133Z" fill="black"/>
<g opacity="0.1">
<ellipse cx="114.817" cy="313.691" rx="15.6041" ry="21.5083" transform="rotate(20 114.817 313.691)" fill="#C4FFCB"/>
<ellipse cx="129.163" cy="355.563" rx="16.6608" ry="29.9089" transform="rotate(-130 129.163 355.563)" fill="#C4FFCB"/>
<ellipse cx="80.7437" cy="329.438" rx="16.6608" ry="29.9089" transform="rotate(-20 80.7437 329.438)" fill="#C4FFCB"/>
<circle cx="46.9308" cy="327.578" r="2.95212" transform="rotate(20 46.9308 327.578)" fill="#C4FFCB"/>
<circle cx="151.982" cy="379.278" r="2.95212" transform="rotate(20 151.982 379.278)" fill="#C4FFCB"/>
<circle cx="65.7651" cy="360.913" r="1.68693" transform="rotate(20 65.7651 360.913)" fill="#C4FFCB"/>
<circle cx="114.071" cy="399.588" r="2.95212" transform="rotate(20 114.071 399.588)" fill="#C4FFCB"/>
<path fill-rule="evenodd" clip-rule="evenodd" d="M107.92 261.367C83.4673 260.859 63.2677 268.662 46.369 285.146C38.5917 292.732 36.2108 296.439 30.8485 309.302C23.0338 328.047 21.3785 342.879 25.2364 359.586C32.1947 389.719 51.0835 409.887 81.2531 419.398C94.6486 423.622 98.4988 424.064 111.143 422.833C145.159 419.521 169.686 400.919 180.99 369.862C199.824 318.117 162.366 262.5 107.92 261.367ZM156.482 289.311C183.732 316.612 186.506 358.629 162.998 388.037C141.211 415.293 107.848 423.428 74.8467 409.533C56.2969 401.721 45.3455 390.823 37.059 371.929C27.3333 349.75 28.1488 328.178 39.5399 306.325C49.6606 286.912 70.9534 272.261 93.718 269.05C109.421 266.835 116.862 267.883 133.457 274.654C145.083 279.398 149.207 282.023 156.482 289.311ZM114.864 289.111C106.31 294.143 97.0598 304.188 97.1339 308.364C97.2217 313.331 99.6142 312.477 105.481 305.385C108.592 301.623 112.807 297.469 114.847 296.151C118.223 293.973 117.856 295.699 110.778 315.274L103 336.793L101.709 330.704C98.7883 316.915 84.7532 298.838 73.5271 294.403L67.7081 292.106L63.6564 303.887C56.9292 323.457 60.3181 341.479 73.1347 354.269C76.9558 358.084 83.2256 362.347 87.1008 363.767L94.1324 366.345L97.3293 357.675C101.308 346.883 108.915 338.961 121.577 332.427C130.615 327.763 131.377 326.924 132.667 320.235C133.428 316.282 133.723 310.279 133.322 306.893C132.422 299.292 127.005 286.528 124.255 285.527C123.134 285.119 118.907 286.731 114.864 289.111ZM126.875 306.744C128.566 320.773 127.149 324.352 118.357 328.28L110.452 331.811L116.927 314.023C123.815 295.098 125.337 293.982 126.875 306.744ZM147.662 330.527C133.337 331.108 123.07 334.633 113.228 342.348C106.865 347.335 104.529 350.606 100.581 360.04C97.9193 366.405 94.2312 373.344 92.3849 375.459C89.4539 378.818 88.4194 378.94 84.1811 376.416C77.4034 372.383 69.5109 363.72 69.4495 360.252C69.3651 355.527 62.9031 354.233 61.3553 358.63C60.3333 361.536 61.7887 364.117 67.9089 370.25C72.2366 374.584 78.3883 379.657 81.577 381.52C86.3648 384.317 87.1257 385.596 85.9385 388.858C84.0885 393.94 79.2866 392.352 68.4061 383.063C54.0294 370.787 43.8187 340.883 51.3797 333.196C55.4173 329.089 54.4506 323.806 49.3206 321.939C43.4438 319.8 39.2784 324.242 41.279 330.518C42.1547 333.264 42.8143 338.361 42.7449 341.845C42.3406 362.204 59.8224 388.412 79.5726 397.058L86.5331 400.105L91.2271 389.784C95.6871 379.978 96.1943 379.481 101.426 379.795C129.725 381.499 144.02 375.124 156.504 355.235C162.849 345.13 165.591 332.398 161.716 331.049C160.17 330.511 153.846 330.275 147.662 330.527ZM85.8227 312.479C93.4945 322.423 97.488 334.332 96.4728 344.237C96.0139 348.707 95.2532 352.544 94.7813 352.764C93.973 353.14 77.4451 308.535 77.2392 305.422C77.0516 302.583 80.1586 305.139 85.8227 312.479ZM80.3366 330.983C85.5013 345.924 88.8733 358.124 87.8318 358.096C83.9586 357.99 75.1975 349.436 71.1584 341.82C68.8638 337.496 66.7838 329.887 66.5339 324.911C66.0158 314.551 67.775 302.376 69.667 303.237C70.3701 303.556 75.1719 316.043 80.3366 330.983ZM149.821 338.543C148.65 339.493 137.784 346.625 125.675 354.391C107.525 366.031 103.802 367.806 104.481 364.504C105.959 357.31 114.42 347.635 123.622 342.616C134.416 336.729 156.231 333.337 149.821 338.543ZM146.952 358.485C144.122 362.001 138.932 366.718 135.423 368.966C129.051 373.046 108.326 377.119 107.118 374.529C106.767 373.778 117.266 366.241 130.45 357.78C152.241 343.794 154.313 342.838 153.26 347.244C152.622 349.91 149.783 354.968 146.952 358.485ZM48.4544 329.275C47.6075 329.943 46.3685 329.797 45.6996 328.95C45.0307 328.104 45.1756 326.866 46.0224 326.198C46.8693 325.531 48.1083 325.676 48.7772 326.523C49.4461 327.369 49.3012 328.607 48.4544 329.275ZM149.892 373.352C147.157 374.625 145.436 376.883 144.962 379.818C143.842 386.753 124.907 395.865 116.419 393.553C111.062 392.092 109.861 392.459 108.038 396.099C106.56 399.051 106.719 401.252 108.561 403.307C111.185 406.236 116.744 407.265 117.578 404.976C117.815 404.322 123.427 401.075 130.049 397.761C156.793 384.373 159.565 382.558 159.023 378.791C158.243 373.371 154.561 371.178 149.892 373.352ZM153.53 380.631C152.683 381.299 151.444 381.153 150.775 380.307C150.107 379.46 150.251 378.222 151.098 377.554C151.945 376.887 153.184 377.032 153.853 377.879C154.522 378.726 154.377 379.963 153.53 380.631ZM115.511 400.35C115.18 401.259 114.163 401.733 113.253 401.401C112.342 401.07 111.868 400.054 112.199 399.144C112.53 398.235 113.546 397.762 114.457 398.093C115.367 398.425 115.842 399.44 115.511 400.35Z" fill="black"/>
</g>
</g>
<defs>
<clipPath id="clip0_180_6796">
<rect width="375" height="667" fill="white"/>
</clipPath>
</defs>
</svg>
