<svg xmlns="http://www.w3.org/2000/svg" style="display: none;">
  <defs>
    <symbol id="backward-fast-solid-full" viewBox="0 0 640 640">
      <!--!Font Awesome Free 7.0.1 by @fontawesome - https://fontawesome.com License - https://fontawesome.com/license/free Copyright 2025 Fonticons, Inc.--><path d="M556.2 541.6C544.2 546.6 530.5 543.8 521.3 534.7L352 365.3L352 512C352 524.9 344.2 536.6 332.2 541.6C320.2 546.6 306.5 543.8 297.3 534.7L128 365.3L128 512C128 529.7 113.7 544 96 544C78.3 544 64 529.7 64 512L64 128C64 110.3 78.3 96 96 96C113.7 96 128 110.3 128 128L128 274.7L297.4 105.4C306.6 96.2 320.3 93.5 332.3 98.5C344.3 103.5 352 115.1 352 128L352 274.7L521.4 105.3C530.6 96.1 544.3 93.4 556.3 98.4C568.3 103.4 576 115.1 576 128L576 512C576 524.9 568.2 536.6 556.2 541.6z"/>    </symbol>
    <symbol id="caret-left-solid-full" viewBox="0 0 640 640">
      <!--!Font Awesome Free 7.0.1 by @fontawesome - https://fontawesome.com License - https://fontawesome.com/license/free Copyright 2025 Fonticons, Inc.--><path d="M416 160C416 147.1 408.2 135.4 396.2 130.4C384.2 125.4 370.5 128.2 361.3 137.3L201.3 297.3C188.8 309.8 188.8 330.1 201.3 342.6L361.3 502.6C370.5 511.8 384.2 514.5 396.2 509.5C408.2 504.5 416 492.9 416 480L416 160z"/>    </symbol>
    <symbol id="caret-right-solid-full" viewBox="0 0 640 640">
      <!--!Font Awesome Free 7.0.1 by @fontawesome - https://fontawesome.com License - https://fontawesome.com/license/free Copyright 2025 Fonticons, Inc.--><path d="M224.5 160C224.5 147.1 232.3 135.4 244.3 130.4C256.3 125.4 270 128.2 279.1 137.4L439.1 297.4C451.6 309.9 451.6 330.2 439.1 342.7L279.1 502.7C269.9 511.9 256.2 514.6 244.2 509.6C232.2 504.6 224.5 492.9 224.5 480L224.5 160z"/>    </symbol>
    <symbol id="check-circle" viewBox="0 0 256 256">
      <path d="M173.66,98.34a8,8,0,0,1,0,11.32l-56,56a8,8,0,0,1-11.32,0l-24-24a8,8,0,0,1,11.32-11.32L112,148.69l50.34-50.35A8,8,0,0,1,173.66,98.34ZM232,128A104,104,0,1,1,128,24,104.11,104.11,0,0,1,232,128Zm-16,0a88,88,0,1,0-88,88A88.1,88.1,0,0,0,216,128Z"></path>    </symbol>
    <symbol id="dots-three" viewBox="0 0 256 256">
      <path d="M140,128a12,12,0,1,1-12-12A12,12,0,0,1,140,128Zm56-12a12,12,0,1,0,12,12A12,12,0,0,0,196,116ZM60,116a12,12,0,1,0,12,12A12,12,0,0,0,60,116Z"></path>    </symbol>
    <symbol id="facebook" viewBox="0 0 640 640">
      <!--!Font Awesome Free 7.0.1 by @fontawesome - https://fontawesome.com License - https://fontawesome.com/license/free Copyright 2025 Fonticons, Inc.--><path d="M576 320C576 178.6 461.4 64 320 64C178.6 64 64 178.6 64 320C64 440 146.7 540.8 258.2 568.5L258.2 398.2L205.4 398.2L205.4 320L258.2 320L258.2 286.3C258.2 199.2 297.6 158.8 383.2 158.8C399.4 158.8 427.4 162 438.9 165.2L438.9 236C432.9 235.4 422.4 235 409.3 235C367.3 235 351.1 250.9 351.1 292.2L351.1 320L434.7 320L420.3 398.2L351 398.2L351 574.1C477.8 558.8 576 450.9 576 320z"/>    </symbol>
    <symbol id="file-arrow-up" viewBox="0 0 256 256">
      <path d="M213.66,82.34l-56-56A8,8,0,0,0,152,24H56A16,16,0,0,0,40,40V216a16,16,0,0,0,16,16H200a16,16,0,0,0,16-16V88A8,8,0,0,0,213.66,82.34ZM160,51.31,188.69,80H160ZM200,216H56V40h88V88a8,8,0,0,0,8,8h48V216Zm-42.34-77.66a8,8,0,0,1-11.32,11.32L136,139.31V184a8,8,0,0,1-16,0V139.31l-10.34,10.35a8,8,0,0,1-11.32-11.32l24-24a8,8,0,0,1,11.32,0Z"></path>    </symbol>
    <symbol id="flag-af" viewBox="0 0 640 480">
        <g fill-rule="evenodd" stroke-width="1pt">
          <path fill="currentColor" d="M0 0h640v480H0z"/>
          <path fill="currentColor" d="M426.7 0H640v480H426.7z"/>
          <path fill="currentColor" d="M213.3 0h213.4v480H213.3z"/>
        </g>
        <g fill="currentColor" fill-rule="evenodd" stroke="currentColor" stroke-width=".5" transform="translate(1 27.3)scale(1.06346)">
          <path d="M319.5 225.8h8.3c0 3.2 2 6.6 4.5 8.5h-16c2.5-2.2 3.2-5 3.2-8.5z"/>
          <path stroke="none" d="m266.7 178.5 4.6 5 57 .2 4.6-5-14.6-.3-7-5h-23l-6.6 5.1z"/>
          <path d="M290 172.7h19.7c2.6-1.4 3.5-5.9 3.5-8.4 0-7.4-5.3-11-10.5-11.2q-1.4-.1-1.9-1.3c-.5-1.6-.4-2.7-1-2.6-.4 0-.3 1-.7 2.4q-.6 1.3-2 1.6c-6.4.3-10.6 5-10.5 11.1.1 4 .6 6.4 3.4 8.4z"/>
          <path stroke="none" d="M257.7 242.8H342l-7.5-6.1h-69.4z"/>
          <path d="m296.4 219.7 1.5 4.6h3.5l-2.8-4.6zm-2 4.6 1 4.6h4l-1.5-4.6zm7 0 2.8 4.6h5.9l-4.6-4.6zm-34.5 10.4c3.1-2.9 5.1-5.3 5.1-8.8h7.6q0 3 1.8 3h7.7v-4.5h-5.6v-24.7c-.2-8.8 10.6-13.8 15-13.8h-26.3v-.8h55.3v.8H301c7.9 0 15.5 7.5 15.6 13.8v7h-1l-.1-6.9c0-6.9-8.7-13.3-15.7-13.1-6 .1-15.4 5.9-15.3 13v2.2l14.3.1-.1 2.5 2.2 1.4 4.5 1.4v3.8l3.2.9v3.7l3.8 1.7v3.8l2.5 1.5-.1 3.9 3.3 2.3h-7.8l4.9 5.5h-7.3l-3.6-5.5h-4.7l2.1 5.4h-5l-1.3-5.4h-6.2v5.8H267zm22.2-15v4.6h5.3l-1-4.6H289z"/>
          <path fill="none" d="M289.4 211.7h3.3v7.6h-3.3z"/>
          <path fill="none" d="M284.7 219.8h3.2v-5.6c0-2.4 2.2-4.9 3.2-5 1.2 0 2.9 2.3 3 4.8v5.8h3.4v-14.4h-12.8zm25.6 3.3h4v3.2h-4zm-2.4-5.3h4v3.1h-4zm-3.9-5.4h4v3.1h-4zm-3.3-4.5h4v3.1h-4z"/>
          <path fill="none" d="m298 219.8 4.2.2 7.3 6.4v-3.8l-2.5-1.8v-3l-3.6-2v-3.3l-3.5-1.2V207l-1.7-1.5z"/>
          <path d="M315.4 210.3h1v7.1h-1z"/>
          <g id="af-a">
            <path d="M257.3 186.5c-1.2-2-2.7 2.8-7.8 6.3-2.3 1.6-4 5.9-4 8.7v5.8c-.1 1.1-1.4 3.8-.5 4.5 2.2 1.6 5.1 5.4 6.4 6.7 1.2 1 2.2-5.3 3-8 1-3 .6-6.7 3.2-9.4 1.8-2 6.4-3.8 6-4.6z"/>
            <path fill="currentColor" d="M257 201.9a10 10 0 0 0-1.6-2.6 6 6 0 0 0-2.4-1.8 5 5 0 0 1-2.4-1.5l-.8-1.5v-2l-.3.3c-2.3 1.6-4 5.9-4 8.7v2.3q.2.8.6 1.3l1.1.8 2.7.7a7 7 0 0 1 2.6 2 11 11 0 0 1 1.8 2.6l.2-.8c.8-2.7.7-5.9 2.6-8.5z"/>
            <path fill="none" d="M249.8 192.4c-.5 3.3 1.4 4.5 3.2 5.1 1.8.7 3.3 2.6 4 4.4m-11.7 1.5c.8 3 2.8 2.6 4.6 3.2s3.7 3 4.5 4.8"/>
            <path d="m255.6 184.5 1-.6 17.7 29.9-1 .6z"/>
            <path d="M257.5 183.3a2 2 0 1 1-4 0 2 2 0 1 1 4 0zm15.2-24h7.2v1.6h-7.2zm0 3.1h7.2v13.8h-7.2zm-.4-5h8c.2-2.7-2.5-5.6-4-5.6-1.6.1-4.1 3-4 5.6z"/>
            <path fill="currentColor" stroke="none" d="M292.6 155.8c-1.5.6-2.7 2.3-3.4 4.3s-1 4.3-.6 6.1q.1 1 .5 1.5.3.5.6.5.5 0 .7-.3l.2-.8q-.2-3 .3-5.4a8 8 0 0 1 3-4.4q.4-.3.5-.7l-.3-.7q-.7-.5-1.5-.1m.2.4q.6-.2 1 .1l.1.2-.3.4a8 8 0 0 0-3.1 4.6 17 17 0 0 0-.3 5.6l-.2.6s0 .1-.2 0l-.4-.3-.4-1.2q-.4-2.9.7-6 1.1-2.9 3-4z"/>
            <path fill="currentColor" stroke="none" d="M295.2 157.7q-2.3 1.2-3 4.2a14 14 0 0 0-.3 5.9q.5 2 1.6 2 .5.2.8-.3t.2-1q-.6-2.5-.3-5.1.4-2.6 2.2-4.1.5-.4.5-.8l-.2-.6q-.7-.5-1.5-.2m.2.5q.6-.2 1 0l.1.3-.3.4a7 7 0 0 0-2.4 4.4q-.4 2.8.2 5.2v.8l-.5.1c-.3 0-1-.5-1.2-1.7-.3-1.7-.2-3.9.3-5.7q.8-2.9 2.8-3.8"/>
            <path d="M272.3 187.4h8v11h-8zm.5 17.4h7.7v2.4h-7.7zm-.2 4.1h8v8.7h-8zm-.6 10.5h8.7v4.9H272zm1.1-16.6h7l1.4-2.4h-9.6zm9.4-8.6.1-6h4.8a17 17 0 0 0-4.9 6z"/>
            <path fill="none" d="M273.6 196.7c0 1.3 1.5.8 1.5.1v-5.6c0-1 2.4-.8 2.4-.1v6c0 1 1.7.9 1.6 0v-7c0-2.2-5.5-2.1-5.5-.1zm0 13.3h5.7v7h-5.7z"/>
            <path d="M277.2 213h2v1h-2zm-3.5 0h2v1h-2zm2-3h1.5v3h-1.5zm0 4h1.5v3.1h-1.5zM244 139c.4 5.5-1.4 8.6-4.3 8.1-.8-3 1-5.1 4.3-8.1zm-6.5 12.3c-2.6-1.3-.7-11.5.3-15.8.7 5.5 2 13.3-.3 15.8z"/>
            <path d="M238.4 151.8c4.4 1.5 8-3.2 9.1-8.7-3.6 5-9.5 5-9 8.7zm-3.3 5.1c-3.4-.9-1.4-11.7-.7-16 .7 4.5 3.1 14.5.7 16zm1.2-.3c.2-3.7 3.9-2.7 6.5-4.7-.5 2-2 5.2-6.5 4.7zm-4.2 5c-3.4-1-1.4-12.6-1.6-17.4 1 4.2 4.2 16.3 1.6 17.4zm1.6-.5c2.8.9 6.5-1 6.8-4.3-2.5 1.7-6.3.4-6.8 4.3z"/>
            <path d="M229.5 166.7c-3.2.3-1.8-9.6-1.8-18.8 1.2 8.6 4.5 16.5 1.8 18.8z"/>
            <path d="M230.7 166.3c2.2 1 6.1-.7 7.2-4.4-4 1.7-6.6 0-7.2 4.4zm25.6-22.2c-.6 4.9-2.6 7.7-5.5 7.2-.8-3 1.6-5 5.5-7.2zm-7.8 12.4c4.9.7 6.6-3 10-7.9-4.7 3.4-10.2 4-10 8z"/>
            <path d="M247 156c-2.6-3.2 0-7.3 2-10.7-.4 5.1 1.3 8-2 10.7zm-1 5.3c-.4-3.2 5-3.9 7.4-5.6-.9 1.8-2 6.7-7.5 5.6z"/>
            <path d="M244.8 161.3c-3.7-.4-2.2-6.7.5-10.1-1.1 4.8 2 8.1-.5 10.1z"/>
            <path d="M242 166.6c-4.2-2-1.5-7.2 0-10.3-.6 4.1 2.8 7.2 0 10.2z"/>
            <path d="M242.8 166c2.2 3 6.5-.8 7.4-5.2-3.7 3.1-6.5 2.6-7.4 5.3zm-9.6 20.3c-.4-4.3 2.8-12 .5-16.2-.3-.6.7-2.1 1.4-1.2 1 1.5 2 5.7 2.5 4.1s.5-4.6 2-5.2c1-.3 2.3-.6 1.9 1-.4 1.4-1.2 3.4-.3 3.5.5 0 2-2 3.3-3 1-.8 2.6.6 1 1.8-4.8 4-9.5 5.9-12.3 15.2zm-8.7 64.5c-.6 0-1.3-.3-.6.6 5.7 7 7.3 9 15.6 8 8.3-1.1 10.3-3.4 16.2-6.7a15 15 0 0 1 11.2-1c1.6.5 2.6.5 1.4-.7s-2.5-2.7-4-3.8a18 18 0 0 0-12.7-2.7c-6 1-11.1 4.9-17.2 6.4a25 25 0 0 1-9.9 0zm47.8 12.5c1 .2 1.7 2.2 2.3.9.8-2.3.2-4-.8-3.9-1.2.3-3.1 3-1.5 3z"/>
            <path stroke="none" d="M220.6 183q-1.8-2 1-1.9c1.4 0 4.2 1 5.3.1 1-.7.5-3.7 1-5 .2-.9.7-2 2-.2 3.6 5.8 8 12.8 10 19.6 1 3.8 0 9.8-3.4 13.8 0-3.4-1.2-5.7-2.7-8.6-2-3.7-9.1-14-13.2-17.9z"/>
            <path d="M235.5 213.4c4 0 4.7-5.3 4.7-6.8-2 .4-5.4 3.7-4.7 6.8zm34.5 51.9c2.8.6 2.7-6.2-.2-9.1 1.3 4.4-2 8.4.1 9zm-1.2-.1c.2 3.2-8-.4-10-3 4.8 2.1 9.8.4 10 3zm-3.5-4.6c.3 3.1-7 .3-9.3-2.1 4.9 1.6 9-.5 9.3 2zm1.3.4c2.9.7 2.4-6.4-.4-8.8 1.4 4.7-1.8 8.1.4 8.8zm-3-4.3c2.9.7 1.2-5.4-.9-7.8.4 4.4-1 7.5 1 7.8zm-1.5 0c.3 3.2-5.4.8-7.6-2.3 4.8 1.5 7.3-.3 7.6 2.3zm-1.5-2.5c1.8-1.3-.1-4.8-3.7-4.6.4 2.1 1.6 5.9 3.7 4.6zm14 14.7c.1 3.2-8 1.6-10.6-1.8 5.2 1 10.3-.8 10.5 1.8zm-32.4-5.8c.3 3.2-8.6-.4-10.8-3.4 4.7 1.6 10.5.8 10.8 3.4zm5.4 1.3c1.9-1.3-1.9-4.7-5-5.5.4 2.1 3 6.8 5 5.6zm.6 2.3c.2 2.9-9.5 1.3-12-1.4 8.3 1.5 11.7-1.1 12 1.4z"/>
            <path d="M252.8 268.6c1 2.7-8.3 2-11.6.5 5.3 0 10.8-2.4 11.6-.5z"/>
            <path d="M257.1 270.6c1 2.4-7.6 2.4-11.8 1 5.6 0 10.8-3.4 11.8-1zm6.3 1.3c1.6 2.9-7.6 3.1-10.5 1.7 5.2-.7 9.2-4 10.5-1.7zm-10.7-4.9c-2.9 1.8-2.7-3.6-5-7.3 3.6 3.3 7 5.6 5 7.3z"/>
            <path d="M257.9 269c-2.4 2.1-4.4-5.3-6.6-9.5 3.6 4 8.8 7.7 6.6 9.4zm6.8 2c-2 2.4-8-7-10.2-12 3.3 3.9 11.8 10 10.2 12zm-5.8 7.2c-1 3.6-16.2-3.4-18-7.1 8.8 4.6 18.2 3.6 18 7zm-48.7-73.8c-.4-.5-1.4 0-1.2 1.1.3 1.5 2.5 9.2 6.3 11.8 2.7 2 17 5.1 23.4 6.5q5.3 1 8.9 5.3a94 94 0 0 0-3-9.8c-1.2-3-4.4-6.2-7.8-6.3-6.1-.3-14.1-.8-20-3.3a16 16 0 0 1-6.7-5.3z"/>
            <path d="M245.5 234.9c2 1.4 4.1-3.7 1.7-8.6-.1 4.7-3.8 6.3-1.7 8.6z"/>
            <path d="M247.4 239.6c2.7.8 3.5-4 1.8-7.8.3 4.1-4.3 6.6-1.8 7.8z"/>
            <path d="M249.5 243.4c2.6 1.3 3.5-3.6 1.7-7.1.2 4.5-3.7 5.9-1.7 7z"/>
            <path d="M248.4 243.7c-1 3-7-2.7-8-5.8 3.7 3.7 8.7 3.2 8 5.7z"/>
            <path d="M245.7 239c-1.2 3-8.7-5-10.4-8.7 3.7 3.7 11.2 6.5 10.4 8.6z"/>
            <path d="M244.2 234.3c-1.2 3.5-9.3-5.8-11.7-9.1 4 3.6 12.6 6.6 11.7 9.1zm-.3-3.4c3-.6-.1-3-3.7-6.9-.1 4.1.5 7 3.7 6.9z"/>
            <path d="M239 228.5c1.3-1.3-1.1-1.9-4.1-5.3-.5 2.3 2.8 6.5 4.2 5.3zm14 15.2c1.6 1 2.6-2.3.7-5.2-.5 3.2-2.1 4-.7 5.2zm-34.2-20.3c-3.3 2-8.6-6-10-9.3 2.9 3.8 10.6 7.2 10 9.3z"/>
            <path d="M221.7 228c-1.9 2-7.7-3.5-9.7-6.3 3 2.7 10.5 3 9.7 6.3z"/>
            <path d="M224.8 232.2c-.6 2.8-9-3.5-11-6.5 3.6 3.5 11.6 3.2 11 6.5z"/>
            <path d="M223.5 235.3c-1.3 2.5-8.2-3.8-9.9-7 4.3 3.6 11 4.5 10 7zM220 223c2.1-2.3 1.2-3.4-.4-7-.8 3.7-2.1 5.2.4 7zm2.9 4.3c4 .2 0-4.6-1-8.7.4 4.6-1 8.3 1 8.7z"/>
            <path d="M225.4 231.1c2.7-.6 2-4.5-.2-9.2.5 5.1-2.3 8 .2 9.2zm-1 7.7c-1 3-8.8-4-10-6.8 4 3.4 10.7 4.5 10 6.8z"/>
            <path d="M229.1 243.6c-1.1 3-9.3-3.2-11.8-6.6 4.9 4 12.4 3.6 11.8 6.6z"/>
            <path d="M233.9 248.5c-1.3 4.3-9.9-2.6-12.4-6 5.4 4.2 13 3 12.4 6zm-8-11c2.3 1.1 3.2-5.4 1.9-10.1 0 5-4.7 8.8-2 10z"/>
            <path d="M229.8 242.7c2.8.8 2-6.3-.5-11-.3 4.7-2.3 9 .5 11zm5 4.9c3 .1 1-6.1-1.6-9.6.4 4.5-1 9 1.6 9.6zm-5.5 2.6c-1 1.6-3.2-1.3-7-3.5 3.4 1 7.4 2 7 3.5zm-1.8-52.7c3-2.2.7-6.2 0-10-1 3.6-3.4 8.4 0 10zm0 5.3c-4.5-.5-3.8-6.1-4-9.7 1.4 4.9 5 5.7 4 9.8zm.6-.7c3.7-.2 3.5-4.4 3.7-8.6-1.9 3.9-4 4.5-3.7 8.6z"/>
            <path d="M228 207.3c-3 .3-4.4-2.6-5-7 2.7 4.1 5.1 2.8 5 7zm1-.3c3.7.5 3-3.8 3-7-1.2 3-4.2 4-3 7z"/>
            <path d="M223.2 205.2c.3 2.8 2.1 7.6 5 6.5 1.1-3.4-2.6-4.1-5-6.5z"/>
            <path d="M229 212c-1.2-2.4 3-3.7 3.8-6.9.5 4.6.1 7.6-3.8 7zm-11.9-29.2c2.3-2.4.3-6.4-.4-10.2-1 3.6-2.5 8.4.4 10.2zm0 4.6c-4 .5-5-7.7-5.5-11.3 1.4 4.9 6 7 5.5 11.4zm.8 0c2.8-1.5 2.2-4.7 3-7-1.8 2.9-3.6 3.3-3 7z"/>
            <path d="M217 192.8c-4.1.3-6.6-8.8-6.8-12.4 1.3 4.9 7.4 7.5 6.9 12.4zm.9-.2c4-.9 3.5-3.5 2.9-7.6-1.3 4.2-3.5 3.3-2.9 7.6z"/>
            <path d="M217 198c-4.6.8-4.3-6.6-8-11.9 3.2 4 9 9 8 11.9zm1-.3c3.6.2 4-5.1 3.8-7.3-.9 2.2-5 4.2-3.7 7.4z"/>
            <path d="M209.8 192.3c1.7 5.7 4.2 11.4 7.2 11 1.5-3.3-2.9-3.7-7.2-11z"/>
            <path d="M218.1 202.4c-1.2-2.5 3-3.7 3.8-6.9.5 4.6.1 7.6-3.8 6.9zm-7.1-3.6c2.5 5.1 3.6 11 7 10.1 1.3-4-3.8-4.8-7-10.1z"/>
            <path d="M218.7 208c-1.5-2.8 2.7-3.7 3.8-7.4.5 4.8 0 8.3-3.8 7.3zm7.2-34.5c2.4.6 5-2.1 4.1-6.2-2.8.6-4 3.2-4.1 6.2zm-7.9-2.1c.2 1.2 1.7 1.3 1.2-.4a5 5 0 0 1 0-3.4 8 8 0 0 0 0-4.6c-.4-1-1.8-.4-1.2.4s.7 2.8.2 3.7q-.7 2.2-.2 4.3zm22.9 16c-1 1.3-2.9.4-1.4-1.5 1.2-1.5 3-2.8 3-4.4.2-2 1.3-5 2.4-6.1s2.4.4 1.2 1.2c-1.3.8-2.2 4.4-2.1 5.8-.1 2-2 3.5-3.1 5zm-3-2.3c-1 1.4-2.4.5-1.6-1.7.7-1.5.8-3.5 1.6-4.6 1.2-1.7 3-3.1 4.1-4.2 1.2-1 2 0 1 1a27 27 0 0 0-3.3 4c-1.4 2.2-.8 4-1.8 5.5zm-15.7-7.2c-.1 2 1.5 2.4 1.4-.4 0-3-2.2-5.8-1-10.3.8-2.2.8-6.3.4-8.4s-2-.8-1.3.9c.6 2-.1 5.6-.6 7.5-1.5 5.4 1.2 8 1 10.7zm4.3-11c-.2 1.9-1.8 2-1.3-.5q.6-2.9 0-5.3c-.6-2.1-.4-5.7 0-7.2.5-1.6 2-.7 1.4.5a10 10 0 0 0-.3 5.9c.6 2 .5 4.8.2 6.7zM210.9 204c.8.9 2 .3 1-1-1-1-.7-1.2-1.3-2.4-.6-1.4-.5-2.1-1.2-3-.7-1-1.6 0-1 .7.8 1 .6 1.6 1 2.5 1 1.5.7 2.3 1.5 3.2zm20.4 24.6a9 9 0 0 1 4.4 6.7 16 16 0 0 0 2 7.1c-2-.5-3-3.7-3.3-6.8-.3-3.2-2-4.5-3-7zm5.1 5.9c1.7 3.1 4 4.3 4.2 6.6.2 2.7.4 2.8 1.1 5.4-2-.5-2.5-.7-3-4.7-.3-2.8-2.6-4.7-2.3-7.3z"/>
            <path stroke="none" d="M289 263.3c1 1.8 2 4.5 4 4 0-1.3-2.1-2.3-4-4m3 .6c3.7 1.6 7 1.2 7.5 3.6-3.6.4-5-1-7.6-3.6zm-16.1-12.7a14 14 0 0 1 5 7.7 29 29 0 0 0 3.6 7.8 13 13 0 0 1-5.3-7.4c-.7-3-1.6-5.3-3.3-8zm3.1 0c2.8 2.2 5.4 4.8 6.2 7.9.8 2.9 1.3 5.1 3.2 8-3-1.9-4.1-4.7-5-7.8-.7-3-2.5-5.2-4.4-8zm9.2 7.3a1 1 0 0 1 .7-1.2l2.6-.8c1-.3 1.6.4 1.6.9v2q0 .9-.7.9-1.2 0-2.4.7-1 .5-1.5-.5zm10.6 0q0-1-.6-1.2a5 5 0 0 0-2.4-.4q-1.3 0-1.1.6v2.1c0 .8 0 .8.4 1q1.3-.1 2.5.6.9.4 1.1-.6z"/>
          </g>
          <use xlink:href="#af-a" width="100%" height="100%" x="-600" transform="scale(-1 1)"/>
          <g stroke="none">
            <path d="M328.5 286.6q-.1 1.8 1 3.1a19 19 0 0 0-13.8 1.1c-1.8.8-4-1-1.9-2.7 3-2.3 9.7-1 14.7-1.5m-57.5 0a7 7 0 0 1-.4 3c4.4-1.7 9.1-.2 13.6 1.6 3 1.3 3.3-1 2.8-1.7a7 7 0 0 0-5-2.9zm3.8-21.7q-2-.7-4 1.4c-4.3 4.2-9.4 8.3-13.5 11.6-1.5 1.3-3 3.7 3.4 6 .3.2 5 2 8 2 1.3 0 1.3 1.8 1 2.3-.5 1-.1 1.4-1.1 2.3-1.1 1 0 2.1 1 1.3 3.6-3.2 9.6-1.1 15.3.7 1.4.4 3.8.3 3.8-1.6s1.5-3.4 2.4-3.5c2.4.4 14 .5 17.5.1 2-.3 2.2 2.9 3.3 4 .8.9 3.7 1.1 5.8.2 4-1.8 10-1.8 12.5 0 1 .7 1.9 0 1.3-.7-.8-1-.7-1.6-1.1-2.4-1-2-.2-2.4.8-2.5 11-1.5 14.6-5.2 11.2-8.3-4.4-3.8-9.2-7.7-13.4-12.2-1.2-1.2-2-1.7-4.3-.7a67 67 0 0 1-25.3 5.9 76 76 0 0 1-24.6-5.8z"/>
            <path fill="currentColor" d="m326.6 265.5-1.6.4c-9 3.2-17.2 5.4-25.7 5.4-8.3 0-17-2.4-24.9-5.6a2 2 0 0 0-1.5 0q-.8.2-1.3.7a116 116 0 0 1-11.8 10.3c-.7.5-.6 1.8.5 2.2 8.3 3 16.4 8.5 39.6 8.3 23.5-.2 31.8-5.6 39.2-8.1q.8-.3 1.3-1l.1-.8-.6-.8c-4.3-3.5-8.8-6.3-11.8-10.4q-.5-.7-1.5-.5zm0 .5q.9 0 1.1.3c3 4.3 7.7 7 11.9 10.5l.4.7v.4q-.3.5-1 .7c-7.6 2.6-15.7 8-39 8.2-23.2.2-31.2-5.3-39.5-8.3-.8-.4-.7-1.2-.4-1.4q6.4-4.9 11.8-10.4l1.1-.6h1.2a68 68 0 0 0 25 5.6c8.7 0 17-2.2 26-5.3l1.5-.4z"/>
            <path d="M269.7 114.6c0-1.4 2-1.5 1.8.4-.3 2.3 4.5 8.3 4.9 12 .3 2.5-1.5 4.6-3.2 6a7 7 0 0 1-6.8.5c-.9-.8-1.7-3.3-1-4.3.2-.3 1.3 3.7 3.7 3.7 3.3 0 6-2.5 6-4.7.2-3.8-5.3-9.8-5.4-13.6m9.5 9.4c.6-.4 1.4 1.3.8 1.7s-1.5-1.3-.8-1.8zm1.5-3.5c-.3.2-.8 0-.7-.2a12 12 0 0 1 3.6-3.3c.4-.2 1 .4.8.7a11 11 0 0 1-3.7 2.8m12.6-10c.3-.6 2.1-1.3 2.6-1.7.4-.5.6.4.4.7-.3.7-1.9 1.7-2.6 1.8q-.6-.1-.4-.7zm4.3.3a8 8 0 0 1 2.5-3.4c.5-.3 1.3 0 1.1.4a9 9 0 0 1-2.9 3.3c-.3.3-.8 0-.7-.3m-3.7 2.7q-.3.5.1.8 1 .3 2 0c.6-.4.3-2.9-.5-1.6-.6.8-1 .6-1.6.8m-7.3 5.6c-1.3-1 .4-2.4 1.7-1.4 2.7 2-4 9.8-7.6 13.4-.7.7-1.3-1-.4-1.9a34 34 0 0 0 6.7-7.6c.4-.5.7-1.6-.4-2.5m15.3-6.6c.1-1-1.6 0-1.6-1.3 0-.7 1.9-1.2 2.7-.4 1.3 1.4.3 3.7-2 3.9-1.8 0-5 2.7-4.5 3.2.5.7 5.4 1.1 8.3.7 1.8-.3 1.4 1.3-.4 1.5s-3.2 0-4.8.6c-2 .5-2.8 3-3.9 4-.2.2-.8-.8-.6-1.2.8-1.2 2-3 3.4-3.6.8-.3-2.4-.4-3.4-.7-.8-.2-.6-1.3-.3-1.9.4-.8 3.4-3.9 4.7-3.8 1.1 0 2.3-.3 2.4-1m5 .2 1.5-1.8c.3-.3.9 0 .8.8-.1.7-1 1.2-1.5 1.7-.5.3-1-.4-.7-.7zm6.5-2.3c.9 0 1 1.6.2 1.8-.6.2-1-1.7-.2-1.8m-2.1 5c0 1.5.7 1.4 2 1.3s2.4 0 2.4-1.2c0-1.3-.7-2.5-1-1.6-.1.8-.3 2.2-.8 1.6-.4-.5-.2-.6-1 .2-.5.5-.5-.2-.8-.6-.2-.3-.8.2-.8.4zm-9.2 7.2c-.3 1.9 0 4.5.9 4.5 1.2 0 3.6-4 4.8-6.2.7-1.2 1.8-1.4 1.3-.1-.7 1.9-.6 6 0 7.2.4.6 3-.6 3.4-1.5.8-1.7.1-4.8.4-6.7.1-1.2 1.3-1.5 1.2-.3l-.1 7.5c0 1 2.9 2.4 3.3-.6.2-1.8 1.2-3.7 0-5.7-.8-1.3 1.1-1.2 2.1.6.7 1.2-.6 3.2-.5 4.7 0 2.4-1.8 3.8-3.1 3.8-1.2 0-2-1.5-3-1.5s-2.2 1.7-3 1.6c-3.6-.2-1.7-5.3-2.8-5.4-1.2 0-2.5 5-4 4.9-1.4-.2-3-4.2-2.3-5.8.5-1.6 1.5-2 1.4-1m16.9-8c-1.7-1 0-3.7.9-2.8 1.6 2 3.2 6.5 4.4 6.9.7.2.6-3.4 1.1-5 .4-1.3 1.8-.9 1.6.7-.1.5-2 6.4-1.8 6.6a47 47 0 0 1 3.3 7.8c.3 1.2-1.1.4-1.3.2-.9-1.4-2.4-6.5-2.4-6.2l-1.7 7.7c-.2 1-1.7.8-1.3-1 .3-1.4 2.3-8.3 2.2-8.6a17 17 0 0 0-5-6.3"/>
            <path d="M322 131.2c-.4 0-1.2 1 1.2 1.5 3.1.6 6.6-.5 7.6-3.6 1.3-3.7 2-7.2 2.7-8.5.8-1.5 1.8-1.4 1-3.6-.5-1.7-1.5-1.2-1.7-.3-.5 2.3-2.6 10-3.3 11.3q-1.8 3.8-7.5 3.2"/>
            <path d="M328.4 119c-.4-.7-1.2 0-1 .7a1 1 0 0 0 1.2 1c.7 0 2.2.1 2.2-1 0-.8-.7-1.5-1.1-.6q-.8 1.1-1.3 0zm.7-3c-.2.2 0 1.1.3 1a7 7 0 0 0 3.3-.8c.2-.2.1-.7-.2-.7-1 0-2.6 0-3.4.5m8.8 2.3c.8-1.2 2.8-1.3 2 .4l-6.3 12.3c-.8 1.4-1.4.7-.8-.4.7-1.4 4.9-12 5.1-12.3"/>
            <path d="M330.2 133c-.2-.8-1.5-2-1.3.2.2 3.8 5.5 2.6 7 1.3s.3 4.3 2.2 4.9c1 .3 3-1.1 4-2.4 2.7-3.5 4.5-8.6 7-12 1-1.4-.5-2.4-1-1.3-2.4 3.8-5.2 11.6-8.3 13.6-2.5 1.6-1.7-2-1.8-3.2-.1-.8-1.1-2-2.4-.9a6 6 0 0 1-3.7 1.2c-.7 0-1.4 0-1.7-1.4"/>
            <path d="M339.6 126c0-.3-1.1-.4-1 .7 0 .8 1 1 1.1 1 1.5-1.2-.3-.6-.1-1.8zm-2.3 4.4c-.3 0-.6 1 .2 1.1l3.9-.2c.4 0 .6-.9-.4-.8-1.2 0-2.7-.3-3.7 0zm-62-16.6c.5 0 1.6 1.4 1.5 1.9 0 .2-1.2 0-1.5-.3s-.2-1.6 0-1.6m-5.3 10.4c-1 .6.2 1.7 1 1.2 2.8-1.9 7-3.8 8-7.5.3-1.2 1.4-3.1 2.5-3.5 1-.5 2.6 1.9 3.6 0 .6-1 2.7.7 3.2-.4.6-1.3.3-2 .3-3.4 0-.8-.7-1-1.2.3l-.1 1.6q-.4.4-1 .2c-.2-.2 0-.7-.6-1q-.4-.1-.8.2c-.7 1.3-1 2.5-2.1 1-.9-1-1.4-3.1-2-.3-.2 1-1.7 2.4-2.6 2.4-1.1 0-.8-3-3.2-2.5-1.3.3-1.2 2.7-1 3.5.3 1.3 4 .4 3.7 1.2-.6 2.7-4.4 5.4-7.7 7m-22.7 13.2c-.1.5.5 1.7 1.1 1.8.6 0 1-1.3.8-1.8-.2-.3-1.8-.3-1.9 0m3.3 4.9c-.4-.4-1.6.7-.6 1.5.5.5 2.5 1.1 3 .2.8-1.2-.7-5.5 0-6 .5-.5 2.8 2.8 4 3 2.7.4 2-4.6 5-4.2 1.9.2 2.1-2.2 1.8-3.8-.2-1.5-2.6-3.6-3.7-4.6-1.4-1.2-2.1 1-1.2 1.6 1.2 1 3.3 2.9 3.6 4.1.1.6-1.4 1.8-2 1.5-1.4-.8-2.6-4-3.8-4.7-.4-.2-1.4.3-1 1.3.6 1.1 3 2.7 3.1 3.9.1 1-1 3.2-1.8 3.2s-3-2.7-3.7-4c-.4-.5-1.5-.5-1.7.4a22 22 0 0 0 .5 5.5c.2 1.6-.9 1.7-1.5 1.1m-4-8.6c-.4.4.8 1.2 1 1 .4-.4 2.1-2.3 1.8-3-.3-.6-2.6-2-3-1.3-.7 1.1 2.2 1.7 1.7 2zm4.1-8.4s.8 2.5 1.4 1.4c.4-.7-1.4-1.4-1.4-1.4m1.2 4c-.2 0-1 .7-.5 1 .8.4 2.9.8 2.4-.7-.3-.9 3.2 0 2.3-2.4a4 4 0 0 0-1.7-1.7c-.4 0-1.5.5-.8.9.5.2 2 1.1 1.5 1.7-.7.6-1.1-.3-1.9-.1-.4 0-.1 1.2-.4 1.5 0 .2-.7-.4-.9-.3zm5.5-9.5a4 4 0 0 0-1.2 2q.1.5.5.5a3 3 0 0 0 1.2-1.9c0-.3-.2-.8-.5-.6m2.8-.3c-.8-1 1-2.6 1.7-.5.5 1.3 5.5 7.9 6.5 10.1.8 1.5 0 2.1-.9 1-2.5-3.2-4.6-7.2-7.3-10.6m5.2.1c.9-1 2.7-3 2.2-4s-1.5-1-1.7-.7c-1 1.3.8 1 .5 1.4q-.8 1.3-1.3 2.6c-.1.3.1.9.3.7m77.8 3.2c-.7-.5.6-3 1.5-2 2.3 2.7 3.4 11.6 4.1 18.3 0 0-1 .9-1 .7 0-3.5-1.5-14.4-4.6-17m-53.1-8.6c-.8-1.8 1.1-2.4 1.4-1.2 1.3 5.8 4.5 10.2 7 14.1.7 1.2 0 2-1.7.8-1.2-.8-2.5-3.9-3-4-1.2-.2-3.8 5-9.1 3.5-1.4-.4-1.3-4.5-1.4-6.3 0-.9 1-1 1 0 0 1.7 0 5.2 2.1 5.4 1.8 0 5.6-2.4 6.4-4.4s-1.9-5.9-2.7-8z"/>
            <path d="M344.6 138.4c.4-1.2 6.1-10.8 6.9-12.9.4-1 2 1.8.4 3.3-1.4 1.2-5.5 8-6.3 10.4-.4 1-1.4.5-1-.8"/>
            <path d="M354.3 129.3c1-4 3.6.6 1.3 2.8-3.4 3.4-4.5 9.9-10 10.9-1.4.3-4-.7-4.8-1.3-.3-.2.2-1.6 1.1-.9 1.3 1 4.1 1.3 5.6.1a25 25 0 0 0 6.8-11.6m-57 12.7c-.3.3-1 .3-1.1.7-.3 1.4 0 2.2-.3 3.6s-1.3 1.4-1.2.3c0-1.4 1.3-3.5.4-3.6-.6-.1-1-.9-.4-1.3q1.5-.9 2.4-.4.5.3.2.7"/>
            <path d="M296.5 140c-1.4 1.4-2.8 1.9-4.1 3.5-.6.6-.5 1.5-.9 2.4-.3.9-1.4 1-1.7.9-.5-.4-.4-2-1-1.2s-.9 2-1.7 2-2-1.5-1.3-1.5c2.3-.3 2.2-2 3-2.2 1-.1 1 1.5 1.7 1.2.4-.2.7-2.1 1.2-2.6 1.5-1.6 2.7-2.4 4.3-3.6.7-.6 1.3.5.5 1.2zm5.3 5c-1.2.2-1 1.7-.6 1.8.5.3 1.4.4 1.7-1.3.2-.7.3 3.5 1.8 1.9 1-1 3.1.2 4-1 .7-.9 1-1.5.4-2.7-.2-.3-1-.2-1 .7s-.5 1.7-1.3 1.6c-.4-.1.2-1.9-.2-2.4h-.7c-.3.4.3 2.2-.6 2.4-1.2.2-.6-1.2-1-1.4-1.7-.8-1.8.2-2.5.3zm9-3c.9-.2.6-.2 2-1.3.5-.4.6.8.5 1.3 0 .7-1 .2-1.3.9-.4.9-.2 3-.4 3.8 0 .4-.8.4-.8 0-.2-1 .1-2 0-3.3 0-.4-.5-1.1 0-1.3zm-5-2.5-.2 2.3c0 .5 1 .2 1 .1 0-.8.2-2 0-2.3q-.5-.3-.8-.1"/>
            <path d="m299.5 130.2-1.4 5.6-2-3.8v3.9l-4.4-5.2 1.5 5.6-4-3.4 2.2 3.8-7-4.5 4.4 5.2-5.6-2.8 4 3.4-9-3.4 8.7 4.3a29 29 0 0 1 12.6-2.6q7.5.1 12.5 2.6l8.8-4.3-9 3.4 4-3.4-5.5 2.8 4.3-5.2-7 4.5 2.2-3.8-4 3.3 1.5-5.5-4.3 5.2V132l-2 3.8z"/>
          </g>
        </g>
        <path fill="currentColor" d="m311.3 295-.3 2.6h-.4l-.1-1.8-.5-1.6-.5-1.3-1-1.4.8-2.2a7 7 0 0 1 1.5 2.4 9 9 0 0 1 .5 3.2m7-4.2q0 1-.5 1.5-.3.5-1.3.7l.4 1.5v2l-.1 1.3h-.4l-.1-1.3-.2-1-.4-1-.7-1.4-1-1.7.6-2 1 1q.4.3 1 .3 1.2 0 1.2-1.3h.4v1.4m6.4 4.8-.5 2.1q-.6 0-.8-.7l-.4-1.3-.1-1.7-1 .2a2 2 0 0 1-1.3-.4 1 1 0 0 1-.5-1q0-1.4.7-2.3.8-1 1.5-1.1.7 0 1 .4l.3.9v2q0 1.3.3 1.9 0 .4.8 1m-2-3.5q0-.9-.8-.8l-.6.1q-.2.1-.2.3 0 .5 1 .5zm8.7 3-.3 2.6q-.8-.5-1.4-2l-1.3-4.1-1.8 5.5-.8.7v-2.5q.9-1 1-1.5l.8-1.7.5-2.7h.4l.9 2.7q.3 1 .9 1.6l1 1.4"/>
        <path fill="currentColor" d="M350.8 319.4q.6.6.7 1.2l.4 1.6-.8.1-1-1.5-1.1-1.2-1.7-1.5-2-1.7q-.6-.3-.6-.5l-.3-.8-.2-1.6 2.7 2.2 2.5 2.2zm-9.5-5.8-.2 2H338l.3-2zm8.4 8.9-7.6 2.3-1.3-2 6.5-2-.7-.8-.9-.6a1 1 0 0 1-.4 1l-1 .6a3 3 0 0 1-1.8 0 2 2 0 0 1-1.3-.7 4 4 0 0 1-.7-2.2q0-1.5.9-1.8 1.1-.3 3 .7a8 8 0 0 1 3 2.4zm-5.8-4-.8-.3h-.6l-.5.3v.6l.5.2h.6l.4-.3zm-8-1.6-.5 2-3.2-.3.5-2zm7.5 7.7-1.7.4H340l-1.5-.4q-.5.8-1.5 1.2l-1.6.6-1.2.3-1-2 1.1-.3 1.3-.4.9-.5-1-.5h-.9l-.2.3h-.5q-.8-1.2-.3-2c.5-.8.9-.8 2-1a7 7 0 0 1 2.6-.2q1.2.1 1.5.9.2.3.2.7l-.4 1.2h1.1l1.7-.3zm-8 1.8-1.6.3a3 3 0 0 1-2.2-.4 6 6 0 0 1-1.7-2.6l-.8-2.2a2 2 0 0 0-.8-1l-.9-.5.6-2.1q.9.4 1.4 1l1 1.7.5 1.5 1.1 2.2q.5.4 1 .3l1.7-.2zm-7-7.5-1 1.9-3-.7 1-1.9zm1.8 8.4-7.5.7-.4-2 6.2-.7-.6-.8-1-.6.5-2q1 .6 1.6 1.3.5.8.8 2.1zm-6 1-2.2-.2-1.7-.5-1.3.4h-3.7l-1.2-.3q-.4-.3-.8-1a4 4 0 0 1-1.5 1l-1.7.1h-1.7l.2-2.1h1.7q1.2.1 2.1-.4a2 2 0 0 0 1.3-1.8l.7.1-.1 1.3q0 .4.3.7.4.3 1 .3h1.5q1.5 0 2-.2.9-.2 1-1.1l.1-.4s.3 0 .5-.2l.5-.2v.7l-.3 1.1 2 .5q.1-.3-.1-.7l-.3-.6.1-.3.3-.2 1-.9.5 1v1zm-11.3-8.7-2 1.3-1.3-.9-1.4 1-1.9-1 1.8-1.3 1.5.8 1.5-1 1.8 1m-3 8.2-7.3-1.2.8-2 6.2 1q0-.6-.2-1l-.5-.8 1.6-1.7q.6.8.7 1.6t-.5 2.1zm-6.1-1-1.6-.3q-1.3-.3-1.5-1.2-.3-.9.8-2.8l1.2-2q.4-.7.3-1.2l-.3-.7 2.2-1.6q.4.8.3 1.4 0 .8-.7 1.8l-.8 1.4a6 6 0 0 0-.9 2.2q0 .6.5.7l1.6.4zm-3.8-8-2.5 1.1-1.8-1.7 2.6-1zm-1 6.6-1.6 1.4-1.7.6-2.4-.1-2.8-.7a8 8 0 0 1-3.4-2q-.9-1.2 0-2.2a7 7 0 0 1 2-1.6q1.1-.7 3.8-1.6l.4.5-2.8 1.2q-.8.4-1.3 1t.2 1.6a11 11 0 0 0 6.3 2.2q1.8 0 2.3-.7.4-.4.5-1l.2-1.6 2.5-1.5-.1 1.5a4 4 0 0 1-1 1.6z"/>
    </symbol>
    <symbol id="flag-al" viewBox="0 0 640 480">
        <path fill="red" d="M0 0h640v480H0z"/>
        <path id="al-a" fill="currentColor" d="M272 93.3c-4.6 0-12.3 1.5-12.2 5-13-2.1-14.3 3.2-13.5 8q2-2.9 3.9-3.1 2.5-.3 5.4 1.4a22 22 0 0 1 4.8 4.1c-4.6 1.1-8.2.4-11.8-.2a17 17 0 0 1-5.7-2.4c-1.5-1-2-2-4.3-4.3-2.7-2.8-5.6-2-4.7 2.3 2.1 4 5.6 5.8 10 6.6 2.1.3 5.3 1 8.9 1s7.6-.5 9.8 0c-1.3.8-2.8 2.3-5.8 2.8s-7.5-1.8-10.3-2.4c.3 2.3 3.3 4.5 9.1 5.7 9.6 2 17.5 3.6 22.8 6.5a37 37 0 0 1 10.9 9.2c4.7 5.5 5 9.8 5.2 10.8 1 8.8-2.1 13.8-7.9 15.4-2.8.7-8-.7-9.8-2.9-2-2.2-3.7-6-3.2-12 .5-2.2 3.1-8.3.9-9.5a274 274 0 0 0-32.3-15.1c-2.5-1-4.5 2.4-5.3 3.8a50 50 0 0 1-36-23.7c-4.2-7.6-11.3 0-10.1 7.3 1.9 8 8 13.8 15.4 18s17 8.2 26.5 8c5.2 1 5.1 7.6-1 8.9-12.1 0-21.8-.2-30.9-9-6.9-6.3-10.7 1.2-8.8 5.4 3.4 13.1 22.1 16.8 41 12.6 7.4-1.2 3 6.6 1 6.7-8 5.7-22.1 11.2-34.6 0-5.7-4.4-9.6-.8-7.4 5.5 5.5 16.5 26.7 13 41.2 5 3.7-2.1 7.1 2.7 2.6 6.4-18.1 12.6-27.1 12.8-35.3 8-10.2-4.1-11 7.2-5 11 6.7 4 23.8 1 36.4-7 5.4-4 5.6 2.3 2.2 4.8-14.9 12.9-20.8 16.3-36.3 14.2-7.7-.6-7.6 8.9-1.6 12.6 8.3 5.1 24.5-3.3 37-13.8 5.3-2.8 6.2 1.8 3.6 7.3a54 54 0 0 1-21.8 18c-7 2.7-13.6 2.3-18.3.7-5.8-2-6.5 4-3.3 9.4 1.9 3.3 9.8 4.3 18.4 1.3s17.8-10.2 24.1-18.5c5.5-4.9 4.9 1.6 2.3 6.2-12.6 20-24.2 27.4-39.5 26.2-6.7-1.2-8.3 4-4 9 7.6 6.2 17 6 25.4-.2 7.3-7 21.4-22.4 28.8-30.6 5.2-4.1 6.9 0 5.3 8.4-1.4 4.8-4.8 10-14.3 13.6-6.5 3.7-1.6 8.8 3.2 9 2.7 0 8.1-3.2 12.3-7.8 5.4-6.2 5.8-10.3 8.8-19.9 2.8-4.6 7.9-2.4 7.9 2.4-2.5 9.6-4.5 11.3-9.5 15.2-4.7 4.5 3.3 6 6 4.1 7.8-5.2 10.6-12 13.2-18.2 2-4.4 7.4-2.3 4.8 5-6 17.4-16 24.2-33.3 27.8-1.7.3-2.8 1.3-2.2 3.3l7 7c-10.7 3.2-19.4 5-30.2 8l-14.8-9.8c-1.3-3.2-2-8.2-9.8-4.7-5.2-2.4-7.7-1.5-10.6 1 4.2 0 6 1.2 7.7 3.1 2.2 5.7 7.2 6.3 12.3 4.7 3.3 2.7 5 4.9 8.4 7.7l-16.7-.5c-6-6.3-10.6-6-14.8-1-3.3.5-4.6.5-6.8 4.4 3.4-1.4 5.6-1.8 7.1-.3 6.3 3.7 10.4 2.9 13.5 0l17.5 1.1c-2.2 2-5.2 3-7.5 4.8-9-2.6-13.8 1-15.4 8.3a17 17 0 0 0-1.2 9.3q1.1-4.6 4.9-7c8 2 11-1.3 11.5-6.1 4-3.2 9.8-3.9 13.7-7.1 4.6 1.4 6.8 2.3 11.4 3.8q2.4 7.5 11.3 5.6c7 .2 5.8 3.2 6.4 5.5 2-3.3 1.9-6.6-2.5-9.6-1.6-4.3-5.2-6.3-9.8-3.8-4.4-1.2-5.5-3-9.9-4.3 11-3.5 18.8-4.3 29.8-7.8l7.7 6.8q2.3 1.5 3.8 0c6.9-10 10-18.7 16.3-25.3 2.5-2.8 5.6-6.4 9-7.3 1.7-.5 3.8-.2 5.2 1.3 1.3 1.4 2.4 4.1 2 8.2-.7 5.7-2.1 7.6-3.7 11s-3.6 5.6-5.7 8.3c-4 5.3-9.4 8.4-12.6 10.5-6.4 4.1-9 2.3-14 2-6.4.7-8 3.8-2.8 8.1 4.8 2.6 9.2 2.9 12.8 2.2 3-.6 6.6-4.5 9.2-6.6 2.8-3.3 7.6.6 4.3 4.5-5.9 7-11.7 11.6-19 11.5-7.7 1-6.2 5.3-1.2 7.4 9.2 3.7 17.4-3.3 21.6-8 3.2-3.5 5.5-3.6 5 1.9-3.3 9.9-7.6 13.7-14.8 14.2-5.8-.6-5.9 4-1.6 7 9.6 6.6 16.6-4.8 19.9-11.6 2.3-6.2 5.9-3.3 6.3 1.8 0 6.9-3 12.4-11.3 19.4 6.3 10.1 13.7 20.4 20 30.5l19.2-214L320 139c-2-1.8-8.8-9.8-10.5-11-.7-.6-1-1-.1-1.4s3-.8 4.5-1c-4-4.1-7.6-5.4-15.3-7.6 1.9-.8 3.7-.4 9.3-.6a30 30 0 0 0-13.5-10.2c4.2-3 5-3.2 9.2-6.7a86 86 0 0 1-19.5-3.8 37 37 0 0 0-12-3.4zm.8 8.4c3.8 0 6.1 1.3 6.1 2.9s-2.3 2.9-6.1 2.9-6.2-1.5-6.2-3c0-1.6 2.4-2.8 6.2-2.8"/>
        <use xlink:href="#al-a" width="100%" height="100%" transform="matrix(-1 0 0 1 640 0)"/>
    </symbol>
    <symbol id="flag-cn" viewBox="0 0 640 480">
        <defs>
          <path id="cn-a" fill="currentColor" d="M-.6.8 0-1 .6.8-1-.3h2z"/>
        </defs>
        <path fill="currentColor" d="M0 0h640v480H0z"/>
        <use xlink:href="#cn-a" width="30" height="20" transform="matrix(71.9991 0 0 72 120 120)"/>
        <use xlink:href="#cn-a" width="30" height="20" transform="matrix(-12.33562 -20.5871 20.58684 -12.33577 240.3 48)"/>
        <use xlink:href="#cn-a" width="30" height="20" transform="matrix(-3.38573 -23.75998 23.75968 -3.38578 288 95.8)"/>
        <use xlink:href="#cn-a" width="30" height="20" transform="matrix(6.5991 -23.0749 23.0746 6.59919 288 168)"/>
        <use xlink:href="#cn-a" width="30" height="20" transform="matrix(14.9991 -18.73557 18.73533 14.99929 240 216)"/>
    </symbol>
    <symbol id="flag-dz" viewBox="0 0 640 480">
        <path fill="currentColor" d="M320 0h320v480H320z"/>
        <path fill="currentColor" d="M0 0h320v480H0z"/>
        <path fill="currentColor" d="M424 180a120 120 0 1 0 0 120 96 96 0 1 1 0-120m4 60-108-35.2 67.2 92V183.2l-67.2 92z"/>
    </symbol>
    <symbol id="flag-im" viewBox="0 0 640 480">
        <defs>
          <clipPath id="im-a">
            <path fill-opacity=".7" d="M-77.6 0H605v512H-77.6z"/>
          </clipPath>
        </defs>
        <g clip-path="url(#im-a)" transform="translate(72.8)scale(.94)">
          <path fill="currentColor" fill-rule="evenodd" d="M629.4 512H-102V0h731.4z"/>
          <path fill="currentColor" fill-rule="evenodd" stroke="currentColor" stroke-width="2.2" d="M281 376c.2-.6.6-6.8.4-6.8s-9.4-10.9-9.2-10.9 11.8 2.6 11.8 2.2 4.7-11.5 4.7-11.7l5.6 13.5 11.5 5-8 6.7 1.7 13c0 .3-8-7.6-8-7.6l-8.9 1s-1.2-4-1.6-4.4z"/>
          <path fill="currentColor" fill-rule="evenodd" stroke="currentColor" stroke-width="2.6" d="M218.7 206.9c-7.7 4-37 37.5-41 42.7a77 77 0 0 1-16.8 23.4c-7.3 5.5-11.3 13-10.3 20 0 9 4.9 15 8.8 21.1q3.7 4.4 8.8 5c6.9.8 7.5 3 11 4.2 13.4 18.4 33.6 32 48 42.7a68 68 0 0 1 18 12.4c4.2 8.2 3.4 16 2.8 20L237.3 439c-1.9 11 7.8 8.6 8.3 6.4 4.3-5.7 10.8-1.7 20-34.3l12.8-17.1s4.9-2 4.9-2.5c7.5-9 1.8-14-2.5-15.7l-9.2-3.4s-10.8-10.8-11.3-10.8c-5.1-14.9-30.3-46.6-36.1-51-4-4.3-6-6-9.8-8.4-5.9-2.8-7.8-3.8-11.4-5.2-3-1.2-.9-4.5 1-6 20-10.9 35.7-22.9 54.8-35.1l3-2-6.9-39.2-31.8-11.2q-2.4 1.7-4.4 3.4z"/>
          <path fill="currentColor" fill-rule="evenodd" d="M245.3 413.1c0-.4 20-4 20-4l-2.5 7.4-19.7 6z"/>
          <path fill="none" stroke="currentColor" stroke-width="2.2" d="M193.6 338.5a38 38 0 0 1 21.6-20.4"/>
          <path fill="none" stroke="currentColor" stroke-width="2.4" d="M244.6 413.3c1.3-.3 7-2 8.6-2.3q2.7-.5 5.2-1.4c2-.4 3.2-.8 5.2-1.1l5-1.4M241 425.6l2.5-2c1.1-.4 5-2 6.5-2.3l4.7-1.4 4.6-1.2q2.2-.9 4.4-1.4"/>
          <path fill="none" stroke="currentColor" stroke-width="2.2" d="M249 341.4h-.2c.8 0 .3 0-.9 1.4-.4 1.1-4 3.7-6.8 3.7l-4.7.3-1.3-.3m13.7 53.5h1.4l4.2.3c1.5 0 2.9.4 4.3.4l4.7.4 4.7.3c1.4.1 2.2.3 3.7.3l-3.7-.3c1.4.1 2.2.3 3.7.3m-32.7 33 2.3-2c1-.3 4.6-2 6-2.2l4.2-1.5 4.3-1q2-1 4-1.5m5.8-41.2c-.8 2.3.3 2.9.7 3.9a12 12 0 0 0 5.7 3.4c1.2.3 2 .6 3.4 1.2q1.1.1 2 .5m-124.4-94.8h.3c-.9 0-.3.1 1.1-1 1-1.1 1.7-1.6 2.6-2.7m14.4 24c.2 0 16.6-8.2 18.3-10l3.7-2.9 2.6-1.7 2.3-2.7c1-.9.5-1.8 1.4-2.9l1.3-3.8m20.8 12.2c.1.6-.2 2.4-.2 3.8 0 1.6-2.1 6.5-4.6 8"/>
          <path fill="none" stroke="currentColor" stroke-width="2.2" d="m192.6 307.8 6.7 2.1c5 1.8 15.4 8.4 16.5 9.3 1 .8 3 1.6 3.6 2.5q1.7 1.5 2.9 3.2 1.6 1.8 2.5 3.4a113 113 0 0 1 13.4 24.5c.7.7 1 1.7 1.7 2.8.6 1.4 1.3 2 2 3.1 1 .7 2.2 2 3.4 2.6 1.3 1.1 2.5 1.5 3.5 2.3 1.3.6 16.3 10 17 10.5 1.4 1.1 5.5 5.4 2.6 8.6-1.2 1-2.4 2.5-3.4 3q-1.8 1.6-3.9 2.2c-6.7 2-10.2 1.3-11.5 1.3h-1.4m-88.8-114.9c2 .8 1.2.2 2.9 1 1.2.5 2 .5 3 1 1.3.3 4.7 1 6.3 2.6 1.2 1 2 2 3.4 2.7a22 22 0 0 0 4.6 2.4q2.5 1.1 5 1.3h7.8-4 4"/>
          <path fill="currentColor" fill-rule="evenodd" stroke="currentColor" stroke-width="2.2" d="M159 293.3c4.2-.3 11.3 1 11.5 1l9.4-.2c5-.4 6-2.3 6.8-3.7 1.9-2.8 3.1-3.8 4.6-6 2.2-1.6 5.4 2.3 5.5 2.3 8 7.6 1.6 16.8 1.2 17.1-4 3.7-4.9 3.9-7.3 1.6-2.4-2.9-3.1-4.2-5.1-5.2-3.9-1.8-11.8-.4-12-.4l-4.1 1.6c-2 .7-3.2 2.4-6.5 3-3.5.2-4.6-.1-6.3-2.9-2.3-3.5-1.2-7.8 2.3-8.2z"/>
          <path fill="currentColor" fill-rule="evenodd" stroke="currentColor" stroke-width="2.2" d="M381.8 120.7c-.6 0-6.3 2.8-6.2 3 .1.1-4.8 13.5-4.9 13.4-.1-.2-3.5-11.7-3.9-11.5s-12.3 1.6-12.4 1.7l9-11.5-1.3-12.5 9.8 3.8 10.5-8c.2-.1-2.7 10.8-2.7 10.8l5.2 7.2s-3 3-3.1 3.6z"/>
          <path fill="currentColor" fill-rule="evenodd" stroke="currentColor" stroke-width="2.6" d="M265 257.9c7.1 4.7 50.7 13.9 57.3 14.8a77 77 0 0 1 28.6 3.2c8.3 3.6 16.8 3.4 22.5-1 7.8-4.2 10.6-11.4 14-18a12 12 0 0 0 0-10c-2.6-6.4-1-8-1.6-11.6 9.4-20.8 11.4-45 13.6-62.9-.2-10.5.9-18.5 2-21.7a32 32 0 0 1 16-12.2l40.7-10.6c10.6-3.8 3.7-11 1.5-10.4-7-1-6.8-8.6-39.7-.7l-21.2-2.7s-4-3.3-4.5-3c-11.5-2.1-13.1 5.3-12.5 9.8l1.6 9.8s-4.1 14.6-3.9 15c-10.5 11.8-26 49.6-27 56.9-.5 6.8-3 5.5-2.4 12.2 0 5.2-.6 2 1.1 12.6.5 3.2-3.5 3-5.7 2-19.2-12-37.4-19.9-57.5-30.5l-3.1-1.6-30.8 25.2 5.8 33.2q2.6 1.3 5.1 2.2z"/>
          <path fill="currentColor" fill-rule="evenodd" d="M431.7 133.6a375 375 0 0 1-13.3-15.4l7.6-1.5 14.8 14.3z"/>
          <path fill="none" stroke="currentColor" stroke-width="2.2" d="M392 215.2a38 38 0 0 1-28.4-8.8"/>
          <path fill="none" stroke="currentColor" stroke-width="2.4" d="M432.2 134.1c-1-.9-5.2-5-6.2-6.4l-3.8-3.8c-1.3-1.5-2.3-2.4-3.6-4l-3.6-3.6m29.6 15c-.3 0-2-.7-3-1.2-.8-.9-4.2-3.4-5.1-4.6l-3.5-3.4c-1.2-1.3-2.1-2-3.3-3.5l-3.4-3"/>
          <path fill="none" stroke="currentColor" stroke-width="2.2" d="m367.3 165.5.1.3c-.4-.8-.2-.3 1.7 0 1.2-.2 5.2 1.7 6.5 4.1.8 1.1 2 2.8 2.6 4l.4 1.3m40-38.2-.2-.2-.6-1-1.8-3.9-1.7-3.9-2-4.2c-.8-1.5-1.2-2.8-2-4.4-.7-1.2-.8-2-1.6-3.3l1.6 3.3c-.7-1.2-.8-2-1.6-3.3m44.8 12.3-2.8-1c-.8-.7-4-3-5-4l-3.3-3c-1-1.3-1.9-2-3-3.3l-3.2-2.7m-38.9 15c2.5-.4 2.5-1.6 3.1-2.5.5-1 .9-3.5.2-6.6l-.6-3.5q-.5-1.2-.5-2m-21.7 154.8-.1-.2c.4.8.2.3-1.6-.5l-3.5-1m13.9-24.3c-.1-.2-15.3-10.4-17.7-11-1.4-.7-2.7-1-4.3-1.8l-2.8-1.4c-1.3-.2-2.4-.7-3.5-.7-1.2-.4-1.9.4-3.2.2l-4 .7m.5-24.1c.4-.4 2.2-1 3.4-1.7 1.4-.7 6.7-1.3 9.2.1"/>
          <path fill="none" stroke="currentColor" stroke-width="2.2" d="m365.7 231.2-1.5-7a100 100 0 0 1 0-18.8c.2-1.3 0-3.4.5-4.5q.5-2 1.3-4l1.7-3.9c.7-4 12-20.1 12.8-20.9l2-2.7q.6-1.4 1.6-3c1-1.1 1.2-2 1.8-3.2.1-1.1.6-2.9.6-4.2.3-1.7 0-3 .3-4.1-.2-1.5.7-19.2.8-20 .3-1.8 2-7.5 6.2-6.5 1.5.5 3.3.8 4.4 1.5 1.4.4 2.6 1.5 3.7 2.3 5 4.9 6.1 8.2 6.8 9.4l.7 1.2M352.6 276l-.1-.2q.5 1-.3-1.1c-.1-1.3-.5-3-.7-4.2-.3-1.3-.9-2.7-.7-3.5-.5-1.3-.2-2.3 0-3.6.3-1.6.5-2.7.5-4.2.2-2 0-3.2.1-5-.5-1.5-.6-2.7-1.3-4.2l-2-4-2-3.5 2 3.4-2-3.4"/>
          <path fill="currentColor" fill-rule="evenodd" stroke="currentColor" stroke-width="2.2" d="M369.5 267.6c-2.3-3.6-4.7-10.4-4.8-10.5l-4.7-8.2c-2.8-4-5-4-6.6-4-3.4-.3-4.9-1-7.4-1.1-2.6-1.2-.7-5.9-.8-6 2.7-10.6 14-9.6 14.4-9.4 5.1 1.7 5.7 2.4 4.9 5.6-1.3 3.5-2 4.8-2 7 .3 4.2 5.5 10.5 5.5 10.6l3.4 2.8c1.6 1.4 3.7 1.6 5.8 4.3 1.9 2.9 2.2 4 .6 6.8-2 3.8-6.2 4.9-8.3 2.1z"/>
          <path fill="currentColor" fill-rule="evenodd" stroke="currentColor" stroke-width="2.2" d="M105.2 168.7c.5.4 5.8 3.7 6 3.5s14-3.4 13.8-3.2-7.8 9.3-7.4 9.5 8 9.4 8.2 9.5l-14.5-1.2-9.8 7.8-2.2-10.2L87 180c-.2-.1 10.5-3.6 10.5-3.6l3.2-8.3s4.1.7 4.7.6z"/>
          <path fill="currentColor" fill-rule="evenodd" stroke="currentColor" stroke-width="2.6" d="M284 191.3c0-8.7-16.2-50.2-19-56.1a77 77 0 0 1-13-25.7c-1.5-9-6.3-16-13-18.4-7.9-4.1-15.5-2.5-22.8-1.8-3.6.7-6.7 2.7-8.4 5.5-4 5.7-6.1 5.2-8.9 7.7-22.5 3.5-43.8 15.1-60 23a68 68 0 0 1-19.3 10.2 32 32 0 0 1-19-6.6l-31.1-28.3c-9-6.7-11.2 3-9.5 4.5 3 6.4-3.5 10.3 21.2 33.6l9.3 19.2s-.5 5.2 0 5.4c4.4 10.8 11.6 8.1 15 5.1l7.3-6.7s14.5-4.6 14.7-5c15.6 2.3 55.8-5.3 62.4-8.5 6-3.3 6.3-.5 11.5-4.7 4.3-2.9 2-.6 10-7.9 2.4-2 4.3 1.3 4.8 3.7.4 22.7 3.8 42.2 5.9 64.8l.4 3.5 38 12 24.6-23-1-5.6z"/>
          <path fill="currentColor" fill-rule="evenodd" d="M88.7 119.8c.3.3-5.6 19.6-5.6 19.6l-5.4-5.5 3.8-20.3z"/>
          <path fill="none" stroke="currentColor" stroke-width="2.2" d="M178.8 108.4c7.2 8 9.5 21.2 8.2 28.6"/>
          <path fill="none" stroke="currentColor" stroke-width="2.4" d="M89 119.1c-.3 1.3-1.5 7.2-2 8.7l-1.2 5.3-1.4 5.2q-.3 2.5-1 5m-3.7-33c.1.3.5 2 .6 3.1-.2 1.2-.5 5.4-1 6.9l-.9 4.8-1 4.6-.8 4.6"/>
          <path fill="none" stroke="currentColor" stroke-width="2.2" d="m150.7 156.3.1-.3c-.4.8 0 .3-.8-1.4-.9-1-1.4-5.3-.2-7.8l2-4.3.8-1M98.8 129l-.1.2-.6 1-2.2 3.7c-.6 1.3-1.7 2.3-2.3 3.6l-2.4 4-2.6 4-2 3.2 2-3.2-2 3.2m-14.2-44.3c.2.2.7 1.9.8 3-.2 1-.4 5-.8 6.3l-.7 4.4c-.4 1.6-.5 2.7-1 4.3l-.5 4.2M104 151c-1.7-1.9-2.7-1.2-3.8-1.3a12 12 0 0 0-5.7 3.5q-1 1.3-2.6 2.5c-.5.8-.9 1-1.4 1.5M232 90.4l-.1.3c.4-.8.1-.4.5 1.5.5 1.3.5 2.2 1 3.4m-27.9 1.8c0 .2-.3 18.5.5 20.9.2 1.5.6 2.7.8 4.6l.4 3c.6 1.2.7 2.4 1.4 3.3.3 1.3 1.3 1.4 1.9 2.5.7.9 2 2.4 2.8 3m-20.5 12.9c-.6-.2-2-1.4-3.2-2-1.4-.8-4.9-4.9-5-7.8"/>
          <path fill="none" stroke="currentColor" stroke-width="2.2" d="m206.5 121.6-5 5a94 94 0 0 1-15.8 10.3c-1.2.6-2.7 2-4 2.1q-2 .8-4 1.1a113 113 0 0 1-28.7 1.5l-3.4-.2q-1.4.2-3.3.2c-1.6-.1-2.4.2-3.7.3-1 .6-2.7 1.1-3.9 1.9q-2.1 1-3.6 2c-1 .9-16.4 9.8-17.2 10.2-1.6.7-7.3 2.5-8.8-1.6q-.8-2.6-1.1-4.5c-.5-1.4-.2-3-.2-4.4 1.4-6.9 3.6-9.6 4.2-10.8l.7-1.2M251 108l-.1.3q.6-1-.8.8-1.6 1.3-3.1 3c-1 .8-1.8 2-2.6 2.4q-1.2 1.3-3 2a20 20 0 0 0-3.8 1.9c-1.7.8-2.7 1.7-4.2 2.6-1 1.2-2 2-2.8 3.4q-1.2 1.8-2.3 3.9l-1.8 3.5 1.8-3.5-1.8 3.5m11.7 73.1.3-.5q-.7 1.5.1-.9c0-1.8.5-4.1.5-5.8q.5-2.7.6-5.5 0-3-.4-6l-.3-5.6q0-2.6-.6-5l-.4-4.8q0-1.8-.5-3.4l-1.2-5.1-1-4.1c-.2-1.6-1-3.6-1.4-4.9a14 14 0 0 1-1.1-3.4q-1-1.7-1.3-3.6l-1.6-3.7-1.4-3.6-1.5-4q-.6-.8-.8-1.4"/>
          <path fill="currentColor" fill-rule="evenodd" stroke="currentColor" stroke-width="2.2" d="M234.9 98.5a59 59 0 0 1-6.2 9.7l-4.2 8.4c-1.8 4.6-.7 6.5.1 7.8 1.7 3 2 4.6 3.2 6.8.5 2.8-4.5 3.8-4.5 3.9-10.4 3.6-15.7-6.4-15.7-6.9-1.4-5.2-1.2-6 2-7.1 3.6-.9 5-1 6.8-2.2 3.5-2.6 5.9-10.3 6-10.4l.4-4.4c.3-2-.6-4 .4-7.2 1.4-3.2 2.2-4 5.4-4.3 4.2-.3 7.5 2.6 6.3 5.9z"/>
          <path fill="currentColor" fill-rule="evenodd" stroke="currentColor" stroke-width="2.2" d="M221.3 199.7c-1.6-1.5 29.4 11.2 33.7 11.3 5.8-2.1 29.9-22.4 29.9-22.4.2 2 1.1 7.1 3.4 8.2-9.3 7.5-17.7 14.8-27 22.3.6 12-1.5 24.7 4.5 38 0 0-7.2.2-7.2 0-6.4-6.4-8.7-37.2-8.7-37.2l-30.6-13.6c1.5-1 2.6-3.9 2-6.7z"/>
          <path fill="none" stroke="currentColor" stroke-width="2.2" d="M250.8 231.3c.5-.4-5.6 2.8-7.2 3.6-28.1 15-42.6 37-43.5 37.8l-2.2 3.4-2.3 3-3.6 4.7c-.2.6.4-.3.2.2m77.9-70.6a79 79 0 0 0 6.5 4.7c26.2 18.2 52.3 21.1 53.5 21.5l4 .5 3.8.5c1.4.2 4.4.8 5.8 1.2.6-.2-.5-.3 0-.4"/>
        </g>
    </symbol>
    <symbol id="flag" viewBox="0 0 256 256">
      <path d="M42.76,50A8,8,0,0,0,40,56V224a8,8,0,0,0,16,0V179.77c26.79-21.16,49.87-9.75,76.45,3.41,16.4,8.11,34.06,16.85,53,16.85,13.93,0,28.54-4.75,43.82-18a8,8,0,0,0,2.76-6V56A8,8,0,0,0,218.76,50c-28,24.23-51.72,12.49-79.21-1.12C111.07,34.76,78.78,18.79,42.76,50ZM216,172.25c-26.79,21.16-49.87,9.74-76.45-3.41-25-12.35-52.81-26.13-83.55-8.4V59.79c26.79-21.16,49.87-9.75,76.45,3.4,25,12.35,52.82,26.13,83.55,8.4Z"></path>    </symbol>
    <symbol id="flag-us" viewBox="0 0 640 480">
        <path fill="currentColor" d="M0 0h640v480H0"/>
        <path stroke="currentColor" stroke-width="37" d="M0 55.3h640M0 129h640M0 203h640M0 277h640M0 351h640M0 425h640"/>
        <path fill="currentColor" d="M0 0h364.8v258.5H0"/>
        <marker id="us-a" markerHeight="30" markerWidth="30">
          <path fill="currentColor" d="m14 0 9 27L0 10h28L5 27z"/>
        </marker>
        <path fill="none" marker-mid="url(#us-a)" d="m0 0 16 11h61 61 61 61 60L47 37h61 61 60 61L16 63h61 61 61 61 60L47 89h61 61 60 61L16 115h61 61 61 61 60L47 141h61 61 60 61L16 166h61 61 61 61 60L47 192h61 61 60 61L16 218h61 61 61 61 60z"/>
    </symbol>
    <symbol id="forward-fast-solid-full" viewBox="0 0 640 640">
      <!--!Font Awesome Free 7.0.1 by @fontawesome - https://fontawesome.com License - https://fontawesome.com/license/free Copyright 2025 Fonticons, Inc.--><path d="M83.8 541.6C95.8 546.6 109.5 543.8 118.7 534.7L288 365.3L288 512C288 524.9 295.8 536.6 307.8 541.6C319.8 546.6 333.5 543.8 342.7 534.7L512 365.3L512 512C512 529.7 526.3 544 544 544C561.7 544 576 529.7 576 512L576 128C576 110.3 561.7 96 544 96C526.3 96 512 110.3 512 128L512 274.7L342.6 105.3C333.4 96.1 319.7 93.4 307.7 98.4C295.7 103.4 288 115.1 288 128L288 274.7L118.6 105.4C109.4 96.2 95.7 93.5 83.7 98.5C71.7 103.5 64 115.1 64 128L64 512C64 524.9 71.8 536.6 83.8 541.6z"/>    </symbol>
    <symbol id="hamburger" viewBox="0 0 256 256">
      <path d="M48.07,104H207.93a16,16,0,0,0,15.72-19.38C216.22,49.5,176,24,128,24S39.78,49.5,32.35,84.62A16,16,0,0,0,48.07,104ZM128,40c39.82,0,74.21,20.61,79.93,48H48.07L48,87.93C53.79,60.61,88.18,40,128,40ZM229.26,152.48l-41.13,15L151,152.57a8,8,0,0,0-5.94,0l-37,14.81L71,152.57a8,8,0,0,0-5.7-.09l-44,16a8,8,0,0,0,5.47,15L40,178.69V184a40,40,0,0,0,40,40h96a40,40,0,0,0,40-40v-9.67l18.73-6.81a8,8,0,1,0-5.47-15ZM200,184a24,24,0,0,1-24,24H80a24,24,0,0,1-24-24V172.88l11.87-4.32L105,183.43a8,8,0,0,0,5.94,0l37-14.81,37,14.81a8,8,0,0,0,5.7.09l9.27-3.37ZM16,128a8,8,0,0,1,8-8H232a8,8,0,0,1,0,16H24A8,8,0,0,1,16,128Z"></path>    </symbol>
    <symbol id="info" viewBox="0 0 256 256">
      <path d="M128,24A104,104,0,1,0,232,128,104.11,104.11,0,0,0,128,24Zm0,192a88,88,0,1,1,88-88A88.1,88.1,0,0,1,128,216Zm16-40a8,8,0,0,1-8,8,16,16,0,0,1-16-16V128a8,8,0,0,1,0-16,16,16,0,0,1,16,16v40A8,8,0,0,1,144,176ZM112,84a12,12,0,1,1,12,12A12,12,0,0,1,112,84Z"></path>    </symbol>
    <symbol id="instagram" viewBox="0 0 640 640">
      <!--!Font Awesome Free 7.0.1 by @fontawesome - https://fontawesome.com License - https://fontawesome.com/license/free Copyright 2025 Fonticons, Inc.--><path d="M320.3 205C256.8 204.8 205.2 256.2 205 319.7C204.8 383.2 256.2 434.8 319.7 435C383.2 435.2 434.8 383.8 435 320.3C435.2 256.8 383.8 205.2 320.3 205zM319.7 245.4C360.9 245.2 394.4 278.5 394.6 319.7C394.8 360.9 361.5 394.4 320.3 394.6C279.1 394.8 245.6 361.5 245.4 320.3C245.2 279.1 278.5 245.6 319.7 245.4zM413.1 200.3C413.1 185.5 425.1 173.5 439.9 173.5C454.7 173.5 466.7 185.5 466.7 200.3C466.7 215.1 454.7 227.1 439.9 227.1C425.1 227.1 413.1 215.1 413.1 200.3zM542.8 227.5C541.1 191.6 532.9 159.8 506.6 133.6C480.4 107.4 448.6 99.2 412.7 97.4C375.7 95.3 264.8 95.3 227.8 97.4C192 99.1 160.2 107.3 133.9 133.5C107.6 159.7 99.5 191.5 97.7 227.4C95.6 264.4 95.6 375.3 97.7 412.3C99.4 448.2 107.6 480 133.9 506.2C160.2 532.4 191.9 540.6 227.8 542.4C264.8 544.5 375.7 544.5 412.7 542.4C448.6 540.7 480.4 532.5 506.6 506.2C532.8 480 541 448.2 542.8 412.3C544.9 375.3 544.9 264.5 542.8 227.5zM495 452C487.2 471.6 472.1 486.7 452.4 494.6C422.9 506.3 352.9 503.6 320.3 503.6C287.7 503.6 217.6 506.2 188.2 494.6C168.6 486.8 153.5 471.7 145.6 452C133.9 422.5 136.6 352.5 136.6 319.9C136.6 287.3 134 217.2 145.6 187.8C153.4 168.2 168.5 153.1 188.2 145.2C217.7 133.5 287.7 136.2 320.3 136.2C352.9 136.2 423 133.6 452.4 145.2C472 153 487.1 168.1 495 187.8C506.7 217.3 504 287.3 504 319.9C504 352.5 506.7 422.6 495 452z"/>    </symbol>
    <symbol id="linkedin" viewBox="0 0 640 640">
      <!--!Font Awesome Free 7.0.1 by @fontawesome - https://fontawesome.com License - https://fontawesome.com/license/free Copyright 2025 Fonticons, Inc.--><path d="M512 96L127.9 96C110.3 96 96 110.5 96 128.3L96 511.7C96 529.5 110.3 544 127.9 544L512 544C529.6 544 544 529.5 544 511.7L544 128.3C544 110.5 529.6 96 512 96zM231.4 480L165 480L165 266.2L231.5 266.2L231.5 480L231.4 480zM198.2 160C219.5 160 236.7 177.2 236.7 198.5C236.7 219.8 219.5 237 198.2 237C176.9 237 159.7 219.8 159.7 198.5C159.7 177.2 176.9 160 198.2 160zM480.3 480L413.9 480L413.9 376C413.9 351.2 413.4 319.3 379.4 319.3C344.8 319.3 339.5 346.3 339.5 374.2L339.5 480L273.1 480L273.1 266.2L336.8 266.2L336.8 295.4L337.7 295.4C346.6 278.6 368.3 260.9 400.6 260.9C467.8 260.9 480.3 305.2 480.3 362.8L480.3 480z"/>    </symbol>
    <symbol id="list" viewBox="0 0 256 256">
      <path d="M224,128a8,8,0,0,1-8,8H40a8,8,0,0,1,0-16H216A8,8,0,0,1,224,128ZM40,72H216a8,8,0,0,0,0-16H40a8,8,0,0,0,0,16ZM216,184H40a8,8,0,0,0,0,16H216a8,8,0,0,0,0-16Z"></path>    </symbol>
    <symbol id="sliders-horizontal" viewBox="0 0 256 256">
      <path d="M40,88H73a32,32,0,0,0,62,0h81a8,8,0,0,0,0-16H135a32,32,0,0,0-62,0H40a8,8,0,0,0,0,16Zm64-24A16,16,0,1,1,88,80,16,16,0,0,1,104,64ZM216,168H199a32,32,0,0,0-62,0H40a8,8,0,0,0,0,16h97a32,32,0,0,0,62,0h17a8,8,0,0,0,0-16Zm-48,24a16,16,0,1,1,16-16A16,16,0,0,1,168,192Z"></path>    </symbol>
    <symbol id="smiley" viewBox="0 0 256 256">
      <path d="M128,24A104,104,0,1,0,232,128,104.11,104.11,0,0,0,128,24Zm0,192a88,88,0,1,1,88-88A88.1,88.1,0,0,1,128,216ZM80,108a12,12,0,1,1,12,12A12,12,0,0,1,80,108Zm96,0a12,12,0,1,1-12-12A12,12,0,0,1,176,108Zm-1.07,48c-10.29,17.79-27.4,28-46.93,28s-36.63-10.2-46.92-28a8,8,0,1,1,13.84-8c7.47,12.91,19.21,20,33.08,20s25.61-7.1,33.07-20a8,8,0,0,1,13.86,8Z"></path>    </symbol>
    <symbol id="sort-down-solid-full" viewBox="0 0 640 640">
      <!--!Font Awesome Free 7.0.1 by @fontawesome - https://fontawesome.com License - https://fontawesome.com/license/free Copyright 2025 Fonticons, Inc.--><path d="M160 352C147.1 352 135.4 359.8 130.4 371.8C125.4 383.8 128.2 397.5 137.4 406.6L297.4 566.6C309.9 579.1 330.2 579.1 342.7 566.6L502.7 406.6C511.9 397.4 514.6 383.7 509.6 371.7C504.6 359.7 492.9 352 480 352L160 352z"/>    </symbol>
    <symbol id="star" viewBox="0 0 256 256">
      <path d="M239.18,97.26A16.38,16.38,0,0,0,224.92,86l-59-4.76L143.14,26.15a16.36,16.36,0,0,0-30.27,0L90.11,81.23,31.08,86a16.46,16.46,0,0,0-9.37,28.86l45,38.83L53,211.75a16.38,16.38,0,0,0,24.5,17.82L128,198.49l50.53,31.08A16.4,16.4,0,0,0,203,211.75l-13.76-58.07,45-38.83A16.43,16.43,0,0,0,239.18,97.26Zm-15.34,5.47-48.7,42a8,8,0,0,0-2.56,7.91l14.88,62.8a.37.37,0,0,1-.17.48c-.18.14-.23.11-.38,0l-54.72-33.65a8,8,0,0,0-8.38,0L69.09,215.94c-.15.09-.19.12-.38,0a.37.37,0,0,1-.17-.48l14.88-62.8a8,8,0,0,0-2.56-7.91l-48.7-42c-.12-.1-.23-.19-.13-.5s.18-.27.33-.29l63.92-5.16A8,8,0,0,0,103,91.86l24.62-59.61c.08-.17.11-.25.35-.25s.27.08.35.25L153,91.86a8,8,0,0,0,6.75,4.92l63.92,5.16c.15,0,.24,0,.33.29S224,102.63,223.84,102.73Z"></path>    </symbol>
    <symbol id="twitter" viewBox="0 0 640 640">
      <!--!Font Awesome Free 7.0.1 by @fontawesome - https://fontawesome.com License - https://fontawesome.com/license/free Copyright 2025 Fonticons, Inc.--><path d="M523.4 215.7C523.7 220.2 523.7 224.8 523.7 229.3C523.7 368 418.1 527.9 225.1 527.9C165.6 527.9 110.4 510.7 64 480.8C72.4 481.8 80.6 482.1 89.3 482.1C138.4 482.1 183.5 465.5 219.6 437.3C173.5 436.3 134.8 406.1 121.5 364.5C128 365.5 134.5 366.1 141.3 366.1C150.7 366.1 160.1 364.8 168.9 362.5C120.8 352.8 84.8 310.5 84.8 259.5L84.8 258.2C98.8 266 115 270.9 132.2 271.5C103.9 252.7 85.4 220.5 85.4 184.1C85.4 164.6 90.6 146.7 99.7 131.1C151.4 194.8 229 236.4 316.1 240.9C314.5 233.1 313.5 225 313.5 216.9C313.5 159.1 360.3 112 418.4 112C448.6 112 475.9 124.7 495.1 145.1C518.8 140.6 541.6 131.8 561.7 119.8C553.9 144.2 537.3 164.6 515.6 177.6C536.7 175.3 557.2 169.5 576 161.4C561.7 182.2 543.8 200.7 523.4 215.7z"/>    </symbol>
    <symbol id="warning-circle" viewBox="0 0 256 256">
      <path d="M128,24A104,104,0,1,0,232,128,104.11,104.11,0,0,0,128,24Zm0,192a88,88,0,1,1,88-88A88.1,88.1,0,0,1,128,216Zm-8-80V80a8,8,0,0,1,16,0v56a8,8,0,0,1-16,0Zm20,36a12,12,0,1,1-12-12A12,12,0,0,1,140,172Z"></path>    </symbol>
    <symbol id="warning" viewBox="0 0 256 256">
      <path d="M236.8,188.09,149.35,36.22h0a24.76,24.76,0,0,0-42.7,0L19.2,188.09a23.51,23.51,0,0,0,0,23.72A24.35,24.35,0,0,0,40.55,224h174.9a24.35,24.35,0,0,0,21.33-12.19A23.51,23.51,0,0,0,236.8,188.09ZM222.93,203.8a8.5,8.5,0,0,1-7.48,4.2H40.55a8.5,8.5,0,0,1-7.48-4.2,7.59,7.59,0,0,1,0-7.72L120.52,44.21a8.75,8.75,0,0,1,15,0l87.45,151.87A7.59,7.59,0,0,1,222.93,203.8ZM120,144V104a8,8,0,0,1,16,0v40a8,8,0,0,1-16,0Zm20,36a12,12,0,1,1-12-12A12,12,0,0,1,140,180Z"></path>    </symbol>
    <symbol id="x" viewBox="0 0 256 256">
      <path d="M205.66,194.34a8,8,0,0,1-11.32,11.32L128,139.31,61.66,205.66a8,8,0,0,1-11.32-11.32L116.69,128,50.34,61.66A8,8,0,0,1,61.66,50.34L128,116.69l66.34-66.35a8,8,0,0,1,11.32,11.32L139.31,128Z"></path>    </symbol>
  </defs>
</svg>
