<svg width="1920" height="1080" viewBox="0 0 1920 1080" fill="none" xmlns="http://www.w3.org/2000/svg">
<g clip-path="url(#clip0_180_6791)">
<rect width="1920" height="1080" fill="white"/>
<path opacity="0.1" fill-rule="evenodd" clip-rule="evenodd" d="M966.416 -29.5094C1117.43 3.24956 1217.07 149.562 1194.92 306.028C1176.73 434.58 1073.38 538.928 942.414 560.958C781.311 588.053 627.519 476.055 599.131 310.963C583.028 217.325 614.664 119.19 682.477 52.459C728.087 7.57828 773.309 -17.3683 831.262 -29.6191C884.306 -40.8247 914.356 -40.7989 966.416 -29.5094ZM845.754 -6.80134C794.134 2.95926 746.467 27.3833 707.708 63.9356C596.233 169.064 591.49 342.329 697.04 453.618C830.344 594.162 1057.8 558.546 1144.07 383.616C1163.88 343.451 1166.49 331.904 1168.47 275.798C1170.13 228.679 1167.87 204.429 1159.42 178.856C1129.25 87.5016 1056.05 18.9194 965.375 -2.94355C918.128 -14.3363 890.342 -15.233 845.754 -6.80134ZM1033.15 73.2059C1038.96 80.1925 1037.41 121.744 1026.47 252.225C1018.64 345.683 1009.41 425.781 1005.96 430.213C994.461 445.012 978.424 438.554 946.574 406.311C929.21 388.732 912.842 375.675 910.203 377.3C907.563 378.932 888.944 404.924 868.824 435.07C843.173 473.526 828.377 489.886 819.274 489.886C797.427 489.886 748.971 452.572 748.971 435.754C748.971 427.606 763.527 400.279 781.318 375.017C799.109 349.754 813.665 326.446 813.665 323.227C813.665 320.001 798.604 315.376 780.199 312.937C761.793 310.505 741.414 305.673 734.912 302.202C707.352 287.5 721.656 272.721 864.858 167.889C942.822 110.81 1010.88 64.1097 1016.1 64.1097C1021.31 64.1097 1028.98 68.2062 1033.15 73.2059ZM885.91 184.243C819.488 232.575 762.692 274.359 759.69 277.095C756.695 279.83 775.178 285.797 800.772 290.358C826.365 294.919 848.73 302.357 850.47 306.886C852.217 311.415 835.215 341.684 812.695 374.139L771.75 433.161L791.093 448.586C801.729 457.075 812.268 464.03 814.513 464.049C816.758 464.068 837.137 436.586 859.799 402.976C882.462 369.365 905.28 341.787 910.507 341.69C915.728 341.593 935.382 356.65 954.176 375.159C972.963 393.667 988.341 405.453 988.341 401.35C988.341 387.88 1007.33 158.348 1011.04 127.008C1013.04 110.152 1012.87 96.3655 1010.67 96.3655C1008.47 96.3655 952.326 135.911 885.91 184.243Z" fill="black"/>
<path opacity="0.1" fill-rule="evenodd" clip-rule="evenodd" d="M1905.24 -12.5548C2018.83 15.0703 2110.25 115.597 2128.47 232.89C2159.25 431.046 1984.07 609.229 1788.64 578.539C1585.81 546.695 1471.62 334.101 1558.29 149.686C1617.6 23.4959 1766.74 -46.2442 1905.24 -12.5548ZM1763.22 14.18C1709.79 28.0635 1667.8 52.5725 1631.09 91.307C1525.42 202.788 1528.18 368.654 1637.51 476.103C1746.32 583.049 1913.22 584.358 2021.26 479.11C2131.48 371.745 2135.34 201.71 2030.08 90.6683C1960.3 17.0509 1861.32 -11.3161 1763.22 14.18ZM1876.15 90.1651C1895.71 101.126 1932.08 117.616 1956.97 126.803L2002.23 143.518V246.477C2002.23 348.558 2002.07 349.739 1983.06 383.99C1961.03 423.659 1918.82 463.252 1874.74 485.593C1834.41 506.038 1823.26 505.199 1779.07 478.419C1729.02 448.078 1697.06 414.815 1676.86 372.022C1662.25 341.075 1659.77 326.062 1657.45 254.509C1654.04 149.202 1655.44 144.002 1690.09 133.648C1705.28 129.106 1743.11 112.661 1774.17 97.1004C1805.22 81.5395 1832.87 69.1269 1835.61 69.5204C1838.35 69.914 1856.59 79.2041 1876.15 90.1651ZM1701.45 158.196L1680.86 165.357L1683.33 247.722C1685.33 314.701 1688.39 335.778 1699.69 360.539C1716.32 396.957 1759.99 440.93 1801.12 462.671L1831 478.471L1866.71 459.826C1910.99 436.724 1955.71 388.093 1969.31 348.255C1976.49 327.23 1979.6 294.534 1979.6 240.174V162.234L1939.19 147.718C1916.96 139.738 1884.33 124.919 1866.68 114.797L1834.58 96.3842L1778.31 123.713C1747.36 138.738 1712.77 154.26 1701.45 158.196ZM1862.5 174.582C1880.23 184.382 1894.98 207.968 1895.32 227.045C1895.44 234.239 1901.37 245.096 1908.48 251.174C1919.5 260.586 1921.41 270.205 1921.41 316.12C1921.41 389.157 1918.7 391.376 1829.55 391.376C1744.14 391.376 1743.6 390.88 1743.6 312.514C1743.6 265.96 1745.61 253.864 1754.17 249.083C1759.99 245.832 1766.64 233.148 1768.94 220.891C1777.04 177.795 1825.21 153.95 1862.5 174.582ZM1805.02 204.285C1797.91 211.381 1792.09 222.994 1792.09 230.09C1792.09 241.561 1796.4 242.993 1830.89 242.993C1866.39 242.993 1869.68 241.806 1869.68 228.987C1869.68 195.285 1829.45 179.911 1805.02 204.285ZM1775.93 368.796L1892.31 368.796L1896.09 268.799L1772.15 268.799L1775.93 368.796ZM1846.42 300.05C1848.28 303.043 1848.07 316.107 1845.96 329.081C1840.63 361.848 1821.14 361.848 1815.81 329.081C1813.7 316.107 1813.49 303.043 1815.35 300.05C1819.71 292.992 1842.06 292.992 1846.42 300.05Z" fill="black"/>
<path opacity="0.1" fill-rule="evenodd" clip-rule="evenodd" d="M964.4 711.237C928.362 753.014 909.861 790.749 897.121 848.471C869.386 974.111 923.652 1100.68 1034.96 1169.96C1080.04 1198.01 1158.18 1216.68 1212.57 1212.38C1383.14 1198.88 1504.92 1058.8 1494.2 888.446L1490.34 826.948L1452.96 762.438C1421.57 708.249 1410.57 693.985 1384.25 673.332C1319.75 622.701 1227.07 598.054 1147.54 610.365C1087.18 619.715 1003.68 665.704 964.4 711.237ZM1167.85 634.971C1281.67 625.975 1376.75 675.925 1434.1 774.85C1517.38 918.509 1448.93 1109.67 1293.5 1167.5C1154.19 1219.32 1006.25 1161.55 943.457 1030.81C895.104 930.12 910.271 814.614 982.938 730.161C1007.81 701.255 1021.01 691.357 1066.8 667.261C1113.31 642.799 1127.91 638.132 1167.85 634.971ZM1068.97 735.697C1044.72 765.961 1050.57 807.894 1082.07 829.61C1138.19 868.295 1204.76 803.191 1170.24 743.386C1153.41 714.244 1090.02 709.43 1068.97 735.697ZM1125.24 742.853C1159.4 751.977 1165.1 794.205 1134.55 811.843C1117.92 821.444 1091.65 813.677 1081.54 796.17C1073.86 782.863 1082.61 752.594 1096.46 744.599C1102.6 741.052 1115.55 740.266 1125.24 742.853ZM977.175 925.012C977.943 949.436 998.191 955.363 1067 951.313C1154.98 946.133 1155.11 946.278 1167.81 1070.33C1175.03 1140.89 1183.02 1158.64 1205.37 1153.72C1225.45 1149.29 1230.88 1136.27 1235.14 1082.21C1240.37 1016.02 1242.22 1002.52 1246.42 1000.09C1248.29 999.01 1273.01 1009.41 1301.36 1023.21C1329.71 1037 1359.35 1050.01 1367.22 1052.11C1387.79 1057.6 1403.58 1046.03 1401.74 1026.8C1400.42 1012.96 1390.29 1002.86 1339.9 965.108C1303.05 937.51 1274.8 911.596 1267.2 898.428C1254.78 876.927 1254.83 876.783 1290.66 820.54C1329.48 759.626 1334.44 741.739 1315.34 731.632C1297.57 722.235 1282.74 731.072 1237.81 777.845C1183.48 834.384 1130.91 864.897 1056.77 882.931C989.576 899.276 976.577 906.149 977.175 925.012ZM1070.85 904.368C1146.94 883.944 1187.69 860.365 1245.92 803.056C1271.41 777.975 1295.59 756.815 1299.65 756.029C1303.72 755.248 1290.1 780.383 1269.37 811.886C1248.64 843.394 1231.47 873.062 1231.2 877.812C1229.9 901.201 1260.36 936.569 1316.35 976.707C1348.03 999.409 1374.58 1021.09 1375.35 1024.9C1376.13 1028.69 1347.88 1018.56 1312.59 1002.36C1277.29 986.165 1244.8 972.726 1240.37 972.501C1225.7 971.748 1219.17 992.637 1213.65 1057.94C1207.09 1135.47 1208.02 1129.76 1202.14 1128.19C1199.5 1127.49 1193.91 1094.59 1189.72 1055.08C1181.66 979.003 1163.58 933.021 1139.17 926.501C1132.55 924.735 1101.03 925.287 1069.12 927.725C1037.2 930.163 1009.94 930.154 1008.53 927.711C1005.09 921.76 1002.64 922.682 1070.85 904.368Z" fill="black"/>
<path opacity="0.1" fill-rule="evenodd" clip-rule="evenodd" d="M235.474 486.37C144.426 484.477 69.2131 513.532 6.29072 574.91C-22.668 603.155 -31.533 616.96 -51.4996 664.854C-80.5975 734.651 -86.7611 789.877 -72.3961 852.087C-46.4869 964.286 23.8452 1039.38 136.182 1074.8C186.06 1090.52 200.396 1092.17 247.478 1087.59C374.134 1075.25 465.462 1005.99 507.551 890.35C577.678 697.678 438.206 490.588 235.474 486.37ZM416.297 590.418C517.762 692.072 528.089 848.523 440.557 958.022C359.433 1059.51 235.206 1089.8 112.327 1038.06C43.2572 1008.97 2.47993 968.397 -28.3747 898.044C-64.5882 815.46 -61.552 735.138 -19.1373 653.77C18.5473 581.484 97.8308 526.933 182.594 514.975C241.066 506.727 268.769 510.631 330.564 535.842C373.85 553.508 389.208 563.283 416.297 590.418ZM261.332 589.672C229.48 608.41 195.038 645.812 195.313 661.361C195.641 679.858 204.549 676.676 226.393 650.271C237.978 636.263 253.671 620.793 261.267 615.886C273.84 607.776 272.472 614.203 246.117 687.091L217.156 767.218L212.35 744.546C201.474 693.203 149.214 625.89 107.414 609.379L85.7469 600.823L70.6603 644.691C45.6118 717.559 58.2301 784.664 105.953 832.289C120.18 846.492 143.526 862.368 157.955 867.655L184.137 877.254L196.041 844.971C210.856 804.785 239.18 775.291 286.328 750.96C319.979 733.594 322.819 730.471 327.619 705.562C330.455 690.845 331.552 668.494 330.059 655.885C326.709 627.583 306.539 580.055 296.298 576.328C292.124 574.808 276.386 580.811 261.332 589.672ZM306.053 655.328C312.352 707.565 307.076 720.891 274.338 735.52L244.904 748.667L269.012 682.431C294.66 611.964 300.326 607.812 306.053 655.328ZM383.454 743.885C330.115 746.05 291.885 759.176 255.238 787.9C231.546 806.471 222.848 818.649 208.148 853.778C198.238 877.476 184.505 903.312 177.631 911.188C166.717 923.697 162.865 924.15 147.084 914.751C121.847 899.735 92.4594 867.481 92.2308 854.565C91.9167 836.972 67.8554 832.155 62.0924 848.526C58.2868 859.346 63.706 868.956 86.4946 891.792C102.609 907.93 125.514 926.82 137.388 933.757C155.215 944.172 158.048 948.934 153.628 961.079C146.739 980.005 128.859 974.09 88.3458 939.502C34.8143 893.794 -3.20509 782.446 24.9481 753.824C39.982 738.533 36.3826 718.859 17.2811 711.906C-4.6012 703.942 -20.1109 720.483 -12.6616 743.852C-9.40089 754.078 -6.94496 773.057 -7.20348 786.026C-8.70876 861.835 56.3843 959.421 129.924 991.614L155.841 1002.96L173.32 964.529C189.926 928.015 191.815 926.164 211.297 927.333C316.665 933.678 369.895 909.943 416.379 835.887C440.004 798.259 450.213 750.852 435.786 745.831C430.028 743.826 406.481 742.948 383.454 743.885ZM153.196 676.684C181.762 713.71 196.632 758.054 192.852 794.933C191.143 811.58 188.311 825.865 186.554 826.683C183.544 828.084 122.002 661.997 121.236 650.405C120.537 639.836 132.106 649.354 153.196 676.684ZM132.769 745.585C152 801.217 164.555 846.644 160.677 846.537C146.255 846.142 113.634 814.293 98.594 785.936C90.0501 769.833 82.305 741.501 81.3748 722.973C79.4454 684.4 85.9959 639.064 93.0406 642.27C95.6589 643.46 113.538 689.952 132.769 745.585ZM391.493 773.732C387.132 777.271 346.673 803.828 301.585 832.744C234.006 876.086 220.143 882.694 222.67 870.397C228.174 843.61 259.678 807.587 293.943 788.897C334.131 766.978 415.362 754.348 391.493 773.732ZM380.812 847.987C370.273 861.078 350.948 878.643 337.881 887.014C314.156 902.203 236.987 917.372 232.489 907.727C231.182 904.929 270.276 876.865 319.365 845.36C400.506 793.284 408.219 789.724 404.3 806.131C401.923 816.056 391.354 834.89 380.812 847.987ZM14.0558 739.223C10.9026 741.709 6.28897 741.167 3.79839 738.014C1.30781 734.862 1.84722 730.253 5.00045 727.767C8.15367 725.281 12.7672 725.823 15.2578 728.976C17.7484 732.128 17.209 736.737 14.0558 739.223ZM391.757 903.345C381.576 908.085 375.164 916.492 373.4 927.421C369.231 953.243 298.725 987.171 267.12 978.562C247.174 973.123 242.704 974.488 235.913 988.044C230.412 999.035 231.004 1007.23 237.863 1014.88C247.634 1025.79 268.333 1029.62 271.435 1021.09C272.321 1018.66 293.214 1006.57 317.871 994.23C417.452 944.382 427.775 937.622 425.758 923.594C422.853 903.413 409.143 895.249 391.757 903.345ZM405.305 930.448C402.152 932.934 397.538 932.391 395.047 929.239C392.557 926.087 393.096 921.478 396.25 918.991C399.403 916.505 404.016 917.048 406.507 920.2C408.997 923.352 408.458 927.961 405.305 930.448ZM263.739 1003.87C262.506 1007.26 258.723 1009.02 255.332 1007.78C251.941 1006.55 250.175 1002.77 251.408 999.381C252.641 995.994 256.424 994.233 259.815 995.467C263.206 996.701 264.972 1000.48 263.739 1003.87Z" fill="black"/>
</g>
<defs>
<clipPath id="clip0_180_6791">
<rect width="1920" height="1080" fill="white"/>
</clipPath>
</defs>
</svg>
