<svg width="768" height="1024" viewBox="0 0 768 1024" fill="none" xmlns="http://www.w3.org/2000/svg">
<g clip-path="url(#clip0_180_6794)">
<rect width="768" height="1024" fill="white"/>
<path opacity="0.1" fill-rule="evenodd" clip-rule="evenodd" d="M67.1866 40.2016C123.694 53.9454 169.178 103.959 178.243 162.314C193.556 260.899 106.404 349.547 9.17637 334.278C-91.7375 318.435 -148.548 212.667 -105.425 120.918C-75.92 58.1372 -1.72245 23.4407 67.1866 40.2016ZM-3.47244 53.5025C-30.0536 60.4097 -50.9441 72.6032 -69.2096 91.8741C-121.783 147.337 -120.406 229.858 -66.0152 283.315C-11.8782 336.522 71.153 337.173 124.907 284.811C179.742 231.395 181.66 146.801 129.292 91.5564C94.5784 54.9308 45.3342 40.8178 -3.47244 53.5025ZM52.7105 91.306C62.4416 96.7592 80.5366 104.963 92.9217 109.534L115.44 117.85V169.073C115.44 219.86 115.356 220.447 105.899 237.487C94.9419 257.224 73.942 276.921 52.0125 288.036C31.9455 298.208 26.3996 297.791 4.41536 284.467C-20.4898 269.372 -36.3877 252.823 -46.4372 231.533C-53.7074 216.137 -54.9395 208.668 -56.0943 173.069C-57.7928 120.678 -57.0948 118.091 -39.8555 112.939C-32.299 110.68 -13.477 102.498 1.97374 94.7564C17.4213 87.0147 31.1799 80.8393 32.5406 81.035C33.9046 81.2308 42.9794 85.8528 52.7105 91.306ZM-34.2034 125.152L-44.446 128.715L-43.2203 169.693C-42.2231 203.015 -40.7015 213.501 -35.0784 225.82C-26.8046 243.939 -5.07767 265.816 15.3817 276.632L30.247 284.493L48.0171 275.217C70.0432 263.723 92.2912 239.529 99.0595 219.709C102.63 209.249 104.181 192.982 104.181 165.937V127.161L84.0752 119.939C73.0156 115.969 56.7831 108.597 48.001 103.561L32.0292 94.4001L4.03577 107.996C-11.3635 115.472 -28.5706 123.194 -34.2034 125.152ZM45.9229 133.305C54.7404 138.18 62.0813 149.915 62.2486 159.406C62.3097 162.984 65.2564 168.386 68.795 171.41C74.2766 176.093 75.2288 180.878 75.2288 203.722C75.2288 240.058 73.8809 241.162 29.5296 241.162C-12.9655 241.162 -13.2357 240.915 -13.2357 201.927C-13.2357 178.766 -12.232 172.748 -7.97288 170.37C-5.07768 168.752 -1.77072 162.442 -0.625507 156.344C3.40526 134.903 27.3679 123.04 45.9229 133.305ZM17.3247 148.082C13.7862 151.613 10.891 157.39 10.891 160.921C10.891 166.627 13.0366 167.34 30.1923 167.34C47.8563 167.34 49.4937 166.749 49.4937 160.372C49.4937 143.604 29.4782 135.956 17.3247 148.082ZM2.84874 229.929H60.7528L62.6314 180.179H0.970073L2.84874 229.929ZM37.9225 195.726C38.8457 197.216 38.7428 203.715 37.6941 210.17C35.0402 226.472 25.3445 226.472 22.6905 210.17C21.6418 203.715 21.5389 197.216 22.4621 195.726C24.6335 192.215 35.7511 192.215 37.9225 195.726Z" fill="black"/>
<path opacity="0.1" fill-rule="evenodd" clip-rule="evenodd" d="M621.545 -56.0876C686.572 -15.0755 708.257 70.2808 671.28 139.662C640.9 196.666 574.824 227.862 509.85 215.877C429.923 201.131 377.081 122.602 391.901 40.5893C400.306 -5.92751 431.795 -46.4233 474.853 -66.0815C503.813 -79.3027 529.199 -83.2706 558.378 -79.1365C585.083 -75.3495 599.127 -70.224 621.545 -56.0876ZM561.27 -66.0032C535.476 -70.2236 509.036 -66.9162 484.696 -56.4228C414.691 -26.2432 382.992 53.9529 413.4 123.942C451.806 212.33 564.206 234.384 634.301 167.281C650.397 151.875 653.584 146.921 664.056 121.028C672.848 99.2809 675.919 87.5597 676.32 74.1667C677.762 26.3243 655.209 -18.1945 616.537 -43.845C596.388 -57.2107 583.55 -62.358 561.27 -66.0032ZM635.265 3.28789C636.792 7.54274 628.999 26.7055 601.682 85.845C582.116 128.204 564.171 164.08 561.808 165.566C553.912 170.527 547.513 164.779 538.109 144.286C532.983 133.113 527.553 124.223 526.042 124.534C524.53 124.848 511.403 133.831 496.867 144.501C478.331 158.115 468.63 163.246 464.375 161.697C454.161 157.979 437.856 132.29 440.718 124.427C442.104 120.618 453.56 110.319 466.176 101.536C478.792 92.7525 489.563 84.3327 490.111 82.8277C490.66 81.3197 484.406 76.5945 476.216 72.3225C468.025 68.0536 459.32 62.327 456.871 59.5981C446.488 48.0351 455.69 43.5595 540.476 18.9171C586.638 5.49803 626.402 -4.75373 628.84 -3.86645C631.278 -2.97917 634.168 0.241571 635.265 3.28789ZM547.535 30.1447C508.258 41.438 474.596 51.3082 472.727 52.0762C470.861 52.8452 478.487 58.7801 489.676 65.2673C500.865 71.7546 510.055 79.0376 510.098 81.4509C510.144 83.8654 497.045 95.1233 480.994 106.465L451.809 127.091L458.227 137.593C461.755 143.372 465.499 148.417 466.545 148.808C467.591 149.199 481.795 139.818 498.109 127.961C514.423 116.104 529.783 107.094 532.244 107.938C534.701 108.781 541.327 119.165 546.964 131.015C552.598 142.865 557.782 150.992 558.48 149.074C560.772 142.776 608.706 38.6992 615.775 24.6795C619.575 17.1378 621.842 10.6641 620.814 10.2898C619.785 9.91551 586.809 18.8503 547.535 30.1447Z" fill="black"/>
<path opacity="0.1" fill-rule="evenodd" clip-rule="evenodd" d="M563.003 272.565C539.046 285.964 523.976 300.457 508.197 325.275C473.852 379.294 477.686 447.698 517.934 499.027C534.236 519.815 567.59 541.836 593.753 549.081C675.788 571.797 756.56 527.03 780.536 445.562L789.193 416.154L782.695 379.634C777.24 348.96 774.526 340.42 765.734 326.285C744.196 291.64 705.061 264.346 665.786 256.569C635.976 250.67 589.116 257.963 563.003 272.565ZM671.096 271.529C725.838 286.691 761.79 326.222 771.767 382.228C786.254 463.561 721.727 541.283 639.223 541.871C565.277 542.393 505.943 490.213 498.833 418.404C493.361 363.103 520.106 311.684 568.449 284.566C584.995 275.285 592.852 272.904 618.361 269.431C644.264 265.908 651.884 266.211 671.096 271.529ZM607.729 301.794C591.241 311.817 586.841 332.416 597.873 347.929C617.526 375.563 659.728 356.455 653.762 322.62C650.855 306.133 622.038 293.096 607.729 301.794ZM632.817 314.715C647.234 324.793 642.713 345.504 625.43 348.552C616.021 350.211 605.062 342.109 603.315 332.205C601.988 324.676 611.228 312.014 619.063 310.633C622.539 310.02 628.729 311.857 632.817 314.715ZM532.599 374.681C528.802 386.23 537.26 392.446 570.12 402.262C612.133 414.811 612.165 414.899 596.993 475.056C588.363 509.272 589.081 518.929 600.367 520.433C610.508 521.781 615.26 516.616 626.452 492.067C640.16 462.012 643.322 456.014 645.699 455.595C646.758 455.409 656.546 464.478 667.452 475.751C678.358 487.024 690.001 498.147 693.324 500.47C702.002 506.536 711.357 503.813 713.767 494.513C715.503 487.817 712.486 481.37 695.352 455.146C682.822 435.974 674.024 419.052 672.711 411.602C670.566 399.438 670.611 399.378 696.934 379.182C725.445 357.308 730.809 349.791 723.599 341.816C716.892 334.399 708.456 336.007 679.488 350.228C644.469 367.416 614.701 372.736 576.972 368.552C542.776 364.759 535.529 365.76 532.599 374.681ZM579.908 380.97C618.955 384.369 642.018 380.279 678.991 363.394C695.174 356.006 710.08 350.228 712.115 350.552C714.151 350.88 703.503 360.312 688.452 371.513C673.401 382.717 660.323 393.664 659.39 395.839C654.801 406.552 663.023 428.27 682.372 456.563C693.318 472.566 702.041 487.22 701.755 489.132C701.473 491.039 689.991 481.494 676.247 467.917C662.5 454.338 649.595 442.526 647.564 441.667C640.835 438.819 634.227 447.474 620.532 477.065C604.275 512.193 605.683 509.683 603.2 507.948C602.086 507.171 605.071 490.84 609.835 471.657C619.009 434.716 618.381 410.143 608.078 402.941C605.287 400.99 590.456 395.884 575.121 391.594C559.785 387.303 547.04 382.659 546.796 381.277C546.203 377.91 544.902 377.925 579.908 380.97Z" fill="black"/>
<g opacity="0.1">
<ellipse cx="275.464" cy="373.055" rx="28.9063" ry="39.8438" transform="rotate(20 275.464 373.055)" fill="#C4FFCB"/>
<ellipse cx="302.04" cy="450.623" rx="30.8638" ry="55.4057" transform="rotate(-130 302.04 450.623)" fill="#C4FFCB"/>
<ellipse cx="212.343" cy="402.226" rx="30.8638" ry="55.4057" transform="rotate(-20 212.343 402.226)" fill="#C4FFCB"/>
<circle cx="149.706" cy="398.781" r="5.46875" transform="rotate(20 149.706 398.781)" fill="#C4FFCB"/>
<circle cx="344.311" cy="494.553" r="5.46875" transform="rotate(20 344.311 494.553)" fill="#C4FFCB"/>
<circle cx="184.596" cy="460.533" r="3.125" transform="rotate(20 184.596 460.533)" fill="#C4FFCB"/>
<circle cx="274.082" cy="532.179" r="5.46875" transform="rotate(20 274.082 532.179)" fill="#C4FFCB"/>
<path fill-rule="evenodd" clip-rule="evenodd" d="M262.686 276.127C217.389 275.185 179.97 289.64 148.665 320.177C134.258 334.229 129.847 341.097 119.913 364.925C105.437 399.65 102.37 427.126 109.517 458.076C122.407 513.896 157.398 551.258 213.287 568.876C238.102 576.7 245.235 577.52 268.659 575.24C331.671 569.104 377.108 534.645 398.048 477.112C432.937 381.255 363.548 278.225 262.686 276.127ZM352.648 327.892C403.128 378.466 408.266 456.302 364.718 510.78C324.357 561.272 262.553 576.342 201.419 550.6C167.056 536.129 146.769 515.941 131.418 480.94C113.402 439.854 114.912 399.892 136.014 359.411C154.763 323.447 194.207 296.308 236.378 290.358C265.468 286.255 279.251 288.197 309.995 300.74C331.53 309.529 339.171 314.392 352.648 327.892ZM275.551 327.521C259.704 336.844 242.569 355.451 242.706 363.187C242.869 372.389 247.301 370.807 258.169 357.67C263.932 350.701 271.74 343.004 275.519 340.563C281.774 336.528 281.093 339.726 267.981 375.988L253.573 415.853L251.182 404.573C245.771 379.029 219.771 345.54 198.975 337.326L188.195 333.069L180.69 354.893C168.228 391.146 174.505 424.532 198.248 448.226C205.326 455.292 216.941 463.191 224.12 465.821L237.146 470.597L243.068 454.535C250.439 434.542 264.53 419.869 287.987 407.764C304.729 399.124 306.142 397.57 308.53 385.177C309.941 377.856 310.486 366.736 309.744 360.463C308.077 346.382 298.042 322.737 292.947 320.882C290.87 320.126 283.041 323.113 275.551 327.521ZM297.8 360.186C300.934 386.174 298.309 392.804 282.022 400.082L267.378 406.623L279.372 373.67C292.132 338.612 294.951 336.546 297.8 360.186ZM336.308 404.244C309.772 405.321 290.751 411.851 272.519 426.142C260.732 435.381 256.405 441.44 249.092 458.917C244.161 470.707 237.329 483.561 233.909 487.479C228.479 493.702 226.563 493.928 218.711 489.252C206.156 481.781 191.535 465.734 191.421 459.308C191.265 450.556 179.294 448.159 176.427 456.304C174.534 461.687 177.23 466.468 188.567 477.829C196.584 485.859 207.98 495.256 213.887 498.707C222.756 503.889 224.166 506.259 221.967 512.301C218.54 521.716 209.644 518.774 189.488 501.566C162.856 478.825 143.941 423.428 157.947 409.189C165.427 401.581 163.636 391.793 154.133 388.334C143.246 384.372 135.53 392.601 139.236 404.228C140.858 409.315 142.08 418.757 141.951 425.209C141.202 462.925 173.587 511.476 210.174 527.492L223.068 533.136L231.764 514.017C240.026 495.851 240.966 494.93 250.658 495.512C303.08 498.669 329.562 486.86 352.689 450.016C364.443 431.296 369.522 407.71 362.344 405.212C359.48 404.214 347.765 403.778 336.308 404.244ZM221.752 370.811C235.964 389.231 243.362 411.293 241.481 429.641C240.631 437.923 239.222 445.03 238.348 445.437C236.851 446.134 206.233 363.503 205.852 357.737C205.504 352.478 211.26 357.214 221.752 370.811ZM211.589 405.09C221.157 432.768 227.404 455.368 225.474 455.314C218.299 455.118 202.069 439.273 194.587 425.165C190.336 417.153 186.483 403.058 186.02 393.84C185.06 374.649 188.319 352.094 191.824 353.689C193.127 354.281 202.022 377.412 211.589 405.09ZM340.308 419.093C338.138 420.854 318.009 434.066 295.577 448.452C261.956 470.015 255.059 473.303 256.316 467.185C259.055 453.858 274.728 435.936 291.775 426.638C311.77 415.733 352.183 409.449 340.308 419.093ZM334.994 456.036C329.751 462.549 320.136 471.288 313.635 475.452C301.832 483.009 263.439 490.556 261.201 485.758C260.551 484.365 280.001 470.403 304.423 454.729C344.792 428.821 348.629 427.049 346.679 435.212C345.497 440.15 340.239 449.52 334.994 456.036ZM152.528 401.925C150.959 403.161 148.664 402.892 147.425 401.323C146.186 399.755 146.454 397.462 148.023 396.225C149.592 394.988 151.887 395.258 153.126 396.826C154.365 398.395 154.097 400.688 152.528 401.925ZM340.439 483.577C335.374 485.935 332.184 490.118 331.306 495.555C329.232 508.402 294.155 525.282 278.431 520.999C268.508 518.293 266.284 518.972 262.905 525.716C260.168 531.184 260.463 535.261 263.875 539.067C268.736 544.494 279.034 546.399 280.578 542.159C281.018 540.949 291.413 534.933 303.68 528.794C353.223 503.994 358.359 500.63 357.355 493.651C355.91 483.611 349.089 479.55 340.439 483.577ZM347.179 497.061C345.611 498.298 343.315 498.028 342.076 496.46C340.837 494.891 341.105 492.598 342.674 491.362C344.243 490.125 346.538 490.395 347.777 491.963C349.017 493.531 348.748 495.824 347.179 497.061ZM276.749 533.589C276.135 535.275 274.253 536.151 272.566 535.537C270.879 534.923 270 533.042 270.614 531.356C271.227 529.671 273.109 528.795 274.796 529.409C276.484 530.023 277.362 531.904 276.749 533.589Z" fill="black"/>
</g>
</g>
<defs>
<clipPath id="clip0_180_6794">
<rect width="768" height="1024" fill="white"/>
</clipPath>
</defs>
</svg>
