<svg width="192" height="192" viewBox="0 0 192 192" fill="none" xmlns="http://www.w3.org/2000/svg">
<path fill-rule="evenodd" clip-rule="evenodd" d="M65.3952 4.35606C48.8066 10.1387 37.6976 17.5987 24.9948 31.4873C-2.65557 61.7169 -7.84142 105.257 11.8217 142.081C19.7864 156.995 38.361 174.581 54.0459 182.055C103.226 205.489 159.11 186.251 183.275 137.568L192 119.994L191.963 96.2549C191.934 76.315 191.172 70.6308 187.202 60.745C177.478 36.5153 155.845 14.9637 131.955 5.69714C113.822 -1.3343 83.4769 -1.94537 65.3952 4.35606ZM133.639 15.7163C166.457 31.3561 184.723 60.2672 184.787 96.6752C184.879 149.547 135.572 191.363 83.5057 182.564C36.8412 174.675 5.24337 135.193 8.74305 89.1435C11.4397 53.6807 34.011 24.2446 67.4942 12.5256C78.9544 8.51464 84.1711 7.88716 100.634 8.53309C117.352 9.19133 122.121 10.2289 133.639 15.7163ZM90.3366 27.7491C78.8312 32.2337 73.7686 44.7279 78.9976 55.7313C88.3136 75.3328 117.036 67.9794 117.036 45.991C117.036 35.2768 100.322 23.8571 90.3366 27.7491ZM104.713 38.6807C112.68 46.6349 107.529 59.1865 96.2968 59.1865C90.1826 59.1865 84.1752 52.8625 84.1752 46.4258C84.1752 41.5331 91.4067 34.5796 96.4981 34.5796C98.7572 34.5796 102.454 36.4251 104.713 38.6807ZM34.8839 65.3383C31.2076 72.1954 35.8471 77.0532 55.4671 86.8919C80.5523 99.4702 80.5626 99.5297 64.3149 135.759C55.0728 156.366 54.4525 162.532 61.3985 164.734C67.64 166.711 71.2095 163.983 80.9918 149.755C92.9717 132.335 95.6313 128.906 97.1758 128.906C97.8638 128.906 103.025 135.71 108.646 144.027C114.268 152.344 120.369 160.649 122.206 162.482C127.001 167.271 133.2 166.594 135.752 161C137.591 156.973 136.406 152.574 128.521 134.141C122.754 120.665 119.09 109.022 119.09 104.18C119.09 96.2754 119.125 96.2426 137.96 86.4387C158.361 75.8208 162.577 71.6787 158.919 65.8509C155.516 60.4312 150.02 60.5071 130.183 66.2508C106.2 73.192 86.8472 73.2371 63.5324 66.4066C42.4008 60.2159 37.7222 60.0416 34.8839 65.3383ZM64.0027 74.5597C88.2356 81.0416 103.226 81.0273 128.406 74.4941C139.427 71.6356 149.464 69.6506 150.71 70.0813C151.957 70.5139 144.198 75.2754 133.467 80.6623C122.735 86.0512 113.276 91.4975 112.446 92.7648C108.363 99.0068 111.131 113.609 120.183 133.592C125.303 144.895 129.172 155.1 128.78 156.273C128.39 157.444 122.214 150.152 115.06 140.068C107.905 129.981 101.084 121.102 99.8991 120.335C95.9743 117.792 90.848 122.513 78.9277 139.641C64.777 159.975 65.9436 158.549 64.5716 157.18C63.9555 156.567 67.6524 146.605 72.7869 135.044C82.6739 112.78 85.0091 97.2227 79.3159 91.5385C77.7735 89.9986 68.9935 85.1325 59.8048 80.7238C50.616 76.315 43.0991 71.9719 43.0991 71.0737C43.0991 68.8858 42.2776 68.7504 64.0027 74.5597Z" fill="black"/>
</svg>
