<svg width="192" height="192" viewBox="0 0 192 192" fill="none" xmlns="http://www.w3.org/2000/svg">
<ellipse cx="95.5" cy="60.5" rx="18.5" ry="25.5" fill="#C4FFCB"/>
<ellipse cx="128.462" cy="101.333" rx="19.7528" ry="35.4596" transform="rotate(-150 128.462 101.333)" fill="#C4FFCB"/>
<ellipse cx="63.9245" cy="91.8605" rx="19.7528" ry="35.4596" transform="rotate(-40 63.9245 91.8605)" fill="#C4FFCB"/>
<circle cx="25.5" cy="103.5" r="3.5" fill="#C4FFCB"/>
<circle cx="163.5" cy="118.5" r="3.5" fill="#C4FFCB"/>
<circle cx="60" cy="133" r="2" fill="#C4FFCB"/>
<circle cx="129.5" cy="156.5" r="3.5" fill="#C4FFCB"/>
<path fill-rule="evenodd" clip-rule="evenodd" d="M66.5986 5.00424C39.1504 14.3531 19.8105 31.2375 7.66796 56.4544C2.07929 68.0591 0.930219 73.1551 0.171832 89.6596C-0.933367 113.712 3.23672 130.907 14.3096 147.957C34.2805 178.706 63.5024 193.516 100.971 191.878C117.607 191.151 122.076 190.083 135.664 183.585C172.217 166.101 192 135.432 192 96.2477C192 30.962 127.717 -15.8116 66.5986 5.00424ZM132.033 16.4441C173.462 35.8096 193.59 81.4961 179.325 123.791C166.104 162.992 132.234 185.584 89.8329 183.484C65.999 182.303 49.3793 174.603 32.4858 156.913C12.657 136.147 4.81826 111.784 8.64781 82.8191C12.0511 57.0867 29.8325 32.1306 53.892 19.3218C70.4888 10.4863 79.2029 8.63737 100.438 9.45122C115.313 10.023 120.973 11.2751 132.033 16.4441ZM85.5855 33.0968C78.0956 42.1723 71.8635 57.1138 73.6393 61.7361C75.7515 67.2348 78.0706 65.3129 81.7309 55.0333C83.6718 49.5805 86.6823 43.2428 88.4206 40.9474C91.2995 37.1515 91.5899 39.2237 91.6421 63.9022L91.7027 91.0307L87.7959 84.7702C78.9501 70.5925 55.9833 56.1435 41.6784 55.7553L34.2637 55.555L34.527 70.3233C34.9678 94.8537 46.0511 113.558 65.5164 122.61C71.3203 125.311 80.0344 127.518 84.9274 127.529L93.8066 127.55L93.8525 116.594C93.909 102.957 99.1717 91.0473 110.629 78.6329C118.806 69.7724 119.316 68.5287 118.039 60.5529C117.285 55.8409 115.179 49.0337 113.36 45.4236C109.275 37.3205 98.0644 25.2963 94.5942 25.2963C93.1798 25.2963 89.1246 28.8063 85.5855 33.0968ZM106.116 47.8714C113.69 62.815 113.562 67.3767 105.36 75.3191L97.985 82.4581V60.0145C97.985 36.1373 99.2281 34.2779 106.116 47.8714ZM138.919 65.9389C123.196 72.3955 113.186 80.486 105.35 93.0716C100.283 101.208 99.0067 105.799 98.4342 117.911C98.0498 126.081 96.7545 135.306 95.5553 138.412C93.652 143.343 92.5489 143.898 86.8035 142.804C77.6172 141.06 65.3117 134.609 63.8367 130.77C61.8269 125.54 54.103 126.719 54.1615 132.245C54.2012 135.897 56.8691 138.182 66.1745 142.533C72.7535 145.607 81.664 148.764 85.972 149.547C92.4402 150.722 93.8066 151.838 93.8066 155.953C93.8066 162.366 87.8126 162.543 71.9241 156.606C50.9295 148.76 27.4278 119.584 32.7344 107.955C35.5674 101.742 32.3479 96.2477 25.8755 96.2477C18.4609 96.2477 15.6216 102.886 20.3955 109.067C22.4847 111.771 25.2864 117.182 26.6214 121.091C34.4267 143.937 64.5303 166.047 90.0397 167.671L99.0296 168.242L100.074 154.841C101.067 142.107 101.43 141.348 107.387 139.576C139.604 130 152.946 117.101 158.79 89.8808C161.761 76.0495 159.653 60.7532 154.789 60.8221C152.848 60.8492 145.707 63.151 138.919 65.9389ZM62.7064 70.9076C75.2856 78.875 84.5639 90.5236 87.4491 101.97C88.7507 107.137 89.4589 111.719 89.0222 112.155C88.2743 112.902 51.7735 69.9101 50.2818 66.5253C48.9217 63.4389 53.4198 65.027 62.7064 70.9076ZM64.0978 93.7477C75.9103 108.299 84.614 120.523 83.4419 120.914C79.0838 122.366 65.8549 116.39 58.2668 109.543C53.9568 105.655 48.554 98.0215 46.258 92.5791C41.4799 81.2477 38.5028 66.9698 40.9597 67.1618C41.8727 67.2327 52.2854 79.1964 64.0978 93.7477ZM144.575 73.994C143.655 75.5278 134.442 87.8796 124.1 101.442C108.6 121.769 105.172 125.256 104.589 121.302C103.319 112.688 108.822 98.4785 117.039 89.1546C126.676 78.2198 149.606 65.5946 144.575 73.994ZM149.466 97.3745C147.738 102.439 143.869 109.799 140.87 113.727C135.426 120.855 113.988 133.798 111.592 131.402C110.896 130.707 119.537 118.053 130.794 103.28C149.401 78.8625 151.321 76.9573 151.935 82.2932C152.305 85.5215 151.193 92.3078 149.466 97.3745ZM27.8854 104.772C27.2126 105.859 25.7732 106.2 24.6847 105.528C23.5962 104.856 23.2556 103.418 23.9284 102.331C24.6011 101.243 26.0406 100.903 27.1291 101.575C28.2175 102.247 28.5581 103.685 27.8854 104.772ZM158.769 112.746C156.239 115.273 155.236 118.487 155.898 121.949C157.463 130.129 140.062 147.959 129.668 148.825C123.108 149.369 121.919 150.265 121.363 155.06C120.914 158.948 121.984 161.335 124.869 162.877C128.981 165.077 135.591 163.969 135.591 161.081C135.591 160.256 140.526 154.363 146.559 147.986C170.926 122.226 173.278 119.079 171.147 115.102C168.08 109.38 163.089 108.43 158.769 112.746ZM165.774 119.38C165.101 120.467 163.662 120.807 162.573 120.135C161.485 119.463 161.144 118.026 161.817 116.938C162.49 115.851 163.929 115.511 165.018 116.183C166.106 116.855 166.447 118.293 165.774 119.38ZM131.413 156.765C131.413 157.913 130.472 158.852 129.323 158.852C128.174 158.852 127.234 157.913 127.234 156.765C127.234 155.617 128.174 154.678 129.323 154.678C130.472 154.678 131.413 155.617 131.413 156.765Z" fill="black"/>
</svg>
