<svg width="192" height="192" viewBox="0 0 192 192" fill="none" xmlns="http://www.w3.org/2000/svg">
<path fill-rule="evenodd" clip-rule="evenodd" d="M119.799 2.68902C155.964 11.4851 185.074 43.4935 190.876 80.8407C200.676 143.935 144.898 200.67 82.6728 190.898C18.0879 180.759 -18.2706 113.067 9.3277 54.3478C28.2111 14.1678 75.6976 -8.03797 119.799 2.68902ZM74.5776 11.2016C57.5656 15.6222 44.1957 23.4261 32.5058 35.7594C-1.14136 71.2558 -0.260178 124.069 34.5502 158.282C69.1979 192.334 122.338 192.751 156.741 159.239C191.835 125.053 193.062 70.9128 159.547 35.5561C137.33 12.1157 105.814 3.08342 74.5776 11.2016ZM110.535 35.3958C116.763 38.8859 128.343 44.1364 136.27 47.0616L150.681 52.384V85.1668C150.681 117.67 150.628 118.046 144.575 128.952C137.563 141.583 124.123 154.19 110.088 161.303C97.245 167.813 93.6957 167.546 79.6258 159.019C63.6864 149.358 53.5118 138.767 47.0801 125.141C42.4272 115.287 41.6387 110.507 40.8996 87.7243C39.8125 54.1937 40.2593 52.5381 51.2924 49.2411C56.1286 47.7949 68.1747 42.5588 78.0631 37.6041C87.9495 32.6494 96.755 28.6971 97.6259 28.8224C98.4989 28.9477 104.307 31.9058 110.535 35.3958ZM54.9097 57.0573L48.3545 59.3374L49.1389 85.5633C49.7771 106.89 50.7509 113.601 54.3497 121.485C59.645 133.081 73.5502 147.082 86.6442 154.005L96.158 159.035L107.531 153.099C121.628 145.743 135.866 130.258 140.198 117.574C142.483 110.879 143.476 100.468 143.476 83.1599V58.3432L130.608 53.7213C123.53 51.1802 113.141 46.4618 107.521 43.2387L97.2986 37.3761L79.3828 46.0776C69.5273 50.8618 58.5147 55.8042 54.9097 57.0573ZM106.191 62.2749C111.834 65.3952 116.532 72.9053 116.639 78.9796C116.678 81.27 118.564 84.7272 120.829 86.6623C124.337 89.6593 124.946 92.7221 124.946 107.342C124.946 130.597 124.084 131.304 95.6989 131.304C68.502 131.304 68.3291 131.146 68.3291 106.194C68.3291 91.3705 68.9714 87.5189 71.6973 85.9967C73.5502 84.9614 75.6667 80.9229 76.3996 77.0199C78.9793 63.2979 94.3154 55.7056 106.191 62.2749ZM87.8878 71.7324C85.6231 73.992 83.7701 77.6896 83.7701 79.9492C83.7701 83.6015 85.1434 84.0576 96.123 84.0576C107.428 84.0576 108.476 83.6796 108.476 79.5979C108.476 68.8668 95.6659 63.9717 87.8878 71.7324ZM78.6231 124.114H115.682L116.884 92.2743H77.4208L78.6231 124.114ZM101.07 102.225C101.661 103.178 101.595 107.338 100.924 111.469C99.2256 121.902 93.0204 121.902 91.3219 111.469C90.6507 107.338 90.5848 103.178 91.1757 102.225C92.5654 99.9775 99.6806 99.9775 101.07 102.225Z" fill="black"/>
</svg>
